<svg width="137" height="19" viewBox="0 0 137 19" fill="none" xmlns="http://www.w3.org/2000/svg">
<path d="M4.73295 15.2045V3.40909H7.40909V15.2045H4.73295ZM0.173295 10.6449V7.96875H11.9688V10.6449H0.173295ZM30.2138 0.545454V18H27.4013L19.1768 6.1108H19.032V18H15.87V0.545454H18.6996L26.9155 12.4432H27.0689V0.545454H30.2138ZM39.3182 18.2557C38.0057 18.2557 36.8722 17.983 35.9176 17.4375C34.9688 16.8864 34.2386 16.108 33.7273 15.1023C33.2159 14.0909 32.9602 12.9006 32.9602 11.5312C32.9602 10.1847 33.2159 9.00284 33.7273 7.9858C34.2443 6.96307 34.9659 6.16761 35.892 5.59943C36.8182 5.02557 37.9062 4.73864 39.1562 4.73864C39.9631 4.73864 40.7244 4.86932 41.4403 5.13068C42.1619 5.38636 42.7983 5.78409 43.3494 6.32386C43.9063 6.86364 44.3438 7.55114 44.6619 8.38636C44.9801 9.21591 45.1392 10.2045 45.1392 11.3523V12.2983H34.4091V10.2188H42.1818C42.1761 9.62784 42.0483 9.10227 41.7983 8.64205C41.5483 8.17614 41.1989 7.80966 40.75 7.54261C40.3068 7.27557 39.7898 7.14205 39.1989 7.14205C38.5682 7.14205 38.0142 7.29545 37.5369 7.60227C37.0597 7.90341 36.6875 8.30114 36.4205 8.79545C36.1591 9.28409 36.0256 9.82102 36.0199 10.4062V12.2216C36.0199 12.983 36.1591 13.6364 36.4375 14.1818C36.7159 14.7216 37.1051 15.1364 37.6051 15.4261C38.1051 15.7102 38.6903 15.8523 39.3608 15.8523C39.8097 15.8523 40.2159 15.7898 40.5795 15.6648C40.9432 15.5341 41.2585 15.3438 41.5256 15.0938C41.7926 14.8438 41.9943 14.5341 42.1307 14.1648L45.0114 14.4886C44.8295 15.25 44.483 15.9148 43.9716 16.483C43.4659 17.0455 42.8182 17.483 42.0284 17.7955C41.2386 18.1023 40.3352 18.2557 39.3182 18.2557ZM47.7493 18V4.90909H50.7408V7.09091H50.8771C51.1158 6.33523 51.5249 5.75284 52.1044 5.34375C52.6896 4.92898 53.3572 4.72159 54.1072 4.72159C54.2777 4.72159 54.468 4.73011 54.6783 4.74716C54.8942 4.75852 55.0732 4.77841 55.2152 4.80682V7.64489C55.0845 7.59943 54.8771 7.55966 54.593 7.52557C54.3146 7.4858 54.0447 7.46591 53.7834 7.46591C53.2209 7.46591 52.7152 7.58807 52.2663 7.83239C51.8232 8.07102 51.4737 8.40341 51.218 8.82955C50.9624 9.25568 50.8345 9.74716 50.8345 10.304V18H47.7493ZM61.5838 18.2301C60.5554 18.2301 59.6349 17.9659 58.8224 17.4375C58.0099 16.9091 57.3679 16.142 56.8963 15.1364C56.4247 14.1307 56.1889 12.9091 56.1889 11.4716C56.1889 10.017 56.4276 8.78977 56.9048 7.78977C57.3878 6.78409 58.0384 6.02557 58.8565 5.5142C59.6747 4.99716 60.5866 4.73864 61.5923 4.73864C62.3594 4.73864 62.9901 4.86932 63.4844 5.13068C63.9787 5.38636 64.3707 5.69602 64.6605 6.05966C64.9503 6.41761 65.1747 6.75568 65.3338 7.07386H65.4616V0.545454H68.5554V18H65.5213V15.9375H65.3338C65.1747 16.2557 64.9446 16.5937 64.6435 16.9517C64.3423 17.304 63.9446 17.6051 63.4503 17.8551C62.956 18.1051 62.3338 18.2301 61.5838 18.2301ZM62.4446 15.6989C63.098 15.6989 63.6548 15.5227 64.1151 15.1705C64.5753 14.8125 64.9247 14.3153 65.1634 13.679C65.402 13.0426 65.5213 12.3011 65.5213 11.4545C65.5213 10.608 65.402 9.87216 65.1634 9.24716C64.9304 8.62216 64.5838 8.13636 64.1236 7.78977C63.669 7.44318 63.1094 7.26989 62.4446 7.26989C61.7571 7.26989 61.1832 7.44886 60.723 7.80682C60.2628 8.16477 59.9162 8.65909 59.6832 9.28977C59.4503 9.92045 59.3338 10.642 59.3338 11.4545C59.3338 12.2727 59.4503 13.0028 59.6832 13.6449C59.9219 14.2812 60.2713 14.7841 60.7315 15.1534C61.1974 15.517 61.7685 15.6989 62.4446 15.6989ZM86.9197 6.43466H83.7322C83.6413 5.91193 83.4737 5.44886 83.2294 5.04545C82.9851 4.63636 82.6811 4.28977 82.3175 4.00568C81.9538 3.72159 81.5391 3.50852 81.0732 3.36648C80.6129 3.21875 80.1158 3.14489 79.5817 3.14489C78.6328 3.14489 77.7919 3.38352 77.0589 3.86079C76.326 4.33239 75.7521 5.02557 75.3374 5.94034C74.9226 6.84943 74.7152 7.96023 74.7152 9.27273C74.7152 10.608 74.9226 11.733 75.3374 12.6477C75.7578 13.5568 76.3317 14.2443 77.0589 14.7102C77.7919 15.1705 78.63 15.4006 79.5732 15.4006C80.0959 15.4006 80.5845 15.3324 81.0391 15.196C81.4993 15.054 81.9112 14.8466 82.2749 14.5739C82.6442 14.3011 82.9538 13.9659 83.2038 13.5682C83.4595 13.1705 83.6357 12.7159 83.7322 12.2045L86.9197 12.2216C86.8004 13.0511 86.5419 13.8295 86.1442 14.5568C85.7521 15.2841 85.2379 15.9261 84.6016 16.483C83.9652 17.0341 83.2209 17.4659 82.3686 17.7784C81.5163 18.0852 80.5703 18.2386 79.5305 18.2386C77.9964 18.2386 76.6271 17.8835 75.4226 17.1733C74.218 16.4631 73.2692 15.4375 72.576 14.0966C71.8828 12.7557 71.5362 11.1477 71.5362 9.27273C71.5362 7.39205 71.8857 5.78409 72.5845 4.44886C73.2834 3.10795 74.2351 2.08239 75.4396 1.37216C76.6442 0.661931 78.0078 0.306818 79.5305 0.306818C80.5021 0.306818 81.4055 0.443181 82.2408 0.715908C83.076 0.988636 83.8203 1.3892 84.4737 1.91761C85.1271 2.44034 85.6641 3.08239 86.0845 3.84375C86.5107 4.59943 86.7891 5.46307 86.9197 6.43466ZM92.7642 0.545454V18H89.679V0.545454H92.7642ZM101.647 18.2557C100.369 18.2557 99.2607 17.9744 98.3232 17.4119C97.3857 16.8494 96.6584 16.0625 96.1413 15.0511C95.63 14.0398 95.3743 12.858 95.3743 11.5057C95.3743 10.1534 95.63 8.96875 96.1413 7.9517C96.6584 6.93466 97.3857 6.14489 98.3232 5.58239C99.2607 5.01989 100.369 4.73864 101.647 4.73864C102.925 4.73864 104.033 5.01989 104.971 5.58239C105.908 6.14489 106.633 6.93466 107.144 7.9517C107.661 8.96875 107.92 10.1534 107.92 11.5057C107.92 12.858 107.661 14.0398 107.144 15.0511C106.633 16.0625 105.908 16.8494 104.971 17.4119C104.033 17.9744 102.925 18.2557 101.647 18.2557ZM101.664 15.7841C102.357 15.7841 102.937 15.5937 103.403 15.2131C103.869 14.8267 104.215 14.3097 104.442 13.6619C104.675 13.0142 104.792 12.2926 104.792 11.4972C104.792 10.696 104.675 9.97159 104.442 9.32386C104.215 8.67045 103.869 8.15057 103.403 7.7642C102.937 7.37784 102.357 7.18466 101.664 7.18466C100.954 7.18466 100.363 7.37784 99.8913 7.7642C99.4254 8.15057 99.076 8.67045 98.843 9.32386C98.6158 9.97159 98.5021 10.696 98.5021 11.4972C98.5021 12.2926 98.6158 13.0142 98.843 13.6619C99.076 14.3097 99.4254 14.8267 99.8913 15.2131C100.363 15.5937 100.954 15.7841 101.664 15.7841ZM118.882 12.4943V4.90909H121.967V18H118.976V15.6733H118.839C118.544 16.4062 118.058 17.0057 117.382 17.4716C116.712 17.9375 115.885 18.1705 114.902 18.1705C114.044 18.1705 113.286 17.9801 112.626 17.5994C111.973 17.2131 111.462 16.6534 111.092 15.9205C110.723 15.1818 110.538 14.2898 110.538 13.2443V4.90909H113.624V12.767C113.624 13.5966 113.851 14.2557 114.305 14.7443C114.76 15.233 115.357 15.4773 116.095 15.4773C116.55 15.4773 116.99 15.3665 117.416 15.1449C117.842 14.9233 118.192 14.5938 118.464 14.1562C118.743 13.7131 118.882 13.1591 118.882 12.4943ZM129.998 18.2301C128.969 18.2301 128.049 17.9659 127.237 17.4375C126.424 16.9091 125.782 16.142 125.31 15.1364C124.839 14.1307 124.603 12.9091 124.603 11.4716C124.603 10.017 124.842 8.78977 125.319 7.78977C125.802 6.78409 126.452 6.02557 127.271 5.5142C128.089 4.99716 129.001 4.73864 130.006 4.73864C130.773 4.73864 131.404 4.86932 131.898 5.13068C132.393 5.38636 132.785 5.69602 133.075 6.05966C133.364 6.41761 133.589 6.75568 133.748 7.07386H133.876V0.545454H136.969V18H133.935V15.9375H133.748C133.589 16.2557 133.359 16.5937 133.058 16.9517C132.756 17.304 132.359 17.6051 131.864 17.8551C131.37 18.1051 130.748 18.2301 129.998 18.2301ZM130.859 15.6989C131.512 15.6989 132.069 15.5227 132.529 15.1705C132.989 14.8125 133.339 14.3153 133.577 13.679C133.816 13.0426 133.935 12.3011 133.935 11.4545C133.935 10.608 133.816 9.87216 133.577 9.24716C133.344 8.62216 132.998 8.13636 132.538 7.78977C132.083 7.44318 131.523 7.26989 130.859 7.26989C130.171 7.26989 129.597 7.44886 129.137 7.80682C128.677 8.16477 128.33 8.65909 128.097 9.28977C127.864 9.92045 127.748 10.642 127.748 11.4545C127.748 12.2727 127.864 13.0028 128.097 13.6449C128.336 14.2812 128.685 14.7841 129.146 15.1534C129.612 15.517 130.183 15.6989 130.859 15.6989Z" fill="white"/>
</svg>
