<svg width="1017" height="748" viewBox="0 0 1017 748" fill="none" xmlns="http://www.w3.org/2000/svg">
<path d="M31.25 710.199C30.1799 710.199 29.2685 709.908 28.5156 709.325C27.7628 708.738 27.1875 707.888 26.7898 706.776C26.392 705.658 26.1932 704.309 26.1932 702.727C26.1932 701.155 26.392 699.813 26.7898 698.7C27.1922 697.583 27.7699 696.731 28.5227 696.143C29.2803 695.552 30.1894 695.256 31.25 695.256C32.3106 695.256 33.2173 695.552 33.9702 696.143C34.7277 696.731 35.3054 697.583 35.7031 698.7C36.1056 699.813 36.3068 701.155 36.3068 702.727C36.3068 704.309 36.108 705.658 35.7102 706.776C35.3125 707.888 34.7372 708.738 33.9844 709.325C33.2315 709.908 32.3201 710.199 31.25 710.199ZM31.25 708.636C32.3106 708.636 33.1345 708.125 33.7216 707.102C34.3087 706.08 34.6023 704.621 34.6023 702.727C34.6023 701.468 34.4673 700.395 34.1974 699.51C33.9323 698.625 33.5488 697.95 33.0469 697.486C32.5497 697.022 31.9508 696.79 31.25 696.79C30.1989 696.79 29.3774 697.308 28.7855 698.345C28.1937 699.377 27.8977 700.838 27.8977 702.727C27.8977 703.987 28.0303 705.057 28.2955 705.938C28.5606 706.818 28.9418 707.488 29.4389 707.947C29.9408 708.407 30.5445 708.636 31.25 708.636ZM46.3352 703.438V710H44.6591V695.455H46.3352V700.795H46.4773C46.733 700.232 47.1165 699.785 47.6278 699.453C48.1439 699.117 48.8305 698.949 49.6875 698.949C50.4309 698.949 51.0819 699.098 51.6406 699.396C52.1993 699.69 52.6326 700.142 52.9403 700.753C53.2528 701.359 53.4091 702.131 53.4091 703.068V710H51.733V703.182C51.733 702.315 51.508 701.645 51.0582 701.172C50.6132 700.694 49.9953 700.455 49.2045 700.455C48.6553 700.455 48.1629 700.571 47.7273 700.803C47.2964 701.035 46.9555 701.373 46.7045 701.818C46.4583 702.263 46.3352 702.803 46.3352 703.438ZM60.9073 710.227C59.9225 710.227 59.0584 709.993 58.315 709.524C57.5763 709.055 56.9987 708.4 56.582 707.557C56.1701 706.714 55.9641 705.729 55.9641 704.602C55.9641 703.466 56.1701 702.474 56.582 701.626C56.9987 700.779 57.5763 700.121 58.315 699.652C59.0584 699.183 59.9225 698.949 60.9073 698.949C61.8922 698.949 62.7539 699.183 63.4925 699.652C64.2359 700.121 64.8136 700.779 65.2255 701.626C65.6422 702.474 65.8505 703.466 65.8505 704.602C65.8505 705.729 65.6422 706.714 65.2255 707.557C64.8136 708.4 64.2359 709.055 63.4925 709.524C62.7539 709.993 61.8922 710.227 60.9073 710.227ZM60.9073 708.722C61.6554 708.722 62.271 708.53 62.7539 708.146C63.2369 707.763 63.5943 707.259 63.8263 706.634C64.0584 706.009 64.1744 705.331 64.1744 704.602C64.1744 703.873 64.0584 703.194 63.8263 702.564C63.5943 701.934 63.2369 701.425 62.7539 701.037C62.271 700.649 61.6554 700.455 60.9073 700.455C60.1592 700.455 59.5437 700.649 59.0607 701.037C58.5778 701.425 58.2203 701.934 57.9883 702.564C57.7563 703.194 57.6403 703.873 57.6403 704.602C57.6403 705.331 57.7563 706.009 57.9883 706.634C58.2203 707.259 58.5778 707.763 59.0607 708.146C59.5437 708.53 60.1592 708.722 60.9073 708.722ZM75.2841 705.54V699.091H76.9602V710H75.2841V708.153H75.1705C74.9148 708.707 74.517 709.179 73.9773 709.567C73.4375 709.95 72.7557 710.142 71.9318 710.142C71.25 710.142 70.6439 709.993 70.1136 709.695C69.5833 709.392 69.1667 708.937 68.8636 708.331C68.5606 707.72 68.4091 706.951 68.4091 706.023V699.091H70.0852V705.909C70.0852 706.705 70.3078 707.339 70.7528 707.812C71.2027 708.286 71.7756 708.523 72.4716 708.523C72.8883 708.523 73.312 708.416 73.7429 708.203C74.1785 707.99 74.5431 707.663 74.8366 707.223C75.1349 706.783 75.2841 706.222 75.2841 705.54ZM80.0302 710V699.091H81.6495V700.739H81.7631C81.962 700.199 82.3219 699.761 82.8427 699.425C83.3635 699.089 83.9506 698.92 84.604 698.92C84.7272 698.92 84.881 698.923 85.0657 698.928C85.2504 698.932 85.39 698.939 85.4847 698.949V700.653C85.4279 700.639 85.2977 700.618 85.0941 700.589C84.8952 700.556 84.6845 700.54 84.462 700.54C83.9317 700.54 83.4582 700.651 83.0415 700.874C82.6296 701.091 82.3029 701.394 82.0614 701.783C81.8247 702.166 81.7063 702.604 81.7063 703.097V710H80.0302ZM95.1989 701.534L93.6932 701.96C93.5985 701.709 93.4588 701.465 93.2741 701.229C93.0942 700.987 92.848 700.788 92.5355 700.632C92.223 700.476 91.8229 700.398 91.3352 700.398C90.6676 700.398 90.1113 700.552 89.6662 700.859C89.2259 701.162 89.0057 701.548 89.0057 702.017C89.0057 702.434 89.1572 702.763 89.4602 703.004C89.7633 703.246 90.2367 703.447 90.8807 703.608L92.5 704.006C93.4754 704.242 94.2022 704.605 94.6804 705.092C95.1586 705.575 95.3977 706.198 95.3977 706.96C95.3977 707.585 95.2178 708.144 94.858 708.636C94.5028 709.129 94.0057 709.517 93.3665 709.801C92.7273 710.085 91.9839 710.227 91.1364 710.227C90.0237 710.227 89.1027 709.986 88.3736 709.503C87.6444 709.02 87.1828 708.314 86.9886 707.386L88.5795 706.989C88.7311 707.576 89.0175 708.016 89.4389 708.31C89.8651 708.603 90.4214 708.75 91.108 708.75C91.8892 708.75 92.5095 708.584 92.9688 708.253C93.4328 707.917 93.6648 707.514 93.6648 707.045C93.6648 706.667 93.5322 706.349 93.267 706.094C93.0019 705.833 92.5947 705.639 92.0455 705.511L90.2273 705.085C89.2282 704.848 88.4943 704.482 88.0256 703.984C87.5616 703.482 87.3295 702.855 87.3295 702.102C87.3295 701.487 87.5024 700.942 87.848 700.469C88.1984 699.995 88.6742 699.624 89.2756 699.354C89.8816 699.084 90.5682 698.949 91.3352 698.949C92.4148 698.949 93.2623 699.186 93.8778 699.659C94.4981 700.133 94.9384 700.758 95.1989 701.534Z" fill="#CFCFD0"/>
<path d="M12.1648 476.017V474.568L18.5568 464.455H19.608V466.699H18.8977L14.0682 474.341V474.455H22.6761V476.017H12.1648ZM19.0114 479V475.577V474.902V464.455H20.6875V479H19.0114ZM30.082 479.199C29.012 479.199 28.1005 478.908 27.3477 478.325C26.5948 477.738 26.0195 476.888 25.6218 475.776C25.2241 474.658 25.0252 473.309 25.0252 471.727C25.0252 470.155 25.2241 468.813 25.6218 467.7C26.0243 466.583 26.6019 465.731 27.3548 465.143C28.1123 464.552 29.0214 464.256 30.082 464.256C31.1426 464.256 32.0494 464.552 32.8022 465.143C33.5598 465.731 34.1374 466.583 34.5352 467.7C34.9376 468.813 35.1388 470.155 35.1388 471.727C35.1388 473.309 34.94 474.658 34.5423 475.776C34.1445 476.888 33.5692 477.738 32.8164 478.325C32.0636 478.908 31.1521 479.199 30.082 479.199ZM30.082 477.636C31.1426 477.636 31.9665 477.125 32.5536 476.102C33.1407 475.08 33.4343 473.621 33.4343 471.727C33.4343 470.468 33.2994 469.395 33.0295 468.51C32.7643 467.625 32.3808 466.95 31.8789 466.486C31.3817 466.022 30.7828 465.79 30.082 465.79C29.0309 465.79 28.2094 466.308 27.6175 467.345C27.0257 468.377 26.7298 469.838 26.7298 471.727C26.7298 472.987 26.8623 474.057 27.1275 474.938C27.3926 475.818 27.7738 476.488 28.271 476.947C28.7728 477.407 29.3765 477.636 30.082 477.636ZM45.1673 472.438V479H43.4911V464.455H45.1673V469.795H45.3093C45.565 469.232 45.9485 468.785 46.4599 468.453C46.976 468.117 47.6625 467.949 48.5195 467.949C49.2629 467.949 49.9139 468.098 50.4727 468.396C51.0314 468.69 51.4646 469.142 51.7724 469.753C52.0849 470.359 52.2411 471.131 52.2411 472.068V479H50.565V472.182C50.565 471.315 50.3401 470.645 49.8903 470.172C49.4452 469.694 48.8273 469.455 48.0366 469.455C47.4873 469.455 46.9949 469.571 46.5593 469.803C46.1284 470.035 45.7875 470.373 45.5366 470.818C45.2904 471.263 45.1673 471.803 45.1673 472.438ZM59.7393 479.227C58.7545 479.227 57.8904 478.993 57.147 478.524C56.4084 478.055 55.8307 477.4 55.4141 476.557C55.0021 475.714 54.7962 474.729 54.7962 473.602C54.7962 472.466 55.0021 471.474 55.4141 470.626C55.8307 469.779 56.4084 469.121 57.147 468.652C57.8904 468.183 58.7545 467.949 59.7393 467.949C60.7242 467.949 61.5859 468.183 62.3246 468.652C63.0679 469.121 63.6456 469.779 64.0575 470.626C64.4742 471.474 64.6825 472.466 64.6825 473.602C64.6825 474.729 64.4742 475.714 64.0575 476.557C63.6456 477.4 63.0679 478.055 62.3246 478.524C61.5859 478.993 60.7242 479.227 59.7393 479.227ZM59.7393 477.722C60.4875 477.722 61.103 477.53 61.5859 477.146C62.0689 476.763 62.4264 476.259 62.6584 475.634C62.8904 475.009 63.0064 474.331 63.0064 473.602C63.0064 472.873 62.8904 472.194 62.6584 471.564C62.4264 470.934 62.0689 470.425 61.5859 470.037C61.103 469.649 60.4875 469.455 59.7393 469.455C58.9912 469.455 58.3757 469.649 57.8928 470.037C57.4098 470.425 57.0523 470.934 56.8203 471.564C56.5883 472.194 56.4723 472.873 56.4723 473.602C56.4723 474.331 56.5883 475.009 56.8203 475.634C57.0523 476.259 57.4098 476.763 57.8928 477.146C58.3757 477.53 58.9912 477.722 59.7393 477.722ZM74.1161 474.54V468.091H75.7923V479H74.1161V477.153H74.0025C73.7468 477.707 73.3491 478.179 72.8093 478.567C72.2695 478.95 71.5877 479.142 70.7638 479.142C70.082 479.142 69.476 478.993 68.9457 478.695C68.4154 478.392 67.9987 477.937 67.6957 477.331C67.3926 476.72 67.2411 475.951 67.2411 475.023V468.091H68.9173V474.909C68.9173 475.705 69.1398 476.339 69.5849 476.812C70.0347 477.286 70.6076 477.523 71.3036 477.523C71.7203 477.523 72.1441 477.416 72.5749 477.203C73.0105 476.99 73.3751 476.663 73.6687 476.223C73.967 475.783 74.1161 475.222 74.1161 474.54ZM78.8622 479V468.091H80.4815V469.739H80.5952C80.794 469.199 81.1539 468.761 81.6747 468.425C82.1955 468.089 82.7827 467.92 83.4361 467.92C83.5592 467.92 83.7131 467.923 83.8977 467.928C84.0824 467.932 84.2221 467.939 84.3168 467.949V469.653C84.2599 469.639 84.1297 469.618 83.9261 469.589C83.7273 469.556 83.5166 469.54 83.294 469.54C82.7637 469.54 82.2902 469.651 81.8736 469.874C81.4616 470.091 81.1349 470.394 80.8935 470.783C80.6567 471.166 80.5384 471.604 80.5384 472.097V479H78.8622ZM94.0309 470.534L92.5252 470.96C92.4305 470.709 92.2908 470.465 92.1062 470.229C91.9263 469.987 91.68 469.788 91.3675 469.632C91.055 469.476 90.6549 469.398 90.1673 469.398C89.4996 469.398 88.9433 469.552 88.4982 469.859C88.0579 470.162 87.8377 470.548 87.8377 471.017C87.8377 471.434 87.9892 471.763 88.2923 472.004C88.5953 472.246 89.0688 472.447 89.7127 472.608L91.332 473.006C92.3074 473.242 93.0342 473.605 93.5124 474.092C93.9906 474.575 94.2298 475.198 94.2298 475.96C94.2298 476.585 94.0498 477.144 93.69 477.636C93.3349 478.129 92.8377 478.517 92.1985 478.801C91.5593 479.085 90.8159 479.227 89.9684 479.227C88.8557 479.227 87.9348 478.986 87.2056 478.503C86.4764 478.02 86.0148 477.314 85.8207 476.386L87.4116 475.989C87.5631 476.576 87.8496 477.016 88.271 477.31C88.6971 477.603 89.2534 477.75 89.94 477.75C90.7212 477.75 91.3415 477.584 91.8008 477.253C92.2648 476.917 92.4968 476.514 92.4968 476.045C92.4968 475.667 92.3642 475.349 92.0991 475.094C91.8339 474.833 91.4267 474.639 90.8775 474.511L89.0593 474.085C88.0603 473.848 87.3263 473.482 86.8576 472.984C86.3936 472.482 86.1616 471.855 86.1616 471.102C86.1616 470.487 86.3344 469.942 86.68 469.469C87.0304 468.995 87.5063 468.624 88.1076 468.354C88.7137 468.084 89.4002 467.949 90.1673 467.949C91.2468 467.949 92.0943 468.186 92.7099 468.659C93.3301 469.133 93.7705 469.758 94.0309 470.534Z" fill="#CFCFD0"/>
<path d="M17.1648 251.199C16.1894 251.199 15.3277 251.026 14.5795 250.68C13.8362 250.33 13.2562 249.849 12.8395 249.239C12.4228 248.623 12.2169 247.922 12.2216 247.136C12.2169 246.521 12.3376 245.953 12.5838 245.432C12.83 244.906 13.1662 244.468 13.5923 244.118C14.0232 243.763 14.5038 243.538 15.0341 243.443V243.358C14.3381 243.178 13.7841 242.787 13.3722 242.186C12.9602 241.58 12.7566 240.891 12.7614 240.119C12.7566 239.381 12.9437 238.72 13.3224 238.138C13.7012 237.555 14.2221 237.096 14.8849 236.76C15.5526 236.424 16.3125 236.256 17.1648 236.256C18.0076 236.256 18.7604 236.424 19.4233 236.76C20.0862 237.096 20.607 237.555 20.9858 238.138C21.3693 238.72 21.5634 239.381 21.5682 240.119C21.5634 240.891 21.3527 241.58 20.9361 242.186C20.5241 242.787 19.9773 243.178 19.2955 243.358V243.443C19.821 243.538 20.2945 243.763 20.7159 244.118C21.1373 244.468 21.4735 244.906 21.7244 245.432C21.9754 245.953 22.1032 246.521 22.108 247.136C22.1032 247.922 21.8902 248.623 21.4688 249.239C21.0521 249.849 20.4721 250.33 19.7287 250.68C18.9901 251.026 18.1354 251.199 17.1648 251.199ZM17.1648 249.636C17.8229 249.636 18.3911 249.53 18.8693 249.317C19.3475 249.104 19.7169 248.803 19.9773 248.415C20.2377 248.027 20.3703 247.572 20.375 247.051C20.3703 246.502 20.2282 246.017 19.9489 245.595C19.6695 245.174 19.2884 244.842 18.8054 244.601C18.3272 244.359 17.7803 244.239 17.1648 244.239C16.5445 244.239 15.9905 244.359 15.5028 244.601C15.0199 244.842 14.6387 245.174 14.3594 245.595C14.0848 246.017 13.9498 246.502 13.9545 247.051C13.9498 247.572 14.0753 248.027 14.331 248.415C14.5914 248.803 14.9631 249.104 15.446 249.317C15.929 249.53 16.5019 249.636 17.1648 249.636ZM17.1648 242.733C17.6856 242.733 18.1473 242.629 18.5497 242.42C18.9569 242.212 19.2765 241.921 19.5085 241.547C19.7405 241.173 19.8589 240.735 19.8636 240.233C19.8589 239.741 19.7429 239.312 19.5156 238.947C19.2884 238.578 18.9735 238.294 18.571 238.095C18.1686 237.892 17.6998 237.79 17.1648 237.79C16.6203 237.79 16.1444 237.892 15.7372 238.095C15.33 238.294 15.0152 238.578 14.7926 238.947C14.5701 239.312 14.4612 239.741 14.4659 240.233C14.4612 240.735 14.5724 241.173 14.7997 241.547C15.0317 241.921 15.3513 242.212 15.7585 242.42C16.1657 242.629 16.6345 242.733 17.1648 242.733ZM29.5742 251.199C28.5041 251.199 27.5927 250.908 26.8398 250.325C26.087 249.738 25.5117 248.888 25.114 247.776C24.7163 246.658 24.5174 245.309 24.5174 243.727C24.5174 242.155 24.7163 240.813 25.114 239.7C25.5165 238.583 26.0941 237.731 26.8469 237.143C27.6045 236.552 28.5136 236.256 29.5742 236.256C30.6348 236.256 31.5415 236.552 32.2944 237.143C33.052 237.731 33.6296 238.583 34.0273 239.7C34.4298 240.813 34.631 242.155 34.631 243.727C34.631 245.309 34.4322 246.658 34.0344 247.776C33.6367 248.888 33.0614 249.738 32.3086 250.325C31.5558 250.908 30.6443 251.199 29.5742 251.199ZM29.5742 249.636C30.6348 249.636 31.4587 249.125 32.0458 248.102C32.6329 247.08 32.9265 245.621 32.9265 243.727C32.9265 242.468 32.7915 241.395 32.5217 240.51C32.2565 239.625 31.873 238.95 31.3711 238.486C30.8739 238.022 30.275 237.79 29.5742 237.79C28.5231 237.79 27.7016 238.308 27.1097 239.345C26.5179 240.377 26.2219 241.838 26.2219 243.727C26.2219 244.987 26.3545 246.057 26.6197 246.938C26.8848 247.818 27.266 248.488 27.7631 248.947C28.265 249.407 28.8687 249.636 29.5742 249.636ZM44.6594 244.438V251H42.9833V236.455H44.6594V241.795H44.8015C45.0572 241.232 45.4407 240.785 45.9521 240.453C46.4682 240.117 47.1547 239.949 48.0117 239.949C48.7551 239.949 49.4061 240.098 49.9648 240.396C50.5236 240.69 50.9568 241.142 51.2646 241.753C51.5771 242.359 51.7333 243.131 51.7333 244.068V251H50.0572V244.182C50.0572 243.315 49.8323 242.645 49.3825 242.172C48.9374 241.694 48.3195 241.455 47.5288 241.455C46.9795 241.455 46.4871 241.571 46.0515 241.803C45.6206 242.035 45.2797 242.373 45.0288 242.818C44.7826 243.263 44.6594 243.803 44.6594 244.438ZM59.2315 251.227C58.2467 251.227 57.3826 250.993 56.6392 250.524C55.9006 250.055 55.3229 249.4 54.9062 248.557C54.4943 247.714 54.2884 246.729 54.2884 245.602C54.2884 244.466 54.4943 243.474 54.9062 242.626C55.3229 241.779 55.9006 241.121 56.6392 240.652C57.3826 240.183 58.2467 239.949 59.2315 239.949C60.2164 239.949 61.0781 240.183 61.8168 240.652C62.5601 241.121 63.1378 241.779 63.5497 242.626C63.9664 243.474 64.1747 244.466 64.1747 245.602C64.1747 246.729 63.9664 247.714 63.5497 248.557C63.1378 249.4 62.5601 250.055 61.8168 250.524C61.0781 250.993 60.2164 251.227 59.2315 251.227ZM59.2315 249.722C59.9796 249.722 60.5952 249.53 61.0781 249.146C61.5611 248.763 61.9186 248.259 62.1506 247.634C62.3826 247.009 62.4986 246.331 62.4986 245.602C62.4986 244.873 62.3826 244.194 62.1506 243.564C61.9186 242.934 61.5611 242.425 61.0781 242.037C60.5952 241.649 59.9796 241.455 59.2315 241.455C58.4834 241.455 57.8679 241.649 57.3849 242.037C56.902 242.425 56.5445 242.934 56.3125 243.564C56.0805 244.194 55.9645 244.873 55.9645 245.602C55.9645 246.331 56.0805 247.009 56.3125 247.634C56.5445 248.259 56.902 248.763 57.3849 249.146C57.8679 249.53 58.4834 249.722 59.2315 249.722ZM73.6083 246.54V240.091H75.2844V251H73.6083V249.153H73.4947C73.239 249.707 72.8413 250.179 72.3015 250.567C71.7617 250.95 71.0799 251.142 70.256 251.142C69.5742 251.142 68.9682 250.993 68.4379 250.695C67.9076 250.392 67.4909 249.937 67.1879 249.331C66.8848 248.72 66.7333 247.951 66.7333 247.023V240.091H68.4094V246.909C68.4094 247.705 68.632 248.339 69.0771 248.812C69.5269 249.286 70.0998 249.523 70.7958 249.523C71.2125 249.523 71.6362 249.416 72.0671 249.203C72.5027 248.99 72.8673 248.663 73.1609 248.223C73.4592 247.783 73.6083 247.222 73.6083 246.54ZM78.3544 251V240.091H79.9737V241.739H80.0874C80.2862 241.199 80.6461 240.761 81.1669 240.425C81.6877 240.089 82.2749 239.92 82.9283 239.92C83.0514 239.92 83.2053 239.923 83.3899 239.928C83.5746 239.932 83.7143 239.939 83.8089 239.949V241.653C83.7521 241.639 83.6219 241.618 83.4183 241.589C83.2195 241.556 83.0088 241.54 82.7862 241.54C82.2559 241.54 81.7824 241.651 81.3658 241.874C80.9538 242.091 80.6271 242.394 80.3857 242.783C80.1489 243.166 80.0305 243.604 80.0305 244.097V251H78.3544ZM93.5231 242.534L92.0174 242.96C91.9227 242.709 91.783 242.465 91.5984 242.229C91.4184 241.987 91.1722 241.788 90.8597 241.632C90.5472 241.476 90.1471 241.398 89.6594 241.398C88.9918 241.398 88.4355 241.552 87.9904 241.859C87.5501 242.162 87.3299 242.548 87.3299 243.017C87.3299 243.434 87.4814 243.763 87.7844 244.004C88.0875 244.246 88.561 244.447 89.2049 244.608L90.8242 245.006C91.7996 245.242 92.5264 245.605 93.0046 246.092C93.4828 246.575 93.7219 247.198 93.7219 247.96C93.7219 248.585 93.542 249.144 93.1822 249.636C92.8271 250.129 92.3299 250.517 91.6907 250.801C91.0515 251.085 90.3081 251.227 89.4606 251.227C88.3479 251.227 87.427 250.986 86.6978 250.503C85.9686 250.02 85.507 249.314 85.3129 248.386L86.9038 247.989C87.0553 248.576 87.3417 249.016 87.7631 249.31C88.1893 249.603 88.7456 249.75 89.4322 249.75C90.2134 249.75 90.8337 249.584 91.293 249.253C91.757 248.917 91.989 248.514 91.989 248.045C91.989 247.667 91.8564 247.349 91.5913 247.094C91.3261 246.833 90.9189 246.639 90.3697 246.511L88.5515 246.085C87.5524 245.848 86.8185 245.482 86.3498 244.984C85.8858 244.482 85.6538 243.855 85.6538 243.102C85.6538 242.487 85.8266 241.942 86.1722 241.469C86.5226 240.995 86.9985 240.624 87.5998 240.354C88.2058 240.084 88.8924 239.949 89.6594 239.949C90.739 239.949 91.5865 240.186 92.2021 240.659C92.8223 241.133 93.2627 241.758 93.5231 242.534Z" fill="#CFCFD0"/>
<path d="M6.61932 4.45455V19H4.85795V6.30114H4.77273L1.22159 8.65909V6.86932L4.85795 4.45455H6.61932ZM15.6321 19.1989C15.0355 19.1894 14.4389 19.0758 13.8423 18.858C13.2457 18.6402 12.7012 18.2732 12.2088 17.7571C11.7164 17.2363 11.321 16.5331 11.0227 15.6477C10.7244 14.7576 10.5753 13.6402 10.5753 12.2955C10.5753 11.0076 10.696 9.86648 10.9375 8.87216C11.179 7.87311 11.5294 7.03267 11.9886 6.35085C12.4479 5.6643 13.0019 5.14347 13.6506 4.78835C14.304 4.43324 15.0402 4.25568 15.8594 4.25568C16.6738 4.25568 17.3982 4.41903 18.0327 4.74574C18.6719 5.06771 19.1927 5.51752 19.5952 6.09517C19.9976 6.67282 20.258 7.33807 20.3764 8.09091H18.6435C18.4825 7.4375 18.17 6.89536 17.706 6.46449C17.242 6.03362 16.6264 5.81818 15.8594 5.81818C14.7325 5.81818 13.8447 6.30824 13.196 7.28835C12.5521 8.26847 12.2277 9.64394 12.223 11.4148H12.3366C12.6018 11.0123 12.9167 10.669 13.2812 10.3849C13.6506 10.0961 14.0578 9.87358 14.5028 9.71733C14.9479 9.56108 15.419 9.48295 15.9162 9.48295C16.7495 9.48295 17.5118 9.69129 18.2031 10.108C18.8944 10.5199 19.4484 11.0904 19.8651 11.8196C20.2817 12.544 20.4901 13.375 20.4901 14.3125C20.4901 15.2121 20.2888 16.036 19.8864 16.7841C19.4839 17.5275 18.9181 18.1193 18.1889 18.5597C17.4645 18.9953 16.6122 19.2083 15.6321 19.1989ZM15.6321 17.6364C16.2287 17.6364 16.7637 17.4872 17.2372 17.1889C17.7154 16.8906 18.0919 16.4905 18.3665 15.9886C18.6458 15.4867 18.7855 14.928 18.7855 14.3125C18.7855 13.7112 18.6506 13.1643 18.3807 12.6719C18.1155 12.1747 17.7486 11.7794 17.2798 11.4858C16.8158 11.1922 16.2855 11.0455 15.6889 11.0455C15.2391 11.0455 14.8201 11.1354 14.4318 11.3153C14.0436 11.4905 13.7027 11.732 13.4091 12.0398C13.1203 12.3475 12.893 12.7003 12.7273 13.098C12.5616 13.491 12.4787 13.9053 12.4787 14.3409C12.4787 14.9186 12.6136 15.4583 12.8835 15.9602C13.1581 16.4621 13.5322 16.867 14.0057 17.1747C14.4839 17.4825 15.026 17.6364 15.6321 17.6364ZM28.0273 19.1989C26.9573 19.1989 26.0458 18.9077 25.293 18.3253C24.5401 17.7382 23.9648 16.8883 23.5671 15.7756C23.1694 14.6581 22.9705 13.3087 22.9705 11.7273C22.9705 10.1553 23.1694 8.81297 23.5671 7.70028C23.9696 6.58286 24.5472 5.73059 25.3001 5.14347C26.0576 4.55161 26.9667 4.25568 28.0273 4.25568C29.0879 4.25568 29.9947 4.55161 30.7475 5.14347C31.5051 5.73059 32.0827 6.58286 32.4805 7.70028C32.8829 8.81297 33.0842 10.1553 33.0842 11.7273C33.0842 13.3087 32.8853 14.6581 32.4876 15.7756C32.0898 16.8883 31.5146 17.7382 30.7617 18.3253C30.0089 18.9077 29.0974 19.1989 28.0273 19.1989ZM28.0273 17.6364C29.0879 17.6364 29.9118 17.125 30.4989 16.1023C31.0861 15.0795 31.3796 13.6212 31.3796 11.7273C31.3796 10.4678 31.2447 9.39536 30.9748 8.50994C30.7096 7.62453 30.3261 6.94981 29.8242 6.4858C29.3271 6.02178 28.7281 5.78977 28.0273 5.78977C26.9762 5.78977 26.1547 6.30824 25.5629 7.34517C24.971 8.37737 24.6751 9.83807 24.6751 11.7273C24.6751 12.9867 24.8076 14.0568 25.0728 14.9375C25.3379 15.8182 25.7191 16.4882 26.2163 16.9474C26.7182 17.4067 27.3219 17.6364 28.0273 17.6364ZM43.1126 12.4375V19H41.4364V4.45455H43.1126V9.79545H43.2546C43.5103 9.23201 43.8938 8.78456 44.4052 8.45312C44.9213 8.11695 45.6078 7.94886 46.4648 7.94886C47.2082 7.94886 47.8593 8.09801 48.418 8.39631C48.9767 8.68987 49.4099 9.14205 49.7177 9.75284C50.0302 10.3589 50.1864 11.1307 50.1864 12.0682V19H48.5103V12.1818C48.5103 11.3153 48.2854 10.6454 47.8356 10.1719C47.3905 9.69366 46.7726 9.45455 45.9819 9.45455C45.4326 9.45455 44.9402 9.57055 44.5046 9.80256C44.0737 10.0346 43.7328 10.3731 43.4819 10.8182C43.2357 11.2633 43.1126 11.803 43.1126 12.4375ZM57.6847 19.2273C56.6998 19.2273 55.8357 18.9929 55.0923 18.5241C54.3537 18.0554 53.776 17.3996 53.3594 16.5568C52.9474 15.714 52.7415 14.7292 52.7415 13.6023C52.7415 12.4659 52.9474 11.474 53.3594 10.6264C53.776 9.77888 54.3537 9.12074 55.0923 8.65199C55.8357 8.18324 56.6998 7.94886 57.6847 7.94886C58.6695 7.94886 59.5313 8.18324 60.2699 8.65199C61.0133 9.12074 61.5909 9.77888 62.0028 10.6264C62.4195 11.474 62.6278 12.4659 62.6278 13.6023C62.6278 14.7292 62.4195 15.714 62.0028 16.5568C61.5909 17.3996 61.0133 18.0554 60.2699 18.5241C59.5313 18.9929 58.6695 19.2273 57.6847 19.2273ZM57.6847 17.7216C58.4328 17.7216 59.0483 17.5298 59.5312 17.1463C60.0142 16.7628 60.3717 16.2585 60.6037 15.6335C60.8357 15.0085 60.9517 14.3314 60.9517 13.6023C60.9517 12.8731 60.8357 12.1937 60.6037 11.5639C60.3717 10.9342 60.0142 10.4252 59.5312 10.0369C59.0483 9.64867 58.4328 9.45455 57.6847 9.45455C56.9366 9.45455 56.321 9.64867 55.8381 10.0369C55.3551 10.4252 54.9976 10.9342 54.7656 11.5639C54.5336 12.1937 54.4176 12.8731 54.4176 13.6023C54.4176 14.3314 54.5336 15.0085 54.7656 15.6335C54.9976 16.2585 55.3551 16.7628 55.8381 17.1463C56.321 17.5298 56.9366 17.7216 57.6847 17.7216ZM72.0614 14.5398V8.09091H73.7376V19H72.0614V17.1534H71.9478C71.6921 17.7074 71.2944 18.1785 70.7546 18.5668C70.2148 18.9503 69.533 19.142 68.7092 19.142C68.0273 19.142 67.4213 18.9929 66.891 18.6946C66.3607 18.3916 65.944 17.937 65.641 17.331C65.3379 16.7202 65.1864 15.9508 65.1864 15.0227V8.09091H66.8626V14.9091C66.8626 15.7045 67.0851 16.339 67.5302 16.8125C67.98 17.286 68.5529 17.5227 69.2489 17.5227C69.6656 17.5227 70.0894 17.4162 70.5202 17.2031C70.9558 16.9901 71.3204 16.6634 71.614 16.223C71.9123 15.7827 72.0614 15.2216 72.0614 14.5398ZM76.8075 19V8.09091H78.4268V9.73864H78.5405C78.7393 9.19886 79.0992 8.76089 79.62 8.42472C80.1409 8.08854 80.728 7.92045 81.3814 7.92045C81.5045 7.92045 81.6584 7.92282 81.843 7.92756C82.0277 7.93229 82.1674 7.93939 82.2621 7.94886V9.65341C82.2053 9.6392 82.075 9.6179 81.8714 9.58949C81.6726 9.55634 81.4619 9.53977 81.2393 9.53977C80.709 9.53977 80.2356 9.65104 79.8189 9.87358C79.407 10.0914 79.0803 10.3944 78.8388 10.7827C78.602 11.1662 78.4837 11.6042 78.4837 12.0966V19H76.8075ZM91.9762 10.5341L90.4705 10.9602C90.3758 10.7093 90.2362 10.4654 90.0515 10.2287C89.8716 9.98722 89.6254 9.78835 89.3129 9.6321C89.0004 9.47585 88.6003 9.39773 88.1126 9.39773C87.445 9.39773 86.8886 9.55161 86.4435 9.85938C86.0032 10.1624 85.783 10.5483 85.783 11.017C85.783 11.4337 85.9345 11.7628 86.2376 12.0043C86.5406 12.2457 87.0141 12.447 87.658 12.608L89.2773 13.0057C90.2527 13.2424 90.9795 13.6046 91.4577 14.0923C91.936 14.5753 92.1751 15.1979 92.1751 15.9602C92.1751 16.5852 91.9951 17.1439 91.6353 17.6364C91.2802 18.1288 90.783 18.517 90.1438 18.8011C89.5046 19.0852 88.7612 19.2273 87.9137 19.2273C86.801 19.2273 85.8801 18.9858 85.1509 18.5028C84.4218 18.0199 83.9601 17.3144 83.766 16.3864L85.3569 15.9886C85.5084 16.5758 85.7949 17.0161 86.2163 17.3097C86.6424 17.6032 87.1987 17.75 87.8853 17.75C88.6665 17.75 89.2868 17.5843 89.7461 17.2528C90.2101 16.9167 90.4421 16.5142 90.4421 16.0455C90.4421 15.6667 90.3095 15.3494 90.0444 15.0938C89.7792 14.8333 89.372 14.6392 88.8228 14.5114L87.0046 14.0852C86.0056 13.8485 85.2717 13.4815 84.8029 12.9844C84.3389 12.4825 84.1069 11.8551 84.1069 11.1023C84.1069 10.4867 84.2797 9.94223 84.6254 9.46875C84.9757 8.99527 85.4516 8.62358 86.0529 8.35369C86.659 8.08381 87.3455 7.94886 88.1126 7.94886C89.1921 7.94886 90.0397 8.18561 90.6552 8.65909C91.2754 9.13258 91.7158 9.75758 91.9762 10.5341Z" fill="#CFCFD0"/>
<line x1="1017" y1="14.5686" x2="137.023" y2="14.5686" stroke="#E8EFFC" stroke-opacity="0.1" stroke-width="1.16022" stroke-dasharray="2.32 2.32"/>
<path d="M1015.28 246.273L135.302 246.273" stroke="#E8EFFC" stroke-opacity="0.1" stroke-width="1.16022" stroke-dasharray="2.32 2.32"/>
<line x1="1014.93" y1="475.116" x2="134.957" y2="475.116" stroke="#E8EFFC" stroke-opacity="0.1" stroke-width="1.16022" stroke-dasharray="2.32 2.32"/>
<line x1="1014.93" y1="705.81" x2="134.957" y2="705.81" stroke="#E8EFFC" stroke-opacity="0.1" stroke-width="2"/>
<rect x="259" y="246.273" width="37.8707" height="439.431" rx="18.9353" fill="#337CF8"/>
<path d="M261.585 720.78H263.477L267.926 731.647H268.08L272.528 720.78H274.42V733.871H272.938V723.925H272.81L268.719 733.871H267.287L263.196 723.925H263.068V733.871H261.585V720.78ZM280.284 734.101C279.661 734.101 279.097 733.984 278.59 733.75C278.083 733.511 277.68 733.168 277.382 732.721C277.083 732.269 276.934 731.724 276.934 731.084C276.934 730.522 277.045 730.066 277.267 729.717C277.488 729.363 277.784 729.086 278.155 728.886C278.526 728.685 278.935 728.536 279.382 728.438C279.834 728.336 280.288 728.255 280.744 728.195C281.34 728.118 281.824 728.061 282.195 728.023C282.57 727.98 282.843 727.91 283.013 727.812C283.188 727.714 283.275 727.543 283.275 727.3V727.249C283.275 726.618 283.102 726.128 282.757 725.779C282.416 725.43 281.899 725.255 281.204 725.255C280.484 725.255 279.919 725.413 279.51 725.728C279.101 726.043 278.813 726.38 278.647 726.738L277.215 726.226C277.471 725.63 277.812 725.165 278.238 724.833C278.669 724.496 279.137 724.262 279.644 724.13C280.156 723.993 280.659 723.925 281.153 723.925C281.468 723.925 281.83 723.964 282.24 724.04C282.653 724.113 283.051 724.264 283.435 724.494C283.823 724.724 284.144 725.072 284.4 725.536C284.656 726.001 284.784 726.623 284.784 727.403V733.871H283.275V732.542H283.198C283.096 732.755 282.926 732.983 282.687 733.226C282.448 733.469 282.131 733.675 281.735 733.846C281.338 734.016 280.855 734.101 280.284 734.101ZM280.514 732.746C281.11 732.746 281.613 732.629 282.022 732.395C282.436 732.16 282.747 731.858 282.955 731.487C283.169 731.116 283.275 730.726 283.275 730.317V728.937C283.211 729.013 283.07 729.084 282.853 729.148C282.64 729.207 282.393 729.261 282.112 729.307C281.835 729.35 281.564 729.388 281.3 729.422C281.04 729.452 280.829 729.478 280.667 729.499C280.275 729.55 279.909 729.633 279.568 729.748C279.231 729.859 278.958 730.028 278.749 730.253C278.545 730.475 278.443 730.778 278.443 731.161C278.443 731.685 278.637 732.082 279.024 732.35C279.416 732.614 279.913 732.746 280.514 732.746ZM288.157 737.553C287.901 737.553 287.673 737.532 287.473 737.489C287.273 737.451 287.134 737.413 287.058 737.374L287.441 736.045C287.808 736.138 288.131 736.172 288.413 736.147C288.694 736.121 288.943 735.996 289.161 735.77C289.382 735.548 289.585 735.188 289.768 734.69L290.049 733.922L286.418 724.053H288.055L290.765 731.877H290.867L293.577 724.053H295.214L291.046 735.303C290.859 735.81 290.626 736.23 290.349 736.562C290.072 736.899 289.751 737.148 289.384 737.31C289.022 737.472 288.613 737.553 288.157 737.553Z" fill="#CFCFD0"/>
<rect x="165" y="475.542" width="38.5592" height="210.163" rx="19.2796" fill="#337CF8"/>
<path d="M171.122 733.871H169.46L174.267 720.78H175.903L180.71 733.871H179.048L175.136 722.851H175.034L171.122 733.871ZM171.736 728.758H178.435V730.164H171.736V728.758ZM182.545 737.553V724.053H184.002V725.613H184.181C184.292 725.442 184.445 725.225 184.641 724.961C184.842 724.692 185.127 724.454 185.498 724.245C185.873 724.032 186.38 723.925 187.019 723.925C187.846 723.925 188.575 724.132 189.205 724.545C189.836 724.959 190.328 725.545 190.682 726.303C191.036 727.062 191.212 727.957 191.212 728.988C191.212 730.028 191.036 730.929 190.682 731.692C190.328 732.45 189.838 733.038 189.212 733.456C188.585 733.869 187.863 734.076 187.045 734.076C186.414 734.076 185.909 733.971 185.53 733.763C185.151 733.55 184.859 733.309 184.654 733.04C184.45 732.768 184.292 732.542 184.181 732.363H184.053V737.553H182.545ZM184.028 728.962C184.028 729.704 184.136 730.358 184.354 730.925C184.571 731.487 184.888 731.928 185.306 732.248C185.724 732.563 186.235 732.721 186.84 732.721C187.471 732.721 187.997 732.555 188.419 732.222C188.845 731.886 189.165 731.434 189.378 730.867C189.595 730.296 189.704 729.661 189.704 728.962C189.704 728.272 189.597 727.65 189.384 727.096C189.175 726.538 188.858 726.096 188.432 725.773C188.01 725.444 187.479 725.28 186.84 725.28C186.227 725.28 185.711 725.436 185.293 725.747C184.876 726.054 184.56 726.484 184.347 727.038C184.134 727.588 184.028 728.229 184.028 728.962ZM193.513 733.871V724.053H194.971V725.536H195.073C195.252 725.05 195.576 724.656 196.045 724.354C196.513 724.051 197.042 723.9 197.63 723.9C197.741 723.9 197.879 723.902 198.045 723.906C198.212 723.91 198.337 723.917 198.423 723.925V725.459C198.371 725.447 198.254 725.427 198.071 725.402C197.892 725.372 197.702 725.357 197.502 725.357C197.025 725.357 196.599 725.457 196.224 725.658C195.853 725.854 195.559 726.126 195.342 726.476C195.129 726.821 195.022 727.215 195.022 727.658V733.871H193.513Z" fill="#CFCFD0"/>
<rect x="448" y="476" width="38.5592" height="210.163" rx="19.2796" fill="#115945"/>
<path d="M463.276 611.469C462.603 611.545 462.082 611.857 461.713 612.406C461.339 612.955 461.152 613.647 461.152 614.48C461.152 615.077 461.247 615.593 461.436 616.028C461.621 616.464 461.876 616.803 462.203 617.044C462.525 617.281 462.892 617.399 463.304 617.399C463.65 617.399 463.948 617.319 464.199 617.158C464.45 616.992 464.661 616.777 464.831 616.511C464.997 616.241 465.136 615.953 465.25 615.645C465.359 615.337 465.449 615.041 465.52 614.757L465.889 613.337C466.003 612.873 466.157 612.397 466.351 611.909C466.545 611.421 466.801 610.969 467.118 610.553C467.435 610.136 467.828 609.8 468.297 609.544C468.766 609.284 469.327 609.153 469.98 609.153C470.804 609.153 471.536 609.366 472.175 609.793C472.814 610.214 473.318 610.827 473.687 611.632C474.057 612.432 474.241 613.401 474.241 614.537C474.241 615.626 474.069 616.568 473.723 617.364C473.377 618.159 472.887 618.782 472.253 619.232C471.614 619.681 470.856 619.93 469.98 619.977L469.98 617.776C470.506 617.733 470.944 617.562 471.294 617.264C471.64 616.961 471.898 616.575 472.068 616.107C472.234 615.633 472.317 615.115 472.317 614.551C472.317 613.931 472.22 613.379 472.026 612.896C471.827 612.409 471.552 612.025 471.202 611.746C470.847 611.466 470.432 611.327 469.959 611.327C469.528 611.327 469.175 611.45 468.901 611.696C468.626 611.937 468.399 612.267 468.219 612.683C468.039 613.095 467.88 613.562 467.743 614.082L467.274 615.801C466.957 616.966 466.491 617.889 465.875 618.571C465.259 619.248 464.445 619.587 463.432 619.587C462.594 619.587 461.862 619.359 461.237 618.905C460.612 618.45 460.127 617.835 459.781 617.058C459.431 616.282 459.256 615.406 459.256 614.43C459.256 613.446 459.429 612.577 459.774 611.824C460.12 611.066 460.596 610.47 461.202 610.034C461.803 609.598 462.494 609.371 463.276 609.352L463.276 611.469ZM463.091 601.609L464.795 601.609L464.795 607.568L463.091 607.568L463.091 601.609ZM460.477 605.97L460.477 603.846L470.797 603.846C471.209 603.846 471.519 603.785 471.727 603.662C471.931 603.538 472.071 603.38 472.146 603.186C472.217 602.987 472.253 602.771 472.253 602.539C472.253 602.369 472.241 602.22 472.217 602.092C472.194 601.964 472.175 601.865 472.161 601.794L473.915 601.41C473.962 601.533 474.009 601.708 474.057 601.936C474.109 602.163 474.137 602.447 474.142 602.788C474.152 603.347 474.052 603.868 473.844 604.35C473.635 604.833 473.313 605.224 472.878 605.522C472.442 605.821 471.895 605.97 471.237 605.97L460.477 605.97ZM474.241 596.085C474.241 596.777 474.114 597.402 473.858 597.96C473.598 598.519 473.221 598.962 472.729 599.288C472.236 599.61 471.633 599.771 470.918 599.771C470.302 599.771 469.795 599.653 469.398 599.416C469 599.179 468.685 598.86 468.453 598.457C468.221 598.055 468.046 597.605 467.928 597.108C467.809 596.611 467.719 596.104 467.658 595.588C467.582 594.935 467.52 594.404 467.473 593.997C467.421 593.59 467.338 593.294 467.224 593.109C467.111 592.925 466.926 592.832 466.67 592.832L466.621 592.832C466 592.832 465.52 593.008 465.179 593.358C464.838 593.704 464.668 594.22 464.668 594.906C464.668 595.621 464.826 596.185 465.143 596.597C465.456 597.004 465.804 597.286 466.187 597.442L465.733 599.437C465.07 599.201 464.535 598.855 464.128 598.401C463.716 597.941 463.418 597.413 463.233 596.817C463.044 596.22 462.949 595.593 462.949 594.935C462.949 594.499 463.001 594.037 463.105 593.55C463.205 593.057 463.389 592.598 463.659 592.172C463.929 591.741 464.315 591.388 464.817 591.114C465.314 590.839 465.96 590.702 466.756 590.702L474 590.702L474 592.776L472.509 592.776L472.509 592.861C472.783 592.998 473.053 593.204 473.318 593.479C473.583 593.753 473.804 594.106 473.979 594.537C474.154 594.968 474.241 595.484 474.241 596.085ZM472.537 595.624C472.537 595.036 472.421 594.535 472.189 594.118C471.957 593.696 471.654 593.377 471.28 593.159C470.901 592.937 470.496 592.825 470.065 592.825L468.659 592.825C468.735 592.901 468.806 593.048 468.872 593.266C468.934 593.479 468.988 593.723 469.036 593.997C469.078 594.272 469.118 594.539 469.156 594.8C469.189 595.06 469.218 595.278 469.241 595.453C469.294 595.865 469.381 596.241 469.504 596.582C469.627 596.919 469.805 597.188 470.037 597.392C470.264 597.591 470.567 597.69 470.946 597.69C471.472 597.69 471.869 597.496 472.139 597.108C472.404 596.72 472.537 596.225 472.537 595.624ZM467.523 585.75L474 585.75L474 587.873L463.091 587.873L463.091 585.835L464.866 585.835L464.866 585.7C464.289 585.449 463.825 585.056 463.474 584.521C463.124 583.981 462.949 583.302 462.949 582.483C462.949 581.739 463.105 581.088 463.418 580.529C463.725 579.971 464.185 579.538 464.795 579.23C465.406 578.922 466.161 578.768 467.061 578.768L474 578.768L474 580.892L467.317 580.892C466.526 580.892 465.908 581.098 465.463 581.51C465.013 581.922 464.788 582.487 464.788 583.207C464.788 583.699 464.895 584.137 465.108 584.521C465.321 584.9 465.634 585.2 466.045 585.423C466.453 585.641 466.945 585.75 467.523 585.75ZM474.213 571.836C474.213 572.717 473.988 573.503 473.538 574.194C473.084 574.881 472.437 575.421 471.599 575.814C470.757 576.202 469.746 576.396 468.567 576.396C467.388 576.396 466.379 576.199 465.541 575.806C464.703 575.409 464.062 574.864 463.616 574.173C463.171 573.482 462.949 572.698 462.949 571.822C462.949 571.145 463.062 570.6 463.29 570.189C463.512 569.772 463.773 569.45 464.071 569.223C464.369 568.991 464.632 568.811 464.859 568.683L464.859 568.555L459.455 568.555L459.455 566.431L474 566.431L474 568.505L472.303 568.505L472.303 568.683C472.535 568.811 472.8 568.995 473.098 569.237C473.396 569.474 473.657 569.8 473.879 570.217C474.102 570.634 474.213 571.173 474.213 571.836ZM472.402 571.368C472.402 570.757 472.241 570.241 471.919 569.819C471.592 569.393 471.14 569.071 470.562 568.853C469.985 568.631 469.312 568.52 468.545 568.52C467.788 568.52 467.125 568.628 466.557 568.846C465.989 569.064 465.546 569.384 465.229 569.805C464.911 570.226 464.753 570.747 464.753 571.368C464.753 572.007 464.919 572.539 465.25 572.966C465.581 573.392 466.034 573.714 466.607 573.931C467.179 574.145 467.826 574.251 468.545 574.251C469.275 574.251 469.93 574.142 470.513 573.924C471.095 573.707 471.557 573.385 471.898 572.958C472.234 572.528 472.402 571.997 472.402 571.368ZM474 563.23L459.455 563.23L459.455 561.107L464.859 561.107L464.859 560.979C464.632 560.856 464.369 560.678 464.071 560.446C463.773 560.214 463.512 559.892 463.29 559.48C463.062 559.068 462.949 558.524 462.949 557.847C462.949 556.966 463.171 556.18 463.616 555.489C464.062 554.797 464.703 554.255 465.541 553.862C466.379 553.464 467.388 553.266 468.567 553.266C469.746 553.266 470.757 553.462 471.599 553.855C472.437 554.248 473.084 554.788 473.538 555.474C473.988 556.161 474.213 556.945 474.213 557.825C474.213 558.488 474.102 559.03 473.879 559.452C473.657 559.868 473.396 560.195 473.098 560.432C472.8 560.669 472.535 560.851 472.303 560.979L472.303 561.156L474 561.156L474 563.23ZM468.545 561.149C469.312 561.149 469.985 561.038 470.562 560.815C471.14 560.593 471.592 560.271 471.919 559.849C472.241 559.428 472.402 558.912 472.402 558.301C472.402 557.667 472.234 557.136 471.898 556.71C471.557 556.284 471.095 555.962 470.513 555.744C469.93 555.522 469.275 555.411 468.545 555.411C467.826 555.411 467.179 555.519 466.607 555.737C466.034 555.95 465.581 556.272 465.25 556.703C464.919 557.129 464.753 557.662 464.753 558.301C464.753 558.917 464.911 559.437 465.229 559.864C465.546 560.285 465.989 560.605 466.557 560.822C467.125 561.04 467.788 561.149 468.545 561.149ZM478.091 549.91C478.091 550.227 478.065 550.516 478.013 550.776C477.965 551.037 477.913 551.231 477.857 551.359L476.116 550.847C476.221 550.459 476.266 550.113 476.251 549.81C476.237 549.507 476.124 549.24 475.911 549.008C475.697 548.771 475.349 548.563 474.866 548.383L474.142 548.12L463.091 552.112L463.091 549.839L471.557 547.076L471.557 546.962L463.091 544.2L463.091 541.92L475.456 546.415C476.024 546.624 476.505 546.889 476.898 547.211C477.295 547.533 477.594 547.916 477.793 548.362C477.991 548.807 478.091 549.323 478.091 549.91Z" fill="white"/>
<rect x="635" y="189.962" width="38.5592" height="495.743" rx="19.2796" fill="url(#paint0_linear_5111_1067)"/>
<rect x="353" y="13.9884" width="39.9364" height="671.716" rx="19.9682" fill="url(#paint1_linear_5111_1067)"/>
<rect x="543" y="390.069" width="36.4936" height="295.636" rx="18.2468" fill="url(#paint2_linear_5111_1067)"/>
<path d="M363.597 720.78H365.182V730.138C365.182 730.974 365.028 731.683 364.722 732.267C364.415 732.851 363.982 733.294 363.424 733.596C362.866 733.899 362.207 734.05 361.449 734.05C360.733 734.05 360.096 733.92 359.538 733.66C358.979 733.396 358.54 733.021 358.221 732.535C357.901 732.05 357.741 731.472 357.741 730.803H359.301C359.301 731.174 359.393 731.498 359.576 731.775C359.763 732.047 360.019 732.261 360.343 732.414C360.667 732.567 361.036 732.644 361.449 732.644C361.905 732.644 362.293 732.548 362.612 732.356C362.932 732.165 363.175 731.883 363.341 731.513C363.511 731.138 363.597 730.68 363.597 730.138V720.78ZM374.342 729.857V724.053H375.85V733.871H374.342V732.209H374.239C374.009 732.708 373.651 733.132 373.165 733.481C372.68 733.827 372.066 733.999 371.325 733.999C370.711 733.999 370.165 733.865 369.688 733.596C369.211 733.324 368.836 732.915 368.563 732.369C368.29 731.819 368.154 731.127 368.154 730.292V724.053H369.663V730.19C369.663 730.905 369.863 731.476 370.263 731.903C370.668 732.329 371.184 732.542 371.81 732.542C372.185 732.542 372.567 732.446 372.955 732.254C373.347 732.062 373.675 731.768 373.939 731.372C374.207 730.976 374.342 730.471 374.342 729.857ZM380.122 727.965V733.871H378.613V724.053H380.07V725.587H380.198C380.428 725.089 380.778 724.688 381.247 724.386C381.715 724.079 382.32 723.925 383.062 723.925C383.727 723.925 384.308 724.062 384.807 724.334C385.306 724.603 385.693 725.012 385.97 725.562C386.247 726.107 386.386 726.797 386.386 727.633V733.871H384.877V727.735C384.877 726.964 384.677 726.363 384.276 725.932C383.876 725.498 383.326 725.28 382.627 725.28C382.146 725.28 381.715 725.385 381.336 725.594C380.961 725.802 380.665 726.107 380.448 726.508C380.23 726.908 380.122 727.394 380.122 727.965Z" fill="#CFCFD0"/>
<rect x="729" y="13.9884" width="39.9364" height="671.716" rx="19.9682" fill="#337CF8"/>
<path d="M746.631 727.326C746.631 728.707 746.381 729.9 745.883 730.905C745.384 731.911 744.7 732.687 743.831 733.232C742.962 733.778 741.969 734.05 740.852 734.05C739.736 734.05 738.743 733.778 737.874 733.232C737.004 732.687 736.32 731.911 735.822 730.905C735.323 729.9 735.074 728.707 735.074 727.326C735.074 725.945 735.323 724.752 735.822 723.746C736.32 722.741 737.004 721.965 737.874 721.42C738.743 720.874 739.736 720.601 740.852 720.601C741.969 720.601 742.962 720.874 743.831 721.42C744.7 721.965 745.384 722.741 745.883 723.746C746.381 724.752 746.631 725.945 746.631 727.326ZM745.097 727.326C745.097 726.192 744.907 725.236 744.528 724.456C744.153 723.676 743.643 723.086 743 722.685C742.361 722.285 741.645 722.084 740.852 722.084C740.06 722.084 739.342 722.285 738.698 722.685C738.059 723.086 737.55 723.676 737.17 724.456C736.795 725.236 736.608 726.192 736.608 727.326C736.608 728.459 736.795 729.416 737.17 730.196C737.55 730.976 738.059 731.566 738.698 731.967C739.342 732.367 740.06 732.567 740.852 732.567C741.645 732.567 742.361 732.367 743 731.967C743.643 731.566 744.153 730.976 744.528 730.196C744.907 729.416 745.097 728.459 745.097 727.326ZM753.08 734.076C752.16 734.076 751.367 733.859 750.702 733.424C750.038 732.989 749.526 732.391 749.168 731.628C748.81 730.865 748.631 729.993 748.631 729.013C748.631 728.016 748.815 727.136 749.181 726.373C749.552 725.606 750.067 725.008 750.728 724.577C751.393 724.143 752.168 723.925 753.055 723.925C753.745 723.925 754.367 724.053 754.921 724.309C755.475 724.565 755.929 724.922 756.283 725.383C756.636 725.843 756.856 726.38 756.941 726.993H755.433C755.317 726.546 755.062 726.15 754.665 725.805C754.273 725.455 753.745 725.28 753.08 725.28C752.492 725.28 751.977 725.434 751.533 725.741C751.094 726.043 750.751 726.471 750.504 727.025C750.261 727.575 750.14 728.221 750.14 728.962C750.14 729.721 750.259 730.381 750.498 730.944C750.741 731.506 751.082 731.943 751.521 732.254C751.964 732.565 752.484 732.721 753.08 732.721C753.472 732.721 753.828 732.653 754.148 732.516C754.467 732.38 754.738 732.184 754.96 731.928C755.181 731.672 755.339 731.366 755.433 731.008H756.941C756.856 731.587 756.645 732.109 756.308 732.574C755.976 733.034 755.535 733.4 754.985 733.673C754.44 733.942 753.805 734.076 753.08 734.076ZM763.416 724.053V725.332H758.328V724.053H763.416ZM759.811 721.701H761.32V731.059C761.32 731.485 761.381 731.805 761.505 732.018C761.633 732.226 761.795 732.367 761.991 732.44C762.191 732.508 762.402 732.542 762.624 732.542C762.79 732.542 762.926 732.533 763.033 732.516C763.139 732.495 763.224 732.478 763.288 732.465L763.595 733.82C763.493 733.859 763.35 733.897 763.167 733.935C762.984 733.978 762.751 733.999 762.47 733.999C762.044 733.999 761.626 733.908 761.217 733.724C760.813 733.541 760.476 733.262 760.207 732.887C759.943 732.512 759.811 732.039 759.811 731.468V721.701Z" fill="#CFCFD0"/>
<rect x="919" y="13.9884" width="38.5592" height="671.716" rx="19.2796" fill="#337CF8"/>
<path d="M926.625 733.871H922.585V720.78H926.804C928.074 720.78 929.161 721.043 930.064 721.567C930.967 722.087 931.66 722.834 932.141 723.81C932.623 724.782 932.864 725.945 932.864 727.3C932.864 728.664 932.621 729.838 932.135 730.822C931.649 731.802 930.942 732.557 930.013 733.085C929.084 733.609 927.955 733.871 926.625 733.871ZM924.17 732.465H926.523C927.605 732.465 928.502 732.256 929.214 731.839C929.925 731.421 930.456 730.827 930.805 730.055C931.155 729.284 931.33 728.366 931.33 727.3C931.33 726.243 931.157 725.334 930.812 724.571C930.467 723.804 929.951 723.216 929.265 722.807C928.579 722.393 927.724 722.187 926.702 722.187H924.17V732.465ZM939.435 734.076C938.489 734.076 937.673 733.867 936.987 733.449C936.305 733.028 935.778 732.44 935.408 731.685C935.041 730.927 934.858 730.045 934.858 729.039C934.858 728.033 935.041 727.147 935.408 726.38C935.778 725.609 936.294 725.008 936.955 724.577C937.619 724.143 938.395 723.925 939.281 723.925C939.793 723.925 940.298 724.011 940.796 724.181C941.295 724.351 941.749 724.628 942.158 725.012C942.567 725.391 942.893 725.894 943.136 726.52C943.379 727.147 943.5 727.918 943.5 728.834V729.474H935.932V728.17H941.966C941.966 727.616 941.855 727.121 941.634 726.687C941.416 726.252 941.105 725.909 940.7 725.658C940.3 725.406 939.827 725.28 939.281 725.28C938.68 725.28 938.161 725.43 937.722 725.728C937.287 726.022 936.952 726.405 936.718 726.878C936.484 727.351 936.366 727.859 936.366 728.4V729.269C936.366 730.011 936.494 730.639 936.75 731.155C937.01 731.666 937.37 732.056 937.83 732.324C938.29 732.589 938.825 732.721 939.435 732.721C939.831 732.721 940.189 732.665 940.509 732.555C940.832 732.44 941.112 732.269 941.346 732.043C941.58 731.813 941.761 731.528 941.889 731.187L943.347 731.596C943.193 732.09 942.935 732.525 942.573 732.9C942.211 733.27 941.763 733.56 941.231 733.769C940.698 733.974 940.099 734.076 939.435 734.076ZM949.783 734.076C948.863 734.076 948.07 733.859 947.406 733.424C946.741 732.989 946.229 732.391 945.871 731.628C945.513 730.865 945.335 729.993 945.335 729.013C945.335 728.016 945.518 727.136 945.884 726.373C946.255 725.606 946.771 725.008 947.431 724.577C948.096 724.143 948.871 723.925 949.758 723.925C950.448 723.925 951.07 724.053 951.624 724.309C952.178 724.565 952.632 724.922 952.986 725.383C953.339 725.843 953.559 726.38 953.644 726.993H952.136C952.021 726.546 951.765 726.15 951.369 725.805C950.977 725.455 950.448 725.28 949.783 725.28C949.195 725.28 948.68 725.434 948.237 725.741C947.798 726.043 947.455 726.471 947.207 727.025C946.964 727.575 946.843 728.221 946.843 728.962C946.843 729.721 946.962 730.381 947.201 730.944C947.444 731.506 947.785 731.943 948.224 732.254C948.667 732.565 949.187 732.721 949.783 732.721C950.175 732.721 950.531 732.653 950.851 732.516C951.17 732.38 951.441 732.184 951.663 731.928C951.884 731.672 952.042 731.366 952.136 731.008H953.644C953.559 731.587 953.348 732.109 953.011 732.574C952.679 733.034 952.238 733.4 951.688 733.673C951.143 733.942 950.508 734.076 949.783 734.076Z" fill="#CFCFD0"/>
<path d="M461.597 720.78H463.182V730.138C463.182 730.974 463.028 731.683 462.722 732.267C462.415 732.851 461.982 733.294 461.424 733.596C460.866 733.899 460.207 734.05 459.449 734.05C458.733 734.05 458.096 733.92 457.538 733.66C456.979 733.396 456.54 733.021 456.221 732.535C455.901 732.05 455.741 731.472 455.741 730.803H457.301C457.301 731.174 457.393 731.498 457.576 731.775C457.763 732.047 458.019 732.261 458.343 732.414C458.667 732.567 459.036 732.644 459.449 732.644C459.905 732.644 460.293 732.548 460.612 732.356C460.932 732.165 461.175 731.883 461.341 731.513C461.511 731.138 461.597 730.68 461.597 730.138V720.78ZM472.342 729.857V724.053H473.85V733.871H472.342V732.209H472.239C472.009 732.708 471.651 733.132 471.165 733.481C470.68 733.827 470.066 733.999 469.325 733.999C468.711 733.999 468.165 733.865 467.688 733.596C467.211 733.324 466.836 732.915 466.563 732.369C466.29 731.819 466.154 731.127 466.154 730.292V724.053H467.663V730.19C467.663 730.905 467.863 731.476 468.263 731.903C468.668 732.329 469.184 732.542 469.81 732.542C470.185 732.542 470.567 732.446 470.955 732.254C471.347 732.062 471.675 731.768 471.939 731.372C472.207 730.976 472.342 730.471 472.342 729.857ZM478.122 720.78V733.871H476.613V720.78H478.122Z" fill="#CFCFD0"/>
<path d="M546.122 733.871H544.46L549.267 720.78H550.903L555.71 733.871H554.048L550.136 722.851H550.034L546.122 733.871ZM546.736 728.758H553.435V730.164H546.736V728.758ZM563.732 729.857V724.053H565.241V733.871H563.732V732.209H563.63C563.4 732.708 563.042 733.132 562.556 733.481C562.07 733.827 561.457 733.999 560.715 733.999C560.102 733.999 559.556 733.865 559.079 733.596C558.602 733.324 558.227 732.915 557.954 732.369C557.681 731.819 557.545 731.127 557.545 730.292V724.053H559.053V730.19C559.053 730.905 559.254 731.476 559.654 731.903C560.059 732.329 560.575 732.542 561.201 732.542C561.576 732.542 561.957 732.446 562.345 732.254C562.737 732.062 563.065 731.768 563.33 731.372C563.598 730.976 563.732 730.471 563.732 729.857ZM571.967 737.758C571.238 737.758 570.612 737.664 570.088 737.476C569.563 737.293 569.127 737.05 568.777 736.748C568.432 736.449 568.157 736.13 567.953 735.789L569.154 734.945C569.291 735.124 569.463 735.329 569.672 735.559C569.881 735.793 570.166 735.996 570.529 736.166C570.895 736.341 571.374 736.428 571.967 736.428C572.759 736.428 573.414 736.236 573.929 735.853C574.445 735.469 574.703 734.868 574.703 734.05V732.056H574.575C574.464 732.235 574.306 732.457 574.102 732.721C573.901 732.981 573.612 733.213 573.232 733.418C572.857 733.618 572.35 733.718 571.711 733.718C570.919 733.718 570.207 733.53 569.576 733.155C568.95 732.78 568.453 732.235 568.087 731.519C567.725 730.803 567.544 729.934 567.544 728.911C567.544 727.905 567.72 727.03 568.074 726.284C568.428 725.534 568.92 724.954 569.551 724.545C570.181 724.132 570.91 723.925 571.737 723.925C572.376 723.925 572.883 724.032 573.258 724.245C573.637 724.454 573.927 724.692 574.127 724.961C574.332 725.225 574.49 725.442 574.6 725.613H574.754V724.053H576.211V734.153C576.211 734.996 576.019 735.682 575.636 736.211C575.257 736.743 574.745 737.133 574.102 737.381C573.463 737.632 572.751 737.758 571.967 737.758ZM571.916 732.363C572.521 732.363 573.032 732.224 573.45 731.947C573.867 731.67 574.185 731.272 574.402 730.752C574.619 730.232 574.728 729.61 574.728 728.886C574.728 728.178 574.622 727.554 574.409 727.013C574.195 726.471 573.88 726.047 573.463 725.741C573.045 725.434 572.529 725.28 571.916 725.28C571.276 725.28 570.744 725.442 570.318 725.766C569.896 726.09 569.578 726.525 569.365 727.07C569.156 727.616 569.052 728.221 569.052 728.886C569.052 729.567 569.159 730.17 569.372 730.694C569.589 731.214 569.909 731.623 570.33 731.922C570.757 732.216 571.285 732.363 571.916 732.363Z" fill="#CFCFD0"/>
<path d="M646.744 724.053C646.668 723.405 646.357 722.903 645.811 722.545C645.266 722.187 644.597 722.008 643.804 722.008C643.224 722.008 642.717 722.101 642.283 722.289C641.852 722.476 641.516 722.734 641.273 723.062C641.034 723.391 640.915 723.763 640.915 724.181C640.915 724.53 640.998 724.831 641.164 725.082C641.335 725.329 641.552 725.536 641.816 725.702C642.08 725.864 642.357 725.998 642.647 726.105C642.937 726.207 643.203 726.29 643.446 726.354L644.776 726.712C645.116 726.802 645.496 726.925 645.913 727.083C646.335 727.241 646.738 727.456 647.121 727.729C647.509 727.997 647.829 728.342 648.08 728.764C648.332 729.186 648.457 729.704 648.457 730.317C648.457 731.025 648.272 731.664 647.901 732.235C647.535 732.806 646.998 733.26 646.29 733.596C645.587 733.933 644.733 734.101 643.727 734.101C642.79 734.101 641.978 733.95 641.292 733.648C640.61 733.345 640.073 732.923 639.681 732.382C639.293 731.841 639.074 731.212 639.023 730.496H640.659C640.702 730.991 640.868 731.4 641.158 731.724C641.452 732.043 641.822 732.282 642.27 732.44C642.722 732.593 643.207 732.67 643.727 732.67C644.332 732.67 644.876 732.572 645.357 732.376C645.839 732.175 646.22 731.898 646.501 731.545C646.783 731.187 646.923 730.769 646.923 730.292C646.923 729.857 646.802 729.503 646.559 729.231C646.316 728.958 645.996 728.736 645.6 728.566C645.204 728.395 644.776 728.246 644.315 728.118L642.705 727.658C641.682 727.364 640.872 726.944 640.276 726.399C639.679 725.854 639.381 725.14 639.381 724.258C639.381 723.525 639.579 722.886 639.975 722.34C640.376 721.79 640.913 721.364 641.586 721.062C642.263 720.755 643.02 720.601 643.855 720.601C644.699 720.601 645.449 720.753 646.105 721.055C646.761 721.354 647.281 721.763 647.665 722.283C648.053 722.802 648.257 723.393 648.278 724.053H646.744ZM654.976 734.076C654.03 734.076 653.214 733.867 652.528 733.449C651.846 733.028 651.319 732.44 650.949 731.685C650.582 730.927 650.399 730.045 650.399 729.039C650.399 728.033 650.582 727.147 650.949 726.38C651.319 725.609 651.835 725.008 652.496 724.577C653.16 724.143 653.936 723.925 654.822 723.925C655.334 723.925 655.839 724.011 656.337 724.181C656.836 724.351 657.29 724.628 657.699 725.012C658.108 725.391 658.434 725.894 658.677 726.52C658.92 727.147 659.041 727.918 659.041 728.834V729.474H651.473V728.17H657.507C657.507 727.616 657.396 727.121 657.175 726.687C656.957 726.252 656.646 725.909 656.241 725.658C655.841 725.406 655.368 725.28 654.822 725.28C654.221 725.28 653.702 725.43 653.263 725.728C652.828 726.022 652.493 726.405 652.259 726.878C652.025 727.351 651.907 727.859 651.907 728.4V729.269C651.907 730.011 652.035 730.639 652.291 731.155C652.551 731.666 652.911 732.056 653.371 732.324C653.831 732.589 654.366 732.721 654.976 732.721C655.372 732.721 655.73 732.665 656.05 732.555C656.373 732.44 656.653 732.269 656.887 732.043C657.121 731.813 657.302 731.528 657.43 731.187L658.888 731.596C658.734 732.09 658.476 732.525 658.114 732.9C657.752 733.27 657.305 733.56 656.772 733.769C656.239 733.974 655.64 734.076 654.976 734.076ZM661.336 737.553V724.053H662.793V725.613H662.972C663.083 725.442 663.236 725.225 663.432 724.961C663.633 724.692 663.918 724.454 664.289 724.245C664.664 724.032 665.171 723.925 665.81 723.925C666.637 723.925 667.366 724.132 667.996 724.545C668.627 724.959 669.119 725.545 669.473 726.303C669.827 727.062 670.003 727.957 670.003 728.988C670.003 730.028 669.827 730.929 669.473 731.692C669.119 732.45 668.629 733.038 668.003 733.456C667.376 733.869 666.654 734.076 665.836 734.076C665.205 734.076 664.7 733.971 664.321 733.763C663.942 733.55 663.65 733.309 663.445 733.04C663.241 732.768 663.083 732.542 662.972 732.363H662.844V737.553H661.336ZM662.819 728.962C662.819 729.704 662.927 730.358 663.145 730.925C663.362 731.487 663.68 731.928 664.097 732.248C664.515 732.563 665.026 732.721 665.631 732.721C666.262 732.721 666.788 732.555 667.21 732.222C667.636 731.886 667.956 731.434 668.169 730.867C668.386 730.296 668.495 729.661 668.495 728.962C668.495 728.272 668.388 727.65 668.175 727.096C667.966 726.538 667.649 726.096 667.223 725.773C666.801 725.444 666.27 725.28 665.631 725.28C665.018 725.28 664.502 725.436 664.084 725.747C663.667 726.054 663.351 726.484 663.138 727.038C662.925 727.588 662.819 728.229 662.819 728.962Z" fill="#CFCFD0"/>
<rect x="825" y="189.962" width="37.8707" height="495.743" rx="18.9353" fill="url(#paint3_linear_5111_1067)"/>
<path d="M838.966 720.78V733.871H837.432L830.298 723.593H830.17V733.871H828.585V720.78H830.119L837.278 731.084H837.406V720.78H838.966ZM845.922 734.076C845.036 734.076 844.258 733.865 843.589 733.443C842.924 733.021 842.404 732.431 842.029 731.672C841.659 730.914 841.473 730.028 841.473 729.013C841.473 727.991 841.659 727.098 842.029 726.335C842.404 725.572 842.924 724.98 843.589 724.558C844.258 724.136 845.036 723.925 845.922 723.925C846.808 723.925 847.584 724.136 848.249 724.558C848.918 724.98 849.438 725.572 849.808 726.335C850.183 727.098 850.371 727.991 850.371 729.013C850.371 730.028 850.183 730.914 849.808 731.672C849.438 732.431 848.918 733.021 848.249 733.443C847.584 733.865 846.808 734.076 845.922 734.076ZM845.922 732.721C846.595 732.721 847.149 732.548 847.584 732.203C848.019 731.858 848.34 731.404 848.549 730.842C848.758 730.279 848.862 729.67 848.862 729.013C848.862 728.357 848.758 727.746 848.549 727.179C848.34 726.612 848.019 726.154 847.584 725.805C847.149 725.455 846.595 725.28 845.922 725.28C845.249 725.28 844.695 725.455 844.26 725.805C843.825 726.154 843.504 726.612 843.295 727.179C843.086 727.746 842.982 728.357 842.982 729.013C842.982 729.67 843.086 730.279 843.295 730.842C843.504 731.404 843.825 731.858 844.26 732.203C844.695 732.548 845.249 732.721 845.922 732.721ZM860.35 724.053L856.72 733.871H855.186L851.555 724.053H853.191L855.902 731.877H856.004L858.714 724.053H860.35Z" fill="#CFCFD0"/>
<defs>
<linearGradient id="paint0_linear_5111_1067" x1="654.28" y1="189.962" x2="654.28" y2="685.705" gradientUnits="userSpaceOnUse">
<stop offset="0.114583" stop-color="#16C78C"/>
<stop offset="0.114683" stop-color="#337CF8"/>
<stop offset="1" stop-color="#337CF8"/>
</linearGradient>
<linearGradient id="paint1_linear_5111_1067" x1="372.968" y1="13.9884" x2="372.968" y2="685.704" gradientUnits="userSpaceOnUse">
<stop stop-color="#16C78C"/>
<stop offset="0.16713" stop-color="#16C78C"/>
<stop offset="0.16723" stop-color="#16C78C"/>
<stop offset="0.16733" stop-color="#337CF8"/>
<stop offset="1" stop-color="#337CF8"/>
</linearGradient>
<linearGradient id="paint2_linear_5111_1067" x1="561.247" y1="390.069" x2="561.247" y2="685.704" gradientUnits="userSpaceOnUse">
<stop offset="0.288083" stop-color="#16C78C"/>
<stop offset="0.288083" stop-color="#337CF8"/>
<stop offset="1" stop-color="#337CF8"/>
</linearGradient>
<linearGradient id="paint3_linear_5111_1067" x1="843.935" y1="189.962" x2="843.935" y2="685.705" gradientUnits="userSpaceOnUse">
<stop offset="0.114583" stop-color="#16C78C"/>
<stop offset="0.114683" stop-color="#337CF8"/>
<stop offset="1" stop-color="#337CF8"/>
</linearGradient>
</defs>
</svg>
