<svg width="1017" height="748" viewBox="0 0 1017 748" fill="none" xmlns="http://www.w3.org/2000/svg">
<circle cx="484.702" cy="374" r="369" stroke="#1C3B70" stroke-width="10" stroke-dasharray="8 8"/>
<rect x="74" y="607" width="267" height="109.038" rx="54.519" fill="#1C3B70"/>
<path d="M134.042 668.682V665.33L143.917 649.727H146.713V654.5H145.008L138.36 665.034V665.216H152.144V668.682H134.042ZM145.144 673V667.659L145.19 666.159V649.727H149.167V673H145.144ZM158.517 673.25C157.827 673.25 157.236 673.008 156.744 672.523C156.251 672.038 156.009 671.447 156.017 670.75C156.009 670.068 156.251 669.485 156.744 669C157.236 668.515 157.827 668.273 158.517 668.273C159.183 668.273 159.763 668.515 160.255 669C160.755 669.485 161.009 670.068 161.017 670.75C161.009 671.212 160.888 671.633 160.653 672.011C160.426 672.39 160.123 672.693 159.744 672.92C159.373 673.14 158.964 673.25 158.517 673.25ZM175.021 653.261V649.727H193.589V653.261H186.396V673H182.214V653.261H175.021ZM202.183 673.341C200.433 673.341 198.922 672.977 197.649 672.25C196.384 671.515 195.41 670.477 194.729 669.136C194.047 667.788 193.706 666.201 193.706 664.375C193.706 662.58 194.047 661.004 194.729 659.648C195.418 658.284 196.38 657.223 197.615 656.466C198.85 655.701 200.301 655.318 201.967 655.318C203.043 655.318 204.058 655.492 205.013 655.841C205.975 656.182 206.823 656.712 207.558 657.432C208.301 658.152 208.884 659.068 209.308 660.182C209.732 661.288 209.945 662.606 209.945 664.136V665.398H195.638V662.625H206.001C205.994 661.837 205.823 661.136 205.49 660.523C205.157 659.902 204.691 659.413 204.092 659.057C203.501 658.701 202.812 658.523 202.024 658.523C201.183 658.523 200.445 658.727 199.808 659.136C199.172 659.538 198.676 660.068 198.32 660.727C197.971 661.379 197.793 662.095 197.785 662.875V665.295C197.785 666.311 197.971 667.182 198.342 667.909C198.713 668.629 199.232 669.182 199.899 669.568C200.566 669.947 201.346 670.136 202.24 670.136C202.838 670.136 203.38 670.053 203.865 669.886C204.35 669.712 204.77 669.458 205.126 669.125C205.482 668.792 205.751 668.379 205.933 667.886L209.774 668.318C209.532 669.333 209.07 670.22 208.388 670.977C207.713 671.727 206.85 672.311 205.797 672.727C204.744 673.136 203.539 673.341 202.183 673.341ZM227.22 660.159L223.47 660.568C223.364 660.189 223.178 659.833 222.913 659.5C222.656 659.167 222.307 658.898 221.868 658.693C221.428 658.489 220.891 658.386 220.254 658.386C219.398 658.386 218.678 658.572 218.095 658.943C217.519 659.314 217.235 659.795 217.243 660.386C217.235 660.894 217.421 661.307 217.8 661.625C218.186 661.943 218.822 662.205 219.709 662.409L222.686 663.045C224.338 663.402 225.565 663.966 226.368 664.739C227.178 665.511 227.588 666.523 227.595 667.773C227.588 668.871 227.266 669.841 226.629 670.682C226 671.515 225.125 672.167 224.004 672.636C222.883 673.106 221.595 673.341 220.141 673.341C218.004 673.341 216.284 672.894 214.981 672C213.678 671.098 212.902 669.845 212.652 668.239L216.663 667.852C216.845 668.64 217.231 669.235 217.822 669.636C218.413 670.038 219.182 670.239 220.129 670.239C221.106 670.239 221.891 670.038 222.481 669.636C223.08 669.235 223.379 668.739 223.379 668.148C223.379 667.648 223.186 667.235 222.8 666.909C222.421 666.583 221.83 666.333 221.027 666.159L218.05 665.534C216.375 665.186 215.137 664.598 214.334 663.773C213.531 662.939 213.133 661.886 213.141 660.614C213.133 659.538 213.425 658.606 214.016 657.818C214.614 657.023 215.444 656.409 216.504 655.977C217.572 655.538 218.803 655.318 220.197 655.318C222.243 655.318 223.853 655.754 225.027 656.625C226.209 657.496 226.94 658.674 227.22 660.159ZM239.703 655.545V658.727H229.669V655.545H239.703ZM232.146 651.364H236.26V667.75C236.26 668.303 236.343 668.727 236.51 669.023C236.684 669.311 236.911 669.508 237.192 669.614C237.472 669.72 237.783 669.773 238.124 669.773C238.381 669.773 238.616 669.754 238.828 669.716C239.048 669.678 239.214 669.644 239.328 669.614L240.021 672.83C239.802 672.905 239.487 672.989 239.078 673.08C238.677 673.17 238.184 673.223 237.601 673.239C236.57 673.269 235.642 673.114 234.817 672.773C233.991 672.424 233.336 671.886 232.851 671.159C232.374 670.432 232.139 669.523 232.146 668.432V651.364ZM243.143 673V655.545H247.257V673H243.143ZM245.212 653.068C244.56 653.068 243.999 652.852 243.53 652.42C243.06 651.981 242.825 651.455 242.825 650.841C242.825 650.22 243.06 649.693 243.53 649.261C243.999 648.822 244.56 648.602 245.212 648.602C245.871 648.602 246.431 648.822 246.893 649.261C247.363 649.693 247.598 650.22 247.598 650.841C247.598 651.455 247.363 651.981 246.893 652.42C246.431 652.852 245.871 653.068 245.212 653.068ZM255.601 662.773V673H251.487V655.545H255.419V658.511H255.624C256.025 657.534 256.665 656.758 257.544 656.182C258.43 655.606 259.525 655.318 260.828 655.318C262.033 655.318 263.082 655.576 263.976 656.091C264.877 656.606 265.574 657.352 266.067 658.33C266.567 659.307 266.813 660.492 266.805 661.886V673H262.692V662.523C262.692 661.356 262.389 660.443 261.783 659.784C261.184 659.125 260.355 658.795 259.294 658.795C258.574 658.795 257.934 658.955 257.374 659.273C256.82 659.583 256.385 660.034 256.067 660.625C255.756 661.216 255.601 661.932 255.601 662.773ZM278.578 679.909C277.101 679.909 275.832 679.708 274.771 679.307C273.711 678.913 272.858 678.383 272.214 677.716C271.57 677.049 271.124 676.311 270.874 675.5L274.578 674.602C274.745 674.943 274.987 675.28 275.305 675.614C275.624 675.955 276.052 676.235 276.589 676.455C277.135 676.682 277.82 676.795 278.646 676.795C279.813 676.795 280.779 676.511 281.544 675.943C282.309 675.383 282.692 674.458 282.692 673.17V669.864H282.487C282.275 670.288 281.964 670.723 281.555 671.17C281.154 671.617 280.62 671.992 279.953 672.295C279.294 672.598 278.464 672.75 277.464 672.75C276.124 672.75 274.908 672.436 273.817 671.807C272.733 671.17 271.87 670.223 271.226 668.966C270.589 667.701 270.271 666.117 270.271 664.216C270.271 662.299 270.589 660.682 271.226 659.364C271.87 658.038 272.737 657.034 273.828 656.352C274.919 655.663 276.135 655.318 277.476 655.318C278.499 655.318 279.339 655.492 279.999 655.841C280.665 656.182 281.195 656.595 281.589 657.08C281.983 657.557 282.283 658.008 282.487 658.432H282.714V655.545H286.771V673.284C286.771 674.777 286.415 676.011 285.703 676.989C284.991 677.966 284.017 678.697 282.783 679.182C281.548 679.667 280.146 679.909 278.578 679.909ZM278.612 669.523C279.483 669.523 280.226 669.311 280.839 668.886C281.453 668.462 281.919 667.852 282.237 667.057C282.555 666.261 282.714 665.307 282.714 664.193C282.714 663.095 282.555 662.133 282.237 661.307C281.927 660.481 281.464 659.841 280.851 659.386C280.245 658.924 279.499 658.693 278.612 658.693C277.695 658.693 276.93 658.932 276.317 659.409C275.703 659.886 275.241 660.542 274.93 661.375C274.62 662.201 274.464 663.14 274.464 664.193C274.464 665.261 274.62 666.197 274.93 667C275.249 667.795 275.714 668.417 276.328 668.864C276.949 669.303 277.711 669.523 278.612 669.523Z" fill="#CFCFD0"/>
<rect x="56" y="10" width="316" height="109.038" rx="54.519" fill="#1C3B70"/>
<path d="M113.96 76.3182C112.846 76.3106 111.759 76.1174 110.698 75.7386C109.638 75.3523 108.683 74.7273 107.835 73.8636C106.986 72.9924 106.312 71.8371 105.812 70.3977C105.312 68.9508 105.066 67.1591 105.073 65.0227C105.073 63.0303 105.286 61.2538 105.71 59.6932C106.134 58.1326 106.744 56.8144 107.539 55.7386C108.335 54.6553 109.293 53.8295 110.414 53.2614C111.543 52.6932 112.805 52.4091 114.198 52.4091C115.661 52.4091 116.956 52.697 118.085 53.2727C119.221 53.8485 120.138 54.6364 120.835 55.6364C121.532 56.6288 121.964 57.75 122.13 59H117.983C117.77 58.1061 117.335 57.3939 116.676 56.8636C116.024 56.3258 115.198 56.0568 114.198 56.0568C112.585 56.0568 111.342 56.7576 110.471 58.1591C109.608 59.5606 109.172 61.4848 109.164 63.9318H109.323C109.695 63.2652 110.176 62.6932 110.767 62.2159C111.358 61.7386 112.024 61.3712 112.767 61.1136C113.517 60.8485 114.308 60.7159 115.142 60.7159C116.505 60.7159 117.729 61.0417 118.812 61.6932C119.903 62.3447 120.767 63.2424 121.403 64.3864C122.039 65.5227 122.354 66.8258 122.346 68.2955C122.354 69.8258 122.005 71.2008 121.301 72.4205C120.596 73.6326 119.615 74.5871 118.358 75.2841C117.1 75.9811 115.634 76.3258 113.96 76.3182ZM113.937 72.9091C114.763 72.9091 115.502 72.7083 116.153 72.3068C116.805 71.9053 117.32 71.3636 117.698 70.6818C118.077 70 118.263 69.2348 118.255 68.3864C118.263 67.553 118.081 66.7992 117.71 66.125C117.346 65.4508 116.842 64.9167 116.198 64.5227C115.555 64.1288 114.82 63.9318 113.994 63.9318C113.38 63.9318 112.808 64.0492 112.278 64.2841C111.748 64.5189 111.286 64.8447 110.892 65.2614C110.498 65.6705 110.187 66.1477 109.96 66.6932C109.74 67.2311 109.627 67.8068 109.619 68.4205C109.627 69.2311 109.816 69.9773 110.187 70.6591C110.558 71.3409 111.07 71.8864 111.721 72.2955C112.373 72.7045 113.111 72.9091 113.937 72.9091ZM129.19 76.25C128.501 76.25 127.91 76.0076 127.417 75.5227C126.925 75.0379 126.682 74.447 126.69 73.75C126.682 73.0682 126.925 72.4848 127.417 72C127.91 71.5152 128.501 71.2727 129.19 71.2727C129.857 71.2727 130.436 71.5152 130.929 72C131.429 72.4848 131.682 73.0682 131.69 73.75C131.682 74.2121 131.561 74.6326 131.326 75.0114C131.099 75.3902 130.796 75.6932 130.417 75.9205C130.046 76.1402 129.637 76.25 129.19 76.25ZM154.604 76H146.717V52.7273H154.763C157.073 52.7273 159.058 53.1932 160.717 54.125C162.384 55.0492 163.664 56.3788 164.558 58.1136C165.452 59.8485 165.899 61.9242 165.899 64.3409C165.899 66.7652 165.448 68.8485 164.547 70.5909C163.653 72.3333 162.361 73.6705 160.672 74.6023C158.99 75.5341 156.967 76 154.604 76ZM150.933 72.3523H154.399C156.02 72.3523 157.373 72.0568 158.456 71.4659C159.539 70.8674 160.354 69.9773 160.899 68.7955C161.445 67.6061 161.717 66.1212 161.717 64.3409C161.717 62.5606 161.445 61.0833 160.899 59.9091C160.354 58.7273 159.547 57.8447 158.479 57.2614C157.418 56.6705 156.1 56.375 154.524 56.375H150.933V72.3523ZM177.45 76.3409C175.7 76.3409 174.189 75.9773 172.916 75.25C171.651 74.5152 170.678 73.4773 169.996 72.1364C169.314 70.7879 168.973 69.2008 168.973 67.375C168.973 65.5795 169.314 64.0038 169.996 62.6477C170.685 61.2841 171.647 60.2235 172.882 59.4659C174.117 58.7008 175.568 58.3182 177.234 58.3182C178.31 58.3182 179.325 58.4924 180.28 58.8409C181.242 59.1818 182.09 59.7121 182.825 60.4318C183.568 61.1515 184.151 62.0682 184.575 63.1818C185 64.2879 185.212 65.6061 185.212 67.1364V68.3977H170.905V65.625H181.268C181.261 64.8371 181.09 64.1364 180.757 63.5227C180.424 62.9015 179.958 62.4129 179.359 62.0568C178.768 61.7008 178.079 61.5227 177.291 61.5227C176.45 61.5227 175.712 61.7273 175.075 62.1364C174.439 62.5379 173.943 63.0682 173.587 63.7273C173.238 64.3788 173.06 65.0947 173.053 65.875V68.2955C173.053 69.3106 173.238 70.1818 173.609 70.9091C173.981 71.6288 174.5 72.1818 175.166 72.5682C175.833 72.947 176.613 73.1364 177.507 73.1364C178.106 73.1364 178.647 73.053 179.132 72.8864C179.617 72.7121 180.037 72.4583 180.393 72.125C180.75 71.7917 181.018 71.3788 181.2 70.8864L185.041 71.3182C184.799 72.3333 184.337 73.2197 183.655 73.9773C182.981 74.7273 182.117 75.3106 181.064 75.7273C180.011 76.1364 178.806 76.3409 177.45 76.3409ZM188.692 82.5455V58.5455H192.737V61.4318H192.976C193.188 61.0076 193.487 60.5568 193.874 60.0795C194.26 59.5947 194.783 59.1818 195.442 58.8409C196.101 58.4924 196.942 58.3182 197.964 58.3182C199.313 58.3182 200.529 58.6629 201.612 59.3523C202.703 60.0341 203.567 61.0455 204.203 62.3864C204.847 63.7197 205.169 65.3561 205.169 67.2955C205.169 69.2121 204.855 70.8409 204.226 72.1818C203.597 73.5227 202.741 74.5455 201.658 75.25C200.574 75.9545 199.347 76.3068 197.976 76.3068C196.976 76.3068 196.146 76.1402 195.487 75.8068C194.828 75.4735 194.298 75.072 193.896 74.6023C193.502 74.125 193.196 73.6742 192.976 73.25H192.805V82.5455H188.692ZM192.726 67.2727C192.726 68.4015 192.885 69.3902 193.203 70.2386C193.529 71.0871 193.995 71.75 194.601 72.2273C195.214 72.697 195.957 72.9318 196.828 72.9318C197.737 72.9318 198.499 72.6894 199.112 72.2045C199.726 71.7121 200.188 71.0417 200.499 70.1932C200.817 69.3371 200.976 68.3636 200.976 67.2727C200.976 66.1894 200.821 65.2273 200.51 64.3864C200.199 63.5455 199.737 62.8864 199.124 62.4091C198.51 61.9318 197.745 61.6932 196.828 61.6932C195.949 61.6932 195.203 61.9242 194.589 62.3864C193.976 62.8485 193.51 63.4962 193.192 64.3295C192.881 65.1629 192.726 66.1439 192.726 67.2727ZM212.805 52.7273V76H208.692V52.7273H212.805ZM224.649 76.3409C222.945 76.3409 221.467 75.9659 220.217 75.2159C218.967 74.4659 217.998 73.4167 217.308 72.0682C216.626 70.7197 216.286 69.1439 216.286 67.3409C216.286 65.5379 216.626 63.9583 217.308 62.6023C217.998 61.2462 218.967 60.1932 220.217 59.4432C221.467 58.6932 222.945 58.3182 224.649 58.3182C226.354 58.3182 227.831 58.6932 229.081 59.4432C230.331 60.1932 231.297 61.2462 231.979 62.6023C232.668 63.9583 233.013 65.5379 233.013 67.3409C233.013 69.1439 232.668 70.7197 231.979 72.0682C231.297 73.4167 230.331 74.4659 229.081 75.2159C227.831 75.9659 226.354 76.3409 224.649 76.3409ZM224.672 73.0455C225.596 73.0455 226.369 72.7917 226.99 72.2841C227.611 71.7689 228.073 71.0795 228.376 70.2159C228.687 69.3523 228.842 68.3902 228.842 67.3295C228.842 66.2614 228.687 65.2955 228.376 64.4318C228.073 63.5606 227.611 62.8674 226.99 62.3523C226.369 61.8371 225.596 61.5795 224.672 61.5795C223.725 61.5795 222.937 61.8371 222.308 62.3523C221.687 62.8674 221.221 63.5606 220.911 64.4318C220.607 65.2955 220.456 66.2614 220.456 67.3295C220.456 68.3902 220.607 69.3523 220.911 70.2159C221.221 71.0795 221.687 71.7689 222.308 72.2841C222.937 72.7917 223.725 73.0455 224.672 73.0455ZM238.467 82.5455C237.907 82.5455 237.388 82.5 236.911 82.4091C236.441 82.3258 236.066 82.2273 235.786 82.1136L236.74 78.9091C237.339 79.0833 237.873 79.1667 238.342 79.1591C238.812 79.1515 239.225 79.0038 239.581 78.7159C239.945 78.4356 240.251 77.9659 240.501 77.3068L240.854 76.3636L234.524 58.5455H238.888L242.911 71.7273H243.092L247.126 58.5455H251.501L244.513 78.1136C244.187 79.0379 243.755 79.8295 243.217 80.4886C242.679 81.1553 242.02 81.6629 241.24 82.0114C240.467 82.3674 239.543 82.5455 238.467 82.5455ZM254.348 76V58.5455H258.28V61.5114H258.484C258.848 60.5114 259.45 59.7311 260.291 59.1705C261.132 58.6023 262.136 58.3182 263.303 58.3182C264.484 58.3182 265.481 58.6061 266.291 59.1818C267.109 59.75 267.685 60.5265 268.018 61.5114H268.2C268.587 60.5417 269.238 59.7689 270.155 59.1932C271.079 58.6098 272.174 58.3182 273.439 58.3182C275.045 58.3182 276.356 58.8258 277.371 59.8409C278.386 60.8561 278.893 62.3371 278.893 64.2841V76H274.768V64.9205C274.768 63.8371 274.481 63.0455 273.905 62.5455C273.329 62.0379 272.625 61.7841 271.791 61.7841C270.799 61.7841 270.022 62.0947 269.462 62.7159C268.909 63.3295 268.632 64.1288 268.632 65.1136V76H264.598V64.75C264.598 63.8485 264.325 63.1288 263.78 62.5909C263.242 62.053 262.537 61.7841 261.666 61.7841C261.075 61.7841 260.537 61.9356 260.053 62.2386C259.568 62.5341 259.181 62.9545 258.893 63.5C258.606 64.0379 258.462 64.6667 258.462 65.3864V76H254.348ZM290.794 76.3409C289.044 76.3409 287.533 75.9773 286.26 75.25C284.995 74.5152 284.021 73.4773 283.339 72.1364C282.658 70.7879 282.317 69.2008 282.317 67.375C282.317 65.5795 282.658 64.0038 283.339 62.6477C284.029 61.2841 284.991 60.2235 286.226 59.4659C287.461 58.7008 288.911 58.3182 290.578 58.3182C291.654 58.3182 292.669 58.4924 293.624 58.8409C294.586 59.1818 295.434 59.7121 296.169 60.4318C296.911 61.1515 297.495 62.0682 297.919 63.1818C298.343 64.2879 298.555 65.6061 298.555 67.1364V68.3977H284.249V65.625H294.612C294.605 64.8371 294.434 64.1364 294.101 63.5227C293.768 62.9015 293.302 62.4129 292.703 62.0568C292.112 61.7008 291.423 61.5227 290.635 61.5227C289.794 61.5227 289.055 61.7273 288.419 62.1364C287.783 62.5379 287.286 63.0682 286.93 63.7273C286.582 64.3788 286.404 65.0947 286.396 65.875V68.2955C286.396 69.3106 286.582 70.1818 286.953 70.9091C287.324 71.6288 287.843 72.1818 288.51 72.5682C289.177 72.947 289.957 73.1364 290.851 73.1364C291.449 73.1364 291.991 73.053 292.476 72.8864C292.961 72.7121 293.381 72.4583 293.737 72.125C294.093 71.7917 294.362 71.3788 294.544 70.8864L298.385 71.3182C298.143 72.3333 297.68 73.2197 296.999 73.9773C296.324 74.7273 295.461 75.3106 294.408 75.7273C293.355 76.1364 292.15 76.3409 290.794 76.3409ZM306.149 65.7727V76H302.036V58.5455H305.967V61.5114H306.172C306.573 60.5341 307.214 59.7576 308.092 59.1818C308.979 58.6061 310.073 58.3182 311.376 58.3182C312.581 58.3182 313.63 58.5758 314.524 59.0909C315.426 59.6061 316.123 60.3523 316.615 61.3295C317.115 62.3068 317.361 63.4924 317.354 64.8864V76H313.24V65.5227C313.24 64.3561 312.937 63.4432 312.331 62.7841C311.732 62.125 310.903 61.7955 309.842 61.7955C309.123 61.7955 308.482 61.9545 307.922 62.2727C307.369 62.5833 306.933 63.0341 306.615 63.625C306.304 64.2159 306.149 64.9318 306.149 65.7727ZM330.251 58.5455V61.7273H320.217V58.5455H330.251ZM322.695 54.3636H326.808V70.75C326.808 71.303 326.892 71.7273 327.058 72.0227C327.232 72.3106 327.46 72.5076 327.74 72.6136C328.02 72.7197 328.331 72.7727 328.672 72.7727C328.929 72.7727 329.164 72.7538 329.376 72.7159C329.596 72.678 329.763 72.6439 329.876 72.6136L330.57 75.8295C330.35 75.9053 330.036 75.9886 329.626 76.0795C329.225 76.1705 328.732 76.2235 328.149 76.2386C327.119 76.2689 326.191 76.1136 325.365 75.7727C324.539 75.4242 323.884 74.8864 323.399 74.1591C322.922 73.4318 322.687 72.5227 322.695 71.4318V54.3636Z" fill="#CFCFD0"/>
<rect y="316" width="237" height="109" rx="54.5" fill="#0F352D"/>
<path d="M55.5422 382.318C54.0271 382.318 52.671 382.034 51.4741 381.466C50.2771 380.89 49.3263 380.102 48.6218 379.102C47.9248 378.102 47.5536 376.958 47.5082 375.67H51.5991C51.6748 376.625 52.0877 377.405 52.8377 378.011C53.5877 378.61 54.4892 378.909 55.5422 378.909C56.368 378.909 57.1029 378.72 57.7468 378.341C58.3907 377.962 58.8983 377.436 59.2695 376.761C59.6407 376.087 59.8226 375.318 59.815 374.455C59.8226 373.576 59.6369 372.795 59.2582 372.114C58.8794 371.432 58.3604 370.898 57.7013 370.511C57.0422 370.117 56.2847 369.92 55.4286 369.92C54.7316 369.913 54.046 370.042 53.3718 370.307C52.6976 370.572 52.1635 370.92 51.7695 371.352L47.9627 370.727L49.1786 358.727H62.6786V362.25H52.6672L51.9968 368.42H52.1332C52.565 367.913 53.1748 367.492 53.9627 367.159C54.7506 366.818 55.6142 366.648 56.5536 366.648C57.9627 366.648 59.2203 366.981 60.3263 367.648C61.4324 368.307 62.3036 369.216 62.94 370.375C63.5763 371.534 63.8945 372.86 63.8945 374.352C63.8945 375.89 63.5385 377.261 62.8263 378.466C62.1218 379.663 61.1407 380.606 59.8832 381.295C58.6332 381.977 57.1862 382.318 55.5422 382.318ZM71.0337 382.25C70.3443 382.25 69.7534 382.008 69.261 381.523C68.7686 381.038 68.5261 380.447 68.5337 379.75C68.5261 379.068 68.7686 378.485 69.261 378C69.7534 377.515 70.3443 377.273 71.0337 377.273C71.7004 377.273 72.2799 377.515 72.7724 378C73.2724 378.485 73.5261 379.068 73.5337 379.75C73.5261 380.212 73.4049 380.633 73.1701 381.011C72.9428 381.39 72.6398 381.693 72.261 381.92C71.8898 382.14 71.4807 382.25 71.0337 382.25ZM88.5611 382V358.727H97.2884C99.0762 358.727 100.576 359.038 101.788 359.659C103.008 360.28 103.929 361.152 104.55 362.273C105.179 363.386 105.493 364.686 105.493 366.17C105.493 367.663 105.175 368.958 104.538 370.057C103.91 371.148 102.982 371.992 101.754 372.591C100.527 373.182 99.0194 373.477 97.2315 373.477H91.0156V369.977H96.6634C97.7088 369.977 98.5649 369.833 99.2315 369.545C99.8982 369.25 100.391 368.822 100.709 368.261C101.035 367.693 101.197 366.996 101.197 366.17C101.197 365.345 101.035 364.64 100.709 364.057C100.383 363.466 99.8868 363.019 99.2202 362.716C98.5535 362.405 97.6937 362.25 96.6406 362.25H92.777V382H88.5611ZM100.584 371.455L106.345 382H101.641L95.9815 371.455H100.584ZM116.669 382.341C114.919 382.341 113.408 381.977 112.135 381.25C110.87 380.515 109.896 379.477 109.214 378.136C108.533 376.788 108.192 375.201 108.192 373.375C108.192 371.58 108.533 370.004 109.214 368.648C109.904 367.284 110.866 366.223 112.101 365.466C113.336 364.701 114.786 364.318 116.453 364.318C117.529 364.318 118.544 364.492 119.499 364.841C120.461 365.182 121.309 365.712 122.044 366.432C122.786 367.152 123.37 368.068 123.794 369.182C124.218 370.288 124.43 371.606 124.43 373.136V374.398H110.124V371.625H120.487C120.48 370.837 120.309 370.136 119.976 369.523C119.643 368.902 119.177 368.413 118.578 368.057C117.987 367.701 117.298 367.523 116.51 367.523C115.669 367.523 114.93 367.727 114.294 368.136C113.658 368.538 113.161 369.068 112.805 369.727C112.457 370.379 112.279 371.095 112.271 371.875V374.295C112.271 375.311 112.457 376.182 112.828 376.909C113.199 377.629 113.718 378.182 114.385 378.568C115.052 378.947 115.832 379.136 116.726 379.136C117.324 379.136 117.866 379.053 118.351 378.886C118.836 378.712 119.256 378.458 119.612 378.125C119.968 377.792 120.237 377.379 120.419 376.886L124.26 377.318C124.018 378.333 123.555 379.22 122.874 379.977C122.199 380.727 121.336 381.311 120.283 381.727C119.23 382.136 118.025 382.341 116.669 382.341ZM143.001 364.545L136.786 382H132.24L126.024 364.545H130.411L134.422 377.511H134.604L138.626 364.545H143.001ZM145.848 382V364.545H149.962V382H145.848ZM147.916 362.068C147.265 362.068 146.704 361.852 146.234 361.42C145.765 360.981 145.53 360.455 145.53 359.841C145.53 359.22 145.765 358.693 146.234 358.261C146.704 357.822 147.265 357.602 147.916 357.602C148.575 357.602 149.136 357.822 149.598 358.261C150.068 358.693 150.303 359.22 150.303 359.841C150.303 360.455 150.068 360.981 149.598 361.42C149.136 361.852 148.575 362.068 147.916 362.068ZM161.919 382.341C160.169 382.341 158.658 381.977 157.385 381.25C156.12 380.515 155.146 379.477 154.464 378.136C153.783 376.788 153.442 375.201 153.442 373.375C153.442 371.58 153.783 370.004 154.464 368.648C155.154 367.284 156.116 366.223 157.351 365.466C158.586 364.701 160.036 364.318 161.703 364.318C162.779 364.318 163.794 364.492 164.749 364.841C165.711 365.182 166.559 365.712 167.294 366.432C168.036 367.152 168.62 368.068 169.044 369.182C169.468 370.288 169.68 371.606 169.68 373.136V374.398H155.374V371.625H165.737C165.73 370.837 165.559 370.136 165.226 369.523C164.893 368.902 164.427 368.413 163.828 368.057C163.237 367.701 162.548 367.523 161.76 367.523C160.919 367.523 160.18 367.727 159.544 368.136C158.908 368.538 158.411 369.068 158.055 369.727C157.707 370.379 157.529 371.095 157.521 371.875V374.295C157.521 375.311 157.707 376.182 158.078 376.909C158.449 377.629 158.968 378.182 159.635 378.568C160.302 378.947 161.082 379.136 161.976 379.136C162.574 379.136 163.116 379.053 163.601 378.886C164.086 378.712 164.506 378.458 164.862 378.125C165.218 377.792 165.487 377.379 165.669 376.886L169.51 377.318C169.268 378.333 168.805 379.22 168.124 379.977C167.449 380.727 166.586 381.311 165.533 381.727C164.48 382.136 163.275 382.341 161.919 382.341ZM176.669 382L171.737 364.545H175.93L178.999 376.818H179.158L182.294 364.545H186.442L189.578 376.75H189.749L192.771 364.545H196.976L192.033 382H187.749L184.476 370.205H184.237L180.964 382H176.669Z" fill="#CFCFD0"/>
<rect x="722" y="316" width="295" height="109" rx="54.5" fill="#1C3B70"/>
<path d="M772.904 382V378.955L780.984 371.034C781.757 370.254 782.401 369.561 782.916 368.955C783.431 368.348 783.817 367.761 784.075 367.193C784.332 366.625 784.461 366.019 784.461 365.375C784.461 364.64 784.295 364.011 783.961 363.489C783.628 362.958 783.17 362.549 782.586 362.261C782.003 361.973 781.34 361.83 780.598 361.83C779.832 361.83 779.162 361.989 778.586 362.307C778.011 362.617 777.564 363.061 777.245 363.636C776.935 364.212 776.779 364.898 776.779 365.693H772.768C772.768 364.216 773.105 362.932 773.779 361.841C774.454 360.75 775.382 359.905 776.564 359.307C777.753 358.708 779.117 358.409 780.654 358.409C782.215 358.409 783.586 358.701 784.768 359.284C785.95 359.867 786.867 360.667 787.518 361.682C788.177 362.697 788.507 363.856 788.507 365.159C788.507 366.03 788.34 366.886 788.007 367.727C787.673 368.568 787.086 369.5 786.245 370.523C785.412 371.545 784.242 372.784 782.734 374.239L778.723 378.318V378.477H788.859V382H772.904ZM796.237 382.25C795.547 382.25 794.957 382.008 794.464 381.523C793.972 381.038 793.729 380.447 793.737 379.75C793.729 379.068 793.972 378.485 794.464 378C794.957 377.515 795.547 377.273 796.237 377.273C796.904 377.273 797.483 377.515 797.975 378C798.475 378.485 798.729 379.068 798.737 379.75C798.729 380.212 798.608 380.633 798.373 381.011C798.146 381.39 797.843 381.693 797.464 381.92C797.093 382.14 796.684 382.25 796.237 382.25ZM813.764 382V358.727H828.901V362.261H817.98V368.58H828.116V372.114H817.98V378.466H828.991V382H813.764ZM846.815 369.159L843.065 369.568C842.959 369.189 842.774 368.833 842.509 368.5C842.251 368.167 841.902 367.898 841.463 367.693C841.024 367.489 840.486 367.386 839.849 367.386C838.993 367.386 838.274 367.572 837.69 367.943C837.115 368.314 836.83 368.795 836.838 369.386C836.83 369.894 837.016 370.307 837.395 370.625C837.781 370.943 838.418 371.205 839.304 371.409L842.281 372.045C843.933 372.402 845.16 372.966 845.963 373.739C846.774 374.511 847.183 375.523 847.19 376.773C847.183 377.871 846.861 378.841 846.224 379.682C845.596 380.515 844.721 381.167 843.599 381.636C842.478 382.106 841.19 382.341 839.736 382.341C837.599 382.341 835.88 381.894 834.577 381C833.274 380.098 832.497 378.845 832.247 377.239L836.259 376.852C836.44 377.64 836.827 378.235 837.418 378.636C838.009 379.038 838.777 379.239 839.724 379.239C840.702 379.239 841.486 379.038 842.077 378.636C842.675 378.235 842.974 377.739 842.974 377.148C842.974 376.648 842.781 376.235 842.395 375.909C842.016 375.583 841.425 375.333 840.622 375.159L837.645 374.534C835.971 374.186 834.732 373.598 833.929 372.773C833.126 371.939 832.728 370.886 832.736 369.614C832.728 368.538 833.02 367.606 833.611 366.818C834.209 366.023 835.039 365.409 836.099 364.977C837.168 364.538 838.399 364.318 839.793 364.318C841.838 364.318 843.448 364.754 844.622 365.625C845.804 366.496 846.535 367.674 846.815 369.159ZM859.298 364.545V367.727H849.264V364.545H859.298ZM851.741 360.364H855.855V376.75C855.855 377.303 855.938 377.727 856.105 378.023C856.279 378.311 856.507 378.508 856.787 378.614C857.067 378.72 857.378 378.773 857.719 378.773C857.976 378.773 858.211 378.754 858.423 378.716C858.643 378.678 858.81 378.644 858.923 378.614L859.616 381.83C859.397 381.905 859.082 381.989 858.673 382.08C858.272 382.17 857.779 382.223 857.196 382.239C856.166 382.269 855.238 382.114 854.412 381.773C853.586 381.424 852.931 380.886 852.446 380.159C851.969 379.432 851.734 378.523 851.741 377.432V360.364ZM862.739 382V364.545H866.852V382H862.739ZM864.807 362.068C864.155 362.068 863.595 361.852 863.125 361.42C862.655 360.981 862.42 360.455 862.42 359.841C862.42 359.22 862.655 358.693 863.125 358.261C863.595 357.822 864.155 357.602 864.807 357.602C865.466 357.602 866.027 357.822 866.489 358.261C866.958 358.693 867.193 359.22 867.193 359.841C867.193 360.455 866.958 360.981 866.489 361.42C866.027 361.852 865.466 362.068 864.807 362.068ZM871.082 382V364.545H875.014V367.511H875.219C875.582 366.511 876.185 365.731 877.026 365.17C877.866 364.602 878.87 364.318 880.037 364.318C881.219 364.318 882.215 364.606 883.026 365.182C883.844 365.75 884.42 366.527 884.753 367.511H884.935C885.321 366.542 885.973 365.769 886.889 365.193C887.813 364.61 888.908 364.318 890.173 364.318C891.779 364.318 893.09 364.826 894.105 365.841C895.12 366.856 895.628 368.337 895.628 370.284V382H891.503V370.92C891.503 369.837 891.215 369.045 890.639 368.545C890.063 368.038 889.359 367.784 888.526 367.784C887.533 367.784 886.757 368.095 886.196 368.716C885.643 369.33 885.366 370.129 885.366 371.114V382H881.332V370.75C881.332 369.848 881.06 369.129 880.514 368.591C879.976 368.053 879.272 367.784 878.401 367.784C877.81 367.784 877.272 367.936 876.787 368.239C876.302 368.534 875.916 368.955 875.628 369.5C875.34 370.038 875.196 370.667 875.196 371.386V382H871.082ZM904.824 382.352C903.718 382.352 902.722 382.155 901.835 381.761C900.956 381.36 900.259 380.769 899.744 379.989C899.237 379.208 898.983 378.246 898.983 377.102C898.983 376.117 899.165 375.303 899.528 374.659C899.892 374.015 900.388 373.5 901.017 373.114C901.646 372.727 902.354 372.436 903.142 372.239C903.938 372.034 904.759 371.886 905.608 371.795C906.631 371.689 907.46 371.595 908.097 371.511C908.733 371.42 909.195 371.284 909.483 371.102C909.778 370.913 909.926 370.621 909.926 370.227V370.159C909.926 369.303 909.672 368.64 909.165 368.17C908.657 367.701 907.926 367.466 906.972 367.466C905.964 367.466 905.165 367.686 904.574 368.125C903.991 368.564 903.597 369.083 903.392 369.682L899.551 369.136C899.854 368.076 900.354 367.189 901.051 366.477C901.748 365.758 902.6 365.22 903.608 364.864C904.616 364.5 905.729 364.318 906.949 364.318C907.79 364.318 908.627 364.417 909.46 364.614C910.294 364.811 911.055 365.136 911.744 365.591C912.434 366.038 912.987 366.648 913.403 367.42C913.828 368.193 914.04 369.159 914.04 370.318V382H910.085V379.602H909.949C909.699 380.087 909.347 380.542 908.892 380.966C908.445 381.383 907.881 381.72 907.199 381.977C906.525 382.227 905.733 382.352 904.824 382.352ZM905.892 379.33C906.718 379.33 907.434 379.167 908.04 378.841C908.646 378.508 909.112 378.068 909.438 377.523C909.771 376.977 909.938 376.383 909.938 375.739V373.682C909.809 373.788 909.589 373.886 909.278 373.977C908.975 374.068 908.634 374.148 908.256 374.216C907.877 374.284 907.502 374.345 907.131 374.398C906.759 374.451 906.438 374.496 906.165 374.534C905.551 374.617 905.002 374.754 904.517 374.943C904.032 375.133 903.65 375.398 903.369 375.739C903.089 376.072 902.949 376.504 902.949 377.034C902.949 377.792 903.225 378.364 903.778 378.75C904.331 379.136 905.036 379.33 905.892 379.33ZM926.892 364.545V367.727H916.858V364.545H926.892ZM919.335 360.364H923.449V376.75C923.449 377.303 923.532 377.727 923.699 378.023C923.873 378.311 924.1 378.508 924.381 378.614C924.661 378.72 924.972 378.773 925.312 378.773C925.57 378.773 925.805 378.754 926.017 378.716C926.237 378.678 926.403 378.644 926.517 378.614L927.21 381.83C926.991 381.905 926.676 381.989 926.267 382.08C925.866 382.17 925.373 382.223 924.79 382.239C923.759 382.269 922.831 382.114 922.006 381.773C921.18 381.424 920.525 380.886 920.04 380.159C919.563 379.432 919.328 378.523 919.335 377.432V360.364ZM930.332 382V364.545H934.446V382H930.332ZM932.401 362.068C931.749 362.068 931.188 361.852 930.719 361.42C930.249 360.981 930.014 360.455 930.014 359.841C930.014 359.22 930.249 358.693 930.719 358.261C931.188 357.822 931.749 357.602 932.401 357.602C933.06 357.602 933.62 357.822 934.082 358.261C934.552 358.693 934.787 359.22 934.787 359.841C934.787 360.455 934.552 360.981 934.082 361.42C933.62 361.852 933.06 362.068 932.401 362.068ZM946.29 382.341C944.585 382.341 943.108 381.966 941.858 381.216C940.608 380.466 939.638 379.417 938.949 378.068C938.267 376.72 937.926 375.144 937.926 373.341C937.926 371.538 938.267 369.958 938.949 368.602C939.638 367.246 940.608 366.193 941.858 365.443C943.108 364.693 944.585 364.318 946.29 364.318C947.994 364.318 949.472 364.693 950.722 365.443C951.972 366.193 952.938 367.246 953.619 368.602C954.309 369.958 954.653 371.538 954.653 373.341C954.653 375.144 954.309 376.72 953.619 378.068C952.938 379.417 951.972 380.466 950.722 381.216C949.472 381.966 947.994 382.341 946.29 382.341ZM946.312 379.045C947.237 379.045 948.009 378.792 948.631 378.284C949.252 377.769 949.714 377.08 950.017 376.216C950.328 375.352 950.483 374.39 950.483 373.33C950.483 372.261 950.328 371.295 950.017 370.432C949.714 369.561 949.252 368.867 948.631 368.352C948.009 367.837 947.237 367.58 946.312 367.58C945.366 367.58 944.578 367.837 943.949 368.352C943.328 368.867 942.862 369.561 942.551 370.432C942.248 371.295 942.097 372.261 942.097 373.33C942.097 374.39 942.248 375.352 942.551 376.216C942.862 377.08 943.328 377.769 943.949 378.284C944.578 378.792 945.366 379.045 946.312 379.045ZM962.259 371.773V382H958.145V364.545H962.077V367.511H962.281C962.683 366.534 963.323 365.758 964.202 365.182C965.088 364.606 966.183 364.318 967.486 364.318C968.69 364.318 969.74 364.576 970.634 365.091C971.535 365.606 972.232 366.352 972.724 367.33C973.224 368.307 973.471 369.492 973.463 370.886V382H969.349V371.523C969.349 370.356 969.046 369.443 968.44 368.784C967.842 368.125 967.012 367.795 965.952 367.795C965.232 367.795 964.592 367.955 964.031 368.273C963.478 368.583 963.043 369.034 962.724 369.625C962.414 370.216 962.259 370.932 962.259 371.773Z" fill="#CFCFD0"/>
<rect x="574" y="607" width="332" height="109" rx="54.5" fill="#1C3B70"/>
<path d="M630.498 673.318C628.862 673.318 627.407 673.038 626.135 672.477C624.869 671.917 623.869 671.136 623.135 670.136C622.4 669.136 622.01 667.981 621.964 666.67H626.237C626.275 667.299 626.483 667.848 626.862 668.318C627.241 668.78 627.744 669.14 628.373 669.398C629.002 669.655 629.707 669.784 630.487 669.784C631.32 669.784 632.059 669.64 632.703 669.352C633.347 669.057 633.85 668.648 634.214 668.125C634.578 667.602 634.756 667 634.748 666.318C634.756 665.614 634.574 664.992 634.203 664.455C633.832 663.917 633.294 663.496 632.589 663.193C631.892 662.89 631.051 662.739 630.066 662.739H628.01V659.489H630.066C630.877 659.489 631.585 659.348 632.191 659.068C632.805 658.788 633.286 658.394 633.635 657.886C633.983 657.371 634.154 656.777 634.146 656.102C634.154 655.443 634.006 654.871 633.703 654.386C633.407 653.894 632.987 653.511 632.441 653.239C631.904 652.966 631.271 652.83 630.544 652.83C629.832 652.83 629.172 652.958 628.566 653.216C627.96 653.473 627.472 653.841 627.1 654.318C626.729 654.788 626.532 655.348 626.51 656H622.453C622.483 654.697 622.858 653.553 623.578 652.568C624.305 651.576 625.275 650.803 626.487 650.25C627.699 649.689 629.059 649.409 630.566 649.409C632.119 649.409 633.468 649.701 634.612 650.284C635.763 650.86 636.654 651.636 637.282 652.614C637.911 653.591 638.225 654.67 638.225 655.852C638.233 657.163 637.847 658.261 637.066 659.148C636.294 660.034 635.279 660.614 634.021 660.886V661.068C635.657 661.295 636.911 661.902 637.782 662.886C638.661 663.864 639.097 665.08 639.089 666.534C639.089 667.837 638.718 669.004 637.975 670.034C637.241 671.057 636.225 671.86 634.93 672.443C633.642 673.027 632.165 673.318 630.498 673.318ZM645.956 673.25C645.266 673.25 644.675 673.008 644.183 672.523C643.69 672.038 643.448 671.447 643.456 670.75C643.448 670.068 643.69 669.485 644.183 669C644.675 668.515 645.266 668.273 645.956 668.273C646.622 668.273 647.202 668.515 647.694 669C648.194 669.485 648.448 670.068 648.456 670.75C648.448 671.212 648.327 671.633 648.092 672.011C647.865 672.39 647.562 672.693 647.183 672.92C646.812 673.14 646.403 673.25 645.956 673.25ZM671.369 673H663.483V649.727H671.528C673.839 649.727 675.824 650.193 677.483 651.125C679.15 652.049 680.43 653.379 681.324 655.114C682.218 656.848 682.665 658.924 682.665 661.341C682.665 663.765 682.214 665.848 681.312 667.591C680.419 669.333 679.127 670.67 677.438 671.602C675.756 672.534 673.733 673 671.369 673ZM667.699 669.352H671.165C672.786 669.352 674.138 669.057 675.222 668.466C676.305 667.867 677.119 666.977 677.665 665.795C678.21 664.606 678.483 663.121 678.483 661.341C678.483 659.561 678.21 658.083 677.665 656.909C677.119 655.727 676.313 654.845 675.244 654.261C674.184 653.67 672.866 653.375 671.29 653.375H667.699V669.352ZM694.216 673.341C692.466 673.341 690.955 672.977 689.682 672.25C688.417 671.515 687.443 670.477 686.761 669.136C686.08 667.788 685.739 666.201 685.739 664.375C685.739 662.58 686.08 661.004 686.761 659.648C687.451 658.284 688.413 657.223 689.648 656.466C690.883 655.701 692.333 655.318 694 655.318C695.076 655.318 696.091 655.492 697.045 655.841C698.008 656.182 698.856 656.712 699.591 657.432C700.333 658.152 700.917 659.068 701.341 660.182C701.765 661.288 701.977 662.606 701.977 664.136V665.398H687.67V662.625H698.034C698.027 661.837 697.856 661.136 697.523 660.523C697.189 659.902 696.723 659.413 696.125 659.057C695.534 658.701 694.845 658.523 694.057 658.523C693.216 658.523 692.477 658.727 691.841 659.136C691.205 659.538 690.708 660.068 690.352 660.727C690.004 661.379 689.826 662.095 689.818 662.875V665.295C689.818 666.311 690.004 667.182 690.375 667.909C690.746 668.629 691.265 669.182 691.932 669.568C692.598 669.947 693.379 670.136 694.273 670.136C694.871 670.136 695.413 670.053 695.898 669.886C696.383 669.712 696.803 669.458 697.159 669.125C697.515 668.792 697.784 668.379 697.966 667.886L701.807 668.318C701.564 669.333 701.102 670.22 700.42 670.977C699.746 671.727 698.883 672.311 697.83 672.727C696.777 673.136 695.572 673.341 694.216 673.341ZM720.548 655.545L714.332 673H709.787L703.571 655.545H707.957L711.969 668.511H712.151L716.173 655.545H720.548ZM730.528 673.341C728.778 673.341 727.267 672.977 725.994 672.25C724.729 671.515 723.756 670.477 723.074 669.136C722.392 667.788 722.051 666.201 722.051 664.375C722.051 662.58 722.392 661.004 723.074 659.648C723.763 658.284 724.725 657.223 725.96 656.466C727.195 655.701 728.646 655.318 730.312 655.318C731.388 655.318 732.403 655.492 733.358 655.841C734.32 656.182 735.169 656.712 735.903 657.432C736.646 658.152 737.229 659.068 737.653 660.182C738.078 661.288 738.29 662.606 738.29 664.136V665.398H723.983V662.625H734.347C734.339 661.837 734.169 661.136 733.835 660.523C733.502 659.902 733.036 659.413 732.438 659.057C731.847 658.701 731.157 658.523 730.369 658.523C729.528 658.523 728.79 658.727 728.153 659.136C727.517 659.538 727.021 660.068 726.665 660.727C726.316 661.379 726.138 662.095 726.131 662.875V665.295C726.131 666.311 726.316 667.182 726.688 667.909C727.059 668.629 727.578 669.182 728.244 669.568C728.911 669.947 729.691 670.136 730.585 670.136C731.184 670.136 731.725 670.053 732.21 669.886C732.695 669.712 733.116 669.458 733.472 669.125C733.828 668.792 734.097 668.379 734.278 667.886L738.119 668.318C737.877 669.333 737.415 670.22 736.733 670.977C736.059 671.727 735.195 672.311 734.142 672.727C733.089 673.136 731.884 673.341 730.528 673.341ZM745.884 649.727V673H741.77V649.727H745.884ZM757.727 673.341C756.023 673.341 754.545 672.966 753.295 672.216C752.045 671.466 751.076 670.417 750.386 669.068C749.705 667.72 749.364 666.144 749.364 664.341C749.364 662.538 749.705 660.958 750.386 659.602C751.076 658.246 752.045 657.193 753.295 656.443C754.545 655.693 756.023 655.318 757.727 655.318C759.432 655.318 760.909 655.693 762.159 656.443C763.409 657.193 764.375 658.246 765.057 659.602C765.746 660.958 766.091 662.538 766.091 664.341C766.091 666.144 765.746 667.72 765.057 669.068C764.375 670.417 763.409 671.466 762.159 672.216C760.909 672.966 759.432 673.341 757.727 673.341ZM757.75 670.045C758.674 670.045 759.447 669.792 760.068 669.284C760.689 668.769 761.152 668.08 761.455 667.216C761.765 666.352 761.92 665.39 761.92 664.33C761.92 663.261 761.765 662.295 761.455 661.432C761.152 660.561 760.689 659.867 760.068 659.352C759.447 658.837 758.674 658.58 757.75 658.58C756.803 658.58 756.015 658.837 755.386 659.352C754.765 659.867 754.299 660.561 753.989 661.432C753.686 662.295 753.534 663.261 753.534 664.33C753.534 665.39 753.686 666.352 753.989 667.216C754.299 668.08 754.765 668.769 755.386 669.284C756.015 669.792 756.803 670.045 757.75 670.045ZM769.582 679.545V655.545H773.628V658.432H773.866C774.079 658.008 774.378 657.557 774.764 657.08C775.151 656.595 775.673 656.182 776.332 655.841C776.991 655.492 777.832 655.318 778.855 655.318C780.204 655.318 781.42 655.663 782.503 656.352C783.594 657.034 784.457 658.045 785.094 659.386C785.738 660.72 786.06 662.356 786.06 664.295C786.06 666.212 785.745 667.841 785.116 669.182C784.488 670.523 783.632 671.545 782.548 672.25C781.465 672.955 780.238 673.307 778.866 673.307C777.866 673.307 777.037 673.14 776.378 672.807C775.719 672.473 775.188 672.072 774.787 671.602C774.393 671.125 774.086 670.674 773.866 670.25H773.696V679.545H769.582ZM773.616 664.273C773.616 665.402 773.776 666.39 774.094 667.239C774.42 668.087 774.885 668.75 775.491 669.227C776.105 669.697 776.848 669.932 777.719 669.932C778.628 669.932 779.389 669.689 780.003 669.205C780.616 668.712 781.079 668.042 781.389 667.193C781.707 666.337 781.866 665.364 781.866 664.273C781.866 663.189 781.711 662.227 781.401 661.386C781.09 660.545 780.628 659.886 780.014 659.409C779.401 658.932 778.635 658.693 777.719 658.693C776.84 658.693 776.094 658.924 775.48 659.386C774.866 659.848 774.401 660.496 774.082 661.33C773.772 662.163 773.616 663.144 773.616 664.273ZM789.582 673V655.545H793.514V658.511H793.719C794.082 657.511 794.685 656.731 795.526 656.17C796.366 655.602 797.37 655.318 798.537 655.318C799.719 655.318 800.715 655.606 801.526 656.182C802.344 656.75 802.92 657.527 803.253 658.511H803.435C803.821 657.542 804.473 656.769 805.389 656.193C806.313 655.61 807.408 655.318 808.673 655.318C810.279 655.318 811.59 655.826 812.605 656.841C813.62 657.856 814.128 659.337 814.128 661.284V673H810.003V661.92C810.003 660.837 809.715 660.045 809.139 659.545C808.563 659.038 807.859 658.784 807.026 658.784C806.033 658.784 805.257 659.095 804.696 659.716C804.143 660.33 803.866 661.129 803.866 662.114V673H799.832V661.75C799.832 660.848 799.56 660.129 799.014 659.591C798.476 659.053 797.772 658.784 796.901 658.784C796.31 658.784 795.772 658.936 795.287 659.239C794.802 659.534 794.416 659.955 794.128 660.5C793.84 661.038 793.696 661.667 793.696 662.386V673H789.582ZM826.028 673.341C824.278 673.341 822.767 672.977 821.494 672.25C820.229 671.515 819.256 670.477 818.574 669.136C817.892 667.788 817.551 666.201 817.551 664.375C817.551 662.58 817.892 661.004 818.574 659.648C819.263 658.284 820.225 657.223 821.46 656.466C822.695 655.701 824.146 655.318 825.812 655.318C826.888 655.318 827.903 655.492 828.858 655.841C829.82 656.182 830.669 656.712 831.403 657.432C832.146 658.152 832.729 659.068 833.153 660.182C833.578 661.288 833.79 662.606 833.79 664.136V665.398H819.483V662.625H829.847C829.839 661.837 829.669 661.136 829.335 660.523C829.002 659.902 828.536 659.413 827.938 659.057C827.347 658.701 826.657 658.523 825.869 658.523C825.028 658.523 824.29 658.727 823.653 659.136C823.017 659.538 822.521 660.068 822.165 660.727C821.816 661.379 821.638 662.095 821.631 662.875V665.295C821.631 666.311 821.816 667.182 822.188 667.909C822.559 668.629 823.078 669.182 823.744 669.568C824.411 669.947 825.191 670.136 826.085 670.136C826.684 670.136 827.225 670.053 827.71 669.886C828.195 669.712 828.616 669.458 828.972 669.125C829.328 668.792 829.597 668.379 829.778 667.886L833.619 668.318C833.377 669.333 832.915 670.22 832.233 670.977C831.559 671.727 830.695 672.311 829.642 672.727C828.589 673.136 827.384 673.341 826.028 673.341ZM841.384 662.773V673H837.27V655.545H841.202V658.511H841.406C841.808 657.534 842.448 656.758 843.327 656.182C844.213 655.606 845.308 655.318 846.611 655.318C847.815 655.318 848.865 655.576 849.759 656.091C850.66 656.606 851.357 657.352 851.849 658.33C852.349 659.307 852.596 660.492 852.588 661.886V673H848.474V662.523C848.474 661.356 848.171 660.443 847.565 659.784C846.967 659.125 846.137 658.795 845.077 658.795C844.357 658.795 843.717 658.955 843.156 659.273C842.603 659.583 842.168 660.034 841.849 660.625C841.539 661.216 841.384 661.932 841.384 662.773ZM865.486 655.545V658.727H855.452V655.545H865.486ZM857.929 651.364H862.043V667.75C862.043 668.303 862.126 668.727 862.293 669.023C862.467 669.311 862.694 669.508 862.974 669.614C863.255 669.72 863.565 669.773 863.906 669.773C864.164 669.773 864.399 669.754 864.611 669.716C864.83 669.678 864.997 669.644 865.111 669.614L865.804 672.83C865.584 672.905 865.27 672.989 864.861 673.08C864.459 673.17 863.967 673.223 863.384 673.239C862.353 673.269 861.425 673.114 860.599 672.773C859.774 672.424 859.118 671.886 858.634 671.159C858.156 670.432 857.921 669.523 857.929 668.432V651.364Z" fill="#CFCFD0"/>
<rect x="565" y="10" width="362" height="109" rx="54.5" fill="#0F352D"/>
<path d="M614.549 52.7273V76H610.333V56.8295H610.197L604.754 60.3068V56.4432L610.538 52.7273H614.549ZM626.018 76.25C625.329 76.25 624.738 76.0076 624.245 75.5227C623.753 75.0379 623.511 74.447 623.518 73.75C623.511 73.0682 623.753 72.4848 624.245 72C624.738 71.5152 625.329 71.2727 626.018 71.2727C626.685 71.2727 627.264 71.5152 627.757 72C628.257 72.4848 628.511 73.0682 628.518 73.75C628.511 74.2121 628.389 74.6326 628.154 75.0114C627.927 75.3902 627.624 75.6932 627.245 75.9205C626.874 76.1402 626.465 76.25 626.018 76.25ZM642.523 56.2614V52.7273H661.091V56.2614H653.898V76H649.716V56.2614H642.523ZM667.136 76.3523C666.03 76.3523 665.034 76.1553 664.148 75.7614C663.269 75.3598 662.572 74.7689 662.057 73.9886C661.549 73.2083 661.295 72.2462 661.295 71.1023C661.295 70.1174 661.477 69.303 661.841 68.6591C662.205 68.0152 662.701 67.5 663.33 67.1136C663.958 66.7273 664.667 66.4356 665.455 66.2386C666.25 66.0341 667.072 65.8864 667.92 65.7955C668.943 65.6894 669.773 65.5947 670.409 65.5114C671.045 65.4205 671.508 65.2841 671.795 65.1023C672.091 64.9129 672.239 64.6212 672.239 64.2273V64.1591C672.239 63.303 671.985 62.6402 671.477 62.1705C670.97 61.7008 670.239 61.4659 669.284 61.4659C668.277 61.4659 667.477 61.6856 666.886 62.125C666.303 62.5644 665.909 63.0833 665.705 63.6818L661.864 63.1364C662.167 62.0758 662.667 61.1894 663.364 60.4773C664.061 59.7576 664.913 59.2197 665.92 58.8636C666.928 58.5 668.042 58.3182 669.261 58.3182C670.102 58.3182 670.939 58.4167 671.773 58.6136C672.606 58.8106 673.367 59.1364 674.057 59.5909C674.746 60.0379 675.299 60.6477 675.716 61.4205C676.14 62.1932 676.352 63.1591 676.352 64.3182V76H672.398V73.6023H672.261C672.011 74.0871 671.659 74.5417 671.205 74.9659C670.758 75.3826 670.193 75.7197 669.511 75.9773C668.837 76.2273 668.045 76.3523 667.136 76.3523ZM668.205 73.3295C669.03 73.3295 669.746 73.1667 670.352 72.8409C670.958 72.5076 671.424 72.0682 671.75 71.5227C672.083 70.9773 672.25 70.3826 672.25 69.7386V67.6818C672.121 67.7879 671.902 67.8864 671.591 67.9773C671.288 68.0682 670.947 68.1477 670.568 68.2159C670.189 68.2841 669.814 68.3447 669.443 68.3977C669.072 68.4508 668.75 68.4962 668.477 68.5341C667.864 68.6174 667.314 68.7538 666.83 68.9432C666.345 69.1326 665.962 69.3977 665.682 69.7386C665.402 70.072 665.261 70.5038 665.261 71.0341C665.261 71.7917 665.538 72.3636 666.091 72.75C666.644 73.1364 667.348 73.3295 668.205 73.3295ZM694.284 63.1591L690.534 63.5682C690.428 63.1894 690.242 62.8333 689.977 62.5C689.72 62.1667 689.371 61.8977 688.932 61.6932C688.492 61.4886 687.955 61.3864 687.318 61.3864C686.462 61.3864 685.742 61.572 685.159 61.9432C684.583 62.3144 684.299 62.7955 684.307 63.3864C684.299 63.8939 684.485 64.3068 684.864 64.625C685.25 64.9432 685.886 65.2045 686.773 65.4091L689.75 66.0455C691.402 66.4015 692.629 66.9659 693.432 67.7386C694.242 68.5114 694.652 69.5227 694.659 70.7727C694.652 71.8712 694.33 72.8409 693.693 73.6818C693.064 74.5152 692.189 75.1667 691.068 75.6364C689.947 76.1061 688.659 76.3409 687.205 76.3409C685.068 76.3409 683.348 75.8939 682.045 75C680.742 74.0985 679.966 72.8447 679.716 71.2386L683.727 70.8523C683.909 71.6402 684.295 72.2348 684.886 72.6364C685.477 73.0379 686.246 73.2386 687.193 73.2386C688.17 73.2386 688.955 73.0379 689.545 72.6364C690.144 72.2348 690.443 71.7386 690.443 71.1477C690.443 70.6477 690.25 70.2348 689.864 69.9091C689.485 69.5833 688.894 69.3333 688.091 69.1591L685.114 68.5341C683.439 68.1856 682.201 67.5985 681.398 66.7727C680.595 65.9394 680.197 64.8864 680.205 63.6136C680.197 62.5379 680.489 61.6061 681.08 60.8182C681.678 60.0227 682.508 59.4091 683.568 58.9773C684.636 58.5379 685.867 58.3182 687.261 58.3182C689.307 58.3182 690.917 58.7538 692.091 59.625C693.273 60.4962 694.004 61.6742 694.284 63.1591ZM701.801 70.5227L701.79 65.5568H702.449L708.722 58.5455H713.528L705.812 67.1364H704.96L701.801 70.5227ZM698.051 76V52.7273H702.165V76H698.051ZM709.006 76L703.324 68.0568L706.097 65.1591L713.926 76H709.006ZM730.685 76.3068C729.313 76.3068 728.086 75.9545 727.003 75.25C725.92 74.5455 725.063 73.5227 724.435 72.1818C723.806 70.8409 723.491 69.2121 723.491 67.2955C723.491 65.3561 723.81 63.7197 724.446 62.3864C725.09 61.0455 725.957 60.0341 727.048 59.3523C728.139 58.6629 729.355 58.3182 730.696 58.3182C731.719 58.3182 732.56 58.4924 733.219 58.8409C733.878 59.1818 734.401 59.5947 734.787 60.0795C735.173 60.5568 735.473 61.0076 735.685 61.4318H735.855V52.7273H739.98V76H735.935V73.25H735.685C735.473 73.6742 735.166 74.125 734.764 74.6023C734.363 75.072 733.832 75.4735 733.173 75.8068C732.514 76.1402 731.685 76.3068 730.685 76.3068ZM731.832 72.9318C732.704 72.9318 733.446 72.697 734.06 72.2273C734.673 71.75 735.139 71.0871 735.457 70.2386C735.776 69.3902 735.935 68.4015 735.935 67.2727C735.935 66.1439 735.776 65.1629 735.457 64.3295C735.147 63.4962 734.685 62.8485 734.071 62.3864C733.465 61.9242 732.719 61.6932 731.832 61.6932C730.916 61.6932 730.151 61.9318 729.537 62.4091C728.923 62.8864 728.461 63.5455 728.151 64.3864C727.84 65.2273 727.685 66.1894 727.685 67.2727C727.685 68.3636 727.84 69.3371 728.151 70.1932C728.469 71.0417 728.935 71.7121 729.548 72.2045C730.17 72.6894 730.931 72.9318 731.832 72.9318ZM752.091 76.3409C750.341 76.3409 748.83 75.9773 747.557 75.25C746.292 74.5152 745.318 73.4773 744.636 72.1364C743.955 70.7879 743.614 69.2008 743.614 67.375C743.614 65.5795 743.955 64.0038 744.636 62.6477C745.326 61.2841 746.288 60.2235 747.523 59.4659C748.758 58.7008 750.208 58.3182 751.875 58.3182C752.951 58.3182 753.966 58.4924 754.92 58.8409C755.883 59.1818 756.731 59.7121 757.466 60.4318C758.208 61.1515 758.792 62.0682 759.216 63.1818C759.64 64.2879 759.852 65.6061 759.852 67.1364V68.3977H745.545V65.625H755.909C755.902 64.8371 755.731 64.1364 755.398 63.5227C755.064 62.9015 754.598 62.4129 754 62.0568C753.409 61.7008 752.72 61.5227 751.932 61.5227C751.091 61.5227 750.352 61.7273 749.716 62.1364C749.08 62.5379 748.583 63.0682 748.227 63.7273C747.879 64.3788 747.701 65.0947 747.693 65.875V68.2955C747.693 69.3106 747.879 70.1818 748.25 70.9091C748.621 71.6288 749.14 72.1818 749.807 72.5682C750.473 72.947 751.254 73.1364 752.148 73.1364C752.746 73.1364 753.288 73.053 753.773 72.8864C754.258 72.7121 754.678 72.4583 755.034 72.125C755.39 71.7917 755.659 71.3788 755.841 70.8864L759.682 71.3182C759.439 72.3333 758.977 73.2197 758.295 73.9773C757.621 74.7273 756.758 75.3106 755.705 75.7273C754.652 76.1364 753.447 76.3409 752.091 76.3409ZM777.128 63.1591L773.378 63.5682C773.272 63.1894 773.086 62.8333 772.821 62.5C772.563 62.1667 772.215 61.8977 771.776 61.6932C771.336 61.4886 770.798 61.3864 770.162 61.3864C769.306 61.3864 768.586 61.572 768.003 61.9432C767.427 62.3144 767.143 62.7955 767.151 63.3864C767.143 63.8939 767.329 64.3068 767.707 64.625C768.094 64.9432 768.73 65.2045 769.616 65.4091L772.594 66.0455C774.245 66.4015 775.473 66.9659 776.276 67.7386C777.086 68.5114 777.495 69.5227 777.503 70.7727C777.495 71.8712 777.173 72.8409 776.537 73.6818C775.908 74.5152 775.033 75.1667 773.912 75.6364C772.791 76.1061 771.503 76.3409 770.048 76.3409C767.912 76.3409 766.192 75.8939 764.889 75C763.586 74.0985 762.81 72.8447 762.56 71.2386L766.571 70.8523C766.753 71.6402 767.139 72.2348 767.73 72.6364C768.321 73.0379 769.09 73.2386 770.037 73.2386C771.014 73.2386 771.798 73.0379 772.389 72.6364C772.988 72.2348 773.287 71.7386 773.287 71.1477C773.287 70.6477 773.094 70.2348 772.707 69.9091C772.329 69.5833 771.738 69.3333 770.935 69.1591L767.957 68.5341C766.283 68.1856 765.045 67.5985 764.241 66.7727C763.438 65.9394 763.041 64.8864 763.048 63.6136C763.041 62.5379 763.332 61.6061 763.923 60.8182C764.522 60.0227 765.351 59.4091 766.412 58.9773C767.48 58.5379 768.711 58.3182 770.105 58.3182C772.151 58.3182 773.76 58.7538 774.935 59.625C776.116 60.4962 776.848 61.6742 777.128 63.1591ZM788.509 76.3409C786.766 76.3409 785.27 75.9583 784.02 75.1932C782.777 74.428 781.819 73.3712 781.145 72.0227C780.478 70.6667 780.145 69.1061 780.145 67.3409C780.145 65.5682 780.486 64.0038 781.168 62.6477C781.849 61.2841 782.812 60.2235 784.054 59.4659C785.304 58.7008 786.781 58.3182 788.486 58.3182C789.902 58.3182 791.156 58.5795 792.247 59.1023C793.346 59.6174 794.221 60.3485 794.872 61.2955C795.524 62.2348 795.895 63.3333 795.986 64.5909H792.054C791.895 63.75 791.516 63.0492 790.918 62.4886C790.327 61.9205 789.535 61.6364 788.543 61.6364C787.702 61.6364 786.963 61.8636 786.327 62.3182C785.69 62.7652 785.194 63.4091 784.838 64.25C784.49 65.0909 784.315 66.0985 784.315 67.2727C784.315 68.4621 784.49 69.4848 784.838 70.3409C785.187 71.1894 785.675 71.8447 786.304 72.3068C786.94 72.7614 787.687 72.9886 788.543 72.9886C789.149 72.9886 789.69 72.875 790.168 72.6477C790.652 72.4129 791.058 72.0758 791.384 71.6364C791.709 71.197 791.933 70.6629 792.054 70.0341H795.986C795.887 71.2689 795.524 72.3636 794.895 73.3182C794.266 74.2652 793.41 75.0076 792.327 75.5455C791.243 76.0758 789.971 76.3409 788.509 76.3409ZM799.364 76V58.5455H803.352V61.4545H803.534C803.852 60.447 804.398 59.6705 805.17 59.125C805.951 58.572 806.841 58.2955 807.841 58.2955C808.068 58.2955 808.322 58.3068 808.602 58.3295C808.89 58.3447 809.129 58.3712 809.318 58.4091V62.1932C809.144 62.1326 808.867 62.0795 808.489 62.0341C808.117 61.9811 807.758 61.9545 807.409 61.9545C806.659 61.9545 805.985 62.1174 805.386 62.4432C804.795 62.7614 804.33 63.2045 803.989 63.7727C803.648 64.3409 803.477 64.9962 803.477 65.7386V76H799.364ZM812.051 76V58.5455H816.165V76H812.051ZM814.119 56.0682C813.468 56.0682 812.907 55.8523 812.438 55.4205C811.968 54.9811 811.733 54.4545 811.733 53.8409C811.733 53.2197 811.968 52.6932 812.438 52.2614C812.907 51.822 813.468 51.6023 814.119 51.6023C814.778 51.6023 815.339 51.822 815.801 52.2614C816.271 52.6932 816.506 53.2197 816.506 53.8409C816.506 54.4545 816.271 54.9811 815.801 55.4205C815.339 55.8523 814.778 56.0682 814.119 56.0682ZM820.395 82.5455V58.5455H824.44V61.4318H824.679C824.891 61.0076 825.19 60.5568 825.577 60.0795C825.963 59.5947 826.486 59.1818 827.145 58.8409C827.804 58.4924 828.645 58.3182 829.668 58.3182C831.016 58.3182 832.232 58.6629 833.315 59.3523C834.406 60.0341 835.27 61.0455 835.906 62.3864C836.55 63.7197 836.872 65.3561 836.872 67.2955C836.872 69.2121 836.558 70.8409 835.929 72.1818C835.3 73.5227 834.444 74.5455 833.361 75.25C832.277 75.9545 831.05 76.3068 829.679 76.3068C828.679 76.3068 827.849 76.1402 827.19 75.8068C826.531 75.4735 826.001 75.072 825.599 74.6023C825.205 74.125 824.899 73.6742 824.679 73.25H824.509V82.5455H820.395ZM824.429 67.2727C824.429 68.4015 824.588 69.3902 824.906 70.2386C825.232 71.0871 825.698 71.75 826.304 72.2273C826.918 72.697 827.66 72.9318 828.531 72.9318C829.44 72.9318 830.202 72.6894 830.815 72.2045C831.429 71.7121 831.891 71.0417 832.202 70.1932C832.52 69.3371 832.679 68.3636 832.679 67.2727C832.679 66.1894 832.524 65.2273 832.213 64.3864C831.902 63.5455 831.44 62.8864 830.827 62.4091C830.213 61.9318 829.448 61.6932 828.531 61.6932C827.652 61.6932 826.906 61.9242 826.293 62.3864C825.679 62.8485 825.213 63.4962 824.895 64.3295C824.584 65.1629 824.429 66.1439 824.429 67.2727ZM849.111 58.5455V61.7273H839.077V58.5455H849.111ZM841.554 54.3636H845.668V70.75C845.668 71.303 845.751 71.7273 845.918 72.0227C846.092 72.3106 846.319 72.5076 846.599 72.6136C846.88 72.7197 847.19 72.7727 847.531 72.7727C847.789 72.7727 848.024 72.7538 848.236 72.7159C848.455 72.678 848.622 72.6439 848.736 72.6136L849.429 75.8295C849.209 75.9053 848.895 75.9886 848.486 76.0795C848.084 76.1705 847.592 76.2235 847.009 76.2386C845.978 76.2689 845.05 76.1136 844.224 75.7727C843.399 75.4242 842.743 74.8864 842.259 74.1591C841.781 73.4318 841.546 72.5227 841.554 71.4318V54.3636ZM852.551 76V58.5455H856.665V76H852.551ZM854.619 56.0682C853.968 56.0682 853.407 55.8523 852.938 55.4205C852.468 54.9811 852.233 54.4545 852.233 53.8409C852.233 53.2197 852.468 52.6932 852.938 52.2614C853.407 51.822 853.968 51.6023 854.619 51.6023C855.278 51.6023 855.839 51.822 856.301 52.2614C856.771 52.6932 857.006 53.2197 857.006 53.8409C857.006 54.4545 856.771 54.9811 856.301 55.4205C855.839 55.8523 855.278 56.0682 854.619 56.0682ZM868.509 76.3409C866.804 76.3409 865.327 75.9659 864.077 75.2159C862.827 74.4659 861.857 73.4167 861.168 72.0682C860.486 70.7197 860.145 69.1439 860.145 67.3409C860.145 65.5379 860.486 63.9583 861.168 62.6023C861.857 61.2462 862.827 60.1932 864.077 59.4432C865.327 58.6932 866.804 58.3182 868.509 58.3182C870.213 58.3182 871.69 58.6932 872.94 59.4432C874.19 60.1932 875.156 61.2462 875.838 62.6023C876.527 63.9583 876.872 65.5379 876.872 67.3409C876.872 69.1439 876.527 70.7197 875.838 72.0682C875.156 73.4167 874.19 74.4659 872.94 75.2159C871.69 75.9659 870.213 76.3409 868.509 76.3409ZM868.531 73.0455C869.455 73.0455 870.228 72.7917 870.849 72.2841C871.471 71.7689 871.933 71.0795 872.236 70.2159C872.546 69.3523 872.702 68.3902 872.702 67.3295C872.702 66.2614 872.546 65.2955 872.236 64.4318C871.933 63.5606 871.471 62.8674 870.849 62.3523C870.228 61.8371 869.455 61.5795 868.531 61.5795C867.584 61.5795 866.796 61.8371 866.168 62.3523C865.546 62.8674 865.08 63.5606 864.77 64.4318C864.467 65.2955 864.315 66.2614 864.315 67.3295C864.315 68.3902 864.467 69.3523 864.77 70.2159C865.08 71.0795 865.546 71.7689 866.168 72.2841C866.796 72.7917 867.584 73.0455 868.531 73.0455ZM884.477 65.7727V76H880.364V58.5455H884.295V61.5114H884.5C884.902 60.5341 885.542 59.7576 886.42 59.1818C887.307 58.6061 888.402 58.3182 889.705 58.3182C890.909 58.3182 891.958 58.5758 892.852 59.0909C893.754 59.6061 894.451 60.3523 894.943 61.3295C895.443 62.3068 895.689 63.4924 895.682 64.8864V76H891.568V65.5227C891.568 64.3561 891.265 63.4432 890.659 62.7841C890.061 62.125 889.231 61.7955 888.17 61.7955C887.451 61.7955 886.811 61.9545 886.25 62.2727C885.697 62.5833 885.261 63.0341 884.943 63.625C884.633 64.2159 884.477 64.9318 884.477 65.7727Z" fill="#CFCFD0"/>
<circle cx="473.5" cy="350.5" r="106.5" stroke="#0F352D" stroke-width="16"/>
<path d="M610.869 512.253C615.979 517.296 624.21 517.242 629.253 512.131C634.296 507.021 634.242 498.79 629.131 493.747L610.869 512.253ZM534.869 437.253L610.869 512.253L629.131 493.747L553.131 418.747L534.869 437.253Z" fill="#0F352D"/>
<path d="M421 350L470.5 387.5L524.5 328" stroke="#0F352D" stroke-width="14" stroke-linecap="round"/>
</svg>
