<svg width="656" height="582" viewBox="0 0 656 582" fill="none" xmlns="http://www.w3.org/2000/svg">
<circle cx="53" cy="50" r="49.5" fill="#0F352D" stroke="#115945"/>
<circle cx="329" cy="91" r="49.5" fill="#0F352D" stroke="#115945"/>
<circle cx="328" cy="495" r="49.5" fill="#0F352D" stroke="#115945"/>
<circle cx="606" cy="50" r="49.5" fill="#0F352D" stroke="#115945"/>
<circle cx="606" cy="523" r="49.5" fill="#0F352D" stroke="#115945"/>
<circle cx="50" cy="532" r="49.5" fill="#0F352D" stroke="#115945"/>
<circle cx="100" cy="284" r="49.5" fill="#0F352D" stroke="#115945"/>
<circle cx="50" cy="50" r="49.5" transform="matrix(-1 0 0 1 606 233)" fill="#0F352D" stroke="#115945"/>
<g filter="url(#filter0_di_5256_1412)">
<circle cx="328" cy="288" r="93" fill="#0F1B30"/>
<circle cx="328" cy="288" r="92.5" stroke="#1C3B70"/>
</g>
<path d="M93 80L252 234" stroke="#E8EFFC" stroke-opacity="0.1" stroke-width="1.16022" stroke-dasharray="2.32 2.32"/>
<path d="M398 349L564 495" stroke="#E8EFFC" stroke-opacity="0.1" stroke-width="1.16022" stroke-dasharray="2.32 2.32"/>
<path d="M566 81L402 230" stroke="#E8EFFC" stroke-opacity="0.1" stroke-width="1.16022" stroke-dasharray="2.32 2.32"/>
<path d="M257 349L96 510" stroke="#E8EFFC" stroke-opacity="0.1" stroke-width="1.16022" stroke-dasharray="2.32 2.32"/>
<path d="M235 287L151 287" stroke="#E8EFFC" stroke-opacity="0.1" stroke-width="1.16022" stroke-dasharray="2.32 2.32"/>
<line x1="327.42" y1="194.989" x2="328.42" y2="140.989" stroke="#E8EFFC" stroke-opacity="0.1" stroke-width="1.16022" stroke-dasharray="2.32 2.32"/>
<line x1="327.42" y1="445" x2="327.42" y2="381" stroke="#E8EFFC" stroke-opacity="0.1" stroke-width="1.16022" stroke-dasharray="2.32 2.32"/>
<line x1="421" y1="286.42" x2="504" y2="286.42" stroke="#E8EFFC" stroke-opacity="0.1" stroke-width="1.16022" stroke-dasharray="2.32 2.32"/>
<path d="M263.733 293.205V281.409H266.409V293.205H263.733ZM259.173 288.645V285.969H270.969V288.645H259.173ZM289.214 278.545V296H286.401L278.177 284.111H278.032V296H274.87V278.545H277.7L285.915 290.443H286.069V278.545H289.214ZM298.318 296.256C297.006 296.256 295.872 295.983 294.918 295.438C293.969 294.886 293.239 294.108 292.727 293.102C292.216 292.091 291.96 290.901 291.96 289.531C291.96 288.185 292.216 287.003 292.727 285.986C293.244 284.963 293.966 284.168 294.892 283.599C295.818 283.026 296.906 282.739 298.156 282.739C298.963 282.739 299.724 282.869 300.44 283.131C301.162 283.386 301.798 283.784 302.349 284.324C302.906 284.864 303.344 285.551 303.662 286.386C303.98 287.216 304.139 288.205 304.139 289.352V290.298H293.409V288.219H301.182C301.176 287.628 301.048 287.102 300.798 286.642C300.548 286.176 300.199 285.81 299.75 285.543C299.307 285.276 298.79 285.142 298.199 285.142C297.568 285.142 297.014 285.295 296.537 285.602C296.06 285.903 295.688 286.301 295.42 286.795C295.159 287.284 295.026 287.821 295.02 288.406V290.222C295.02 290.983 295.159 291.636 295.438 292.182C295.716 292.722 296.105 293.136 296.605 293.426C297.105 293.71 297.69 293.852 298.361 293.852C298.81 293.852 299.216 293.79 299.58 293.665C299.943 293.534 300.259 293.344 300.526 293.094C300.793 292.844 300.994 292.534 301.131 292.165L304.011 292.489C303.83 293.25 303.483 293.915 302.972 294.483C302.466 295.045 301.818 295.483 301.028 295.795C300.239 296.102 299.335 296.256 298.318 296.256ZM306.749 296V282.909H309.741V285.091H309.877C310.116 284.335 310.525 283.753 311.104 283.344C311.69 282.929 312.357 282.722 313.107 282.722C313.278 282.722 313.468 282.73 313.678 282.747C313.894 282.759 314.073 282.778 314.215 282.807V285.645C314.085 285.599 313.877 285.56 313.593 285.526C313.315 285.486 313.045 285.466 312.783 285.466C312.221 285.466 311.715 285.588 311.266 285.832C310.823 286.071 310.474 286.403 310.218 286.83C309.962 287.256 309.835 287.747 309.835 288.304V296H306.749ZM320.584 296.23C319.555 296.23 318.635 295.966 317.822 295.438C317.01 294.909 316.368 294.142 315.896 293.136C315.425 292.131 315.189 290.909 315.189 289.472C315.189 288.017 315.428 286.79 315.905 285.79C316.388 284.784 317.038 284.026 317.857 283.514C318.675 282.997 319.587 282.739 320.592 282.739C321.359 282.739 321.99 282.869 322.484 283.131C322.979 283.386 323.371 283.696 323.661 284.06C323.95 284.418 324.175 284.756 324.334 285.074H324.462V278.545H327.555V296H324.521V293.938H324.334C324.175 294.256 323.945 294.594 323.643 294.952C323.342 295.304 322.945 295.605 322.45 295.855C321.956 296.105 321.334 296.23 320.584 296.23ZM321.445 293.699C322.098 293.699 322.655 293.523 323.115 293.17C323.575 292.812 323.925 292.315 324.163 291.679C324.402 291.043 324.521 290.301 324.521 289.455C324.521 288.608 324.402 287.872 324.163 287.247C323.93 286.622 323.584 286.136 323.124 285.79C322.669 285.443 322.109 285.27 321.445 285.27C320.757 285.27 320.183 285.449 319.723 285.807C319.263 286.165 318.916 286.659 318.683 287.29C318.45 287.92 318.334 288.642 318.334 289.455C318.334 290.273 318.45 291.003 318.683 291.645C318.922 292.281 319.271 292.784 319.732 293.153C320.197 293.517 320.768 293.699 321.445 293.699ZM345.92 284.435H342.732C342.641 283.912 342.474 283.449 342.229 283.045C341.985 282.636 341.681 282.29 341.317 282.006C340.954 281.722 340.539 281.509 340.073 281.366C339.613 281.219 339.116 281.145 338.582 281.145C337.633 281.145 336.792 281.384 336.059 281.861C335.326 282.332 334.752 283.026 334.337 283.94C333.923 284.849 333.715 285.96 333.715 287.273C333.715 288.608 333.923 289.733 334.337 290.648C334.758 291.557 335.332 292.244 336.059 292.71C336.792 293.17 337.63 293.401 338.573 293.401C339.096 293.401 339.585 293.332 340.039 293.196C340.499 293.054 340.911 292.847 341.275 292.574C341.644 292.301 341.954 291.966 342.204 291.568C342.46 291.17 342.636 290.716 342.732 290.205L345.92 290.222C345.8 291.051 345.542 291.83 345.144 292.557C344.752 293.284 344.238 293.926 343.602 294.483C342.965 295.034 342.221 295.466 341.369 295.778C340.516 296.085 339.57 296.239 338.531 296.239C336.996 296.239 335.627 295.884 334.423 295.173C333.218 294.463 332.269 293.438 331.576 292.097C330.883 290.756 330.536 289.148 330.536 287.273C330.536 285.392 330.886 283.784 331.585 282.449C332.283 281.108 333.235 280.082 334.44 279.372C335.644 278.662 337.008 278.307 338.531 278.307C339.502 278.307 340.406 278.443 341.241 278.716C342.076 278.989 342.82 279.389 343.474 279.918C344.127 280.44 344.664 281.082 345.085 281.844C345.511 282.599 345.789 283.463 345.92 284.435ZM351.764 278.545V296H348.679V278.545H351.764ZM360.647 296.256C359.369 296.256 358.261 295.974 357.323 295.412C356.386 294.849 355.658 294.062 355.141 293.051C354.63 292.04 354.374 290.858 354.374 289.506C354.374 288.153 354.63 286.969 355.141 285.952C355.658 284.935 356.386 284.145 357.323 283.582C358.261 283.02 359.369 282.739 360.647 282.739C361.925 282.739 363.033 283.02 363.971 283.582C364.908 284.145 365.633 284.935 366.144 285.952C366.661 286.969 366.92 288.153 366.92 289.506C366.92 290.858 366.661 292.04 366.144 293.051C365.633 294.062 364.908 294.849 363.971 295.412C363.033 295.974 361.925 296.256 360.647 296.256ZM360.664 293.784C361.357 293.784 361.937 293.594 362.403 293.213C362.869 292.827 363.215 292.31 363.442 291.662C363.675 291.014 363.792 290.293 363.792 289.497C363.792 288.696 363.675 287.972 363.442 287.324C363.215 286.67 362.869 286.151 362.403 285.764C361.937 285.378 361.357 285.185 360.664 285.185C359.954 285.185 359.363 285.378 358.891 285.764C358.425 286.151 358.076 286.67 357.843 287.324C357.616 287.972 357.502 288.696 357.502 289.497C357.502 290.293 357.616 291.014 357.843 291.662C358.076 292.31 358.425 292.827 358.891 293.213C359.363 293.594 359.954 293.784 360.664 293.784ZM377.882 290.494V282.909H380.967V296H377.976V293.673H377.839C377.544 294.406 377.058 295.006 376.382 295.472C375.712 295.937 374.885 296.17 373.902 296.17C373.044 296.17 372.286 295.98 371.626 295.599C370.973 295.213 370.462 294.653 370.092 293.92C369.723 293.182 369.538 292.29 369.538 291.244V282.909H372.624V290.767C372.624 291.597 372.851 292.256 373.305 292.744C373.76 293.233 374.357 293.477 375.095 293.477C375.55 293.477 375.99 293.366 376.416 293.145C376.842 292.923 377.192 292.594 377.464 292.156C377.743 291.713 377.882 291.159 377.882 290.494ZM388.998 296.23C387.969 296.23 387.049 295.966 386.237 295.438C385.424 294.909 384.782 294.142 384.31 293.136C383.839 292.131 383.603 290.909 383.603 289.472C383.603 288.017 383.842 286.79 384.319 285.79C384.802 284.784 385.452 284.026 386.271 283.514C387.089 282.997 388.001 282.739 389.006 282.739C389.773 282.739 390.404 282.869 390.898 283.131C391.393 283.386 391.785 283.696 392.075 284.06C392.364 284.418 392.589 284.756 392.748 285.074H392.876V278.545H395.969V296H392.935V293.938H392.748C392.589 294.256 392.359 294.594 392.058 294.952C391.756 295.304 391.359 295.605 390.864 295.855C390.37 296.105 389.748 296.23 388.998 296.23ZM389.859 293.699C390.512 293.699 391.069 293.523 391.529 293.17C391.989 292.812 392.339 292.315 392.577 291.679C392.816 291.043 392.935 290.301 392.935 289.455C392.935 288.608 392.816 287.872 392.577 287.247C392.344 286.622 391.998 286.136 391.538 285.79C391.083 285.443 390.523 285.27 389.859 285.27C389.171 285.27 388.597 285.449 388.137 285.807C387.677 286.165 387.33 286.659 387.097 287.29C386.864 287.92 386.748 288.642 386.748 289.455C386.748 290.273 386.864 291.003 387.097 291.645C387.336 292.281 387.685 292.784 388.146 293.153C388.612 293.517 389.183 293.699 389.859 293.699Z" fill="white"/>
<path d="M75.1773 517.849C73.2695 517.404 70.7775 517.128 68.0898 517.059V514.577C68.0898 513.087 66.2717 511.956 62.5315 511.119C59.3083 510.397 55.0354 510 50.5 510C48.0321 510 45.6513 510.116 43.4241 510.345C42.9654 510.393 42.6322 510.799 42.6798 511.254C42.7274 511.708 43.1384 512.037 43.5964 511.991C45.7667 511.768 48.0893 511.654 50.4999 511.654C54.9152 511.654 59.0573 512.037 62.1634 512.733C65.6624 513.516 66.4199 514.4 66.4199 514.577C66.4199 514.754 65.6624 515.639 62.1635 516.422C56.0871 517.849 44.913 517.849 38.8366 516.422C35.3376 515.639 34.5801 514.754 34.5801 514.577C34.5801 514.372 35.4934 513.366 39.713 512.55C40.1655 512.463 40.4609 512.028 40.3726 511.58C40.2842 511.132 39.8468 510.839 39.3931 510.926C35.0307 511.77 32.9102 512.964 32.9102 514.577V517.059C30.2226 517.128 27.7306 517.404 25.8227 517.849C23.2503 518.448 22 519.291 22 520.423V545.13C22 546.262 23.2503 547.104 25.8227 547.704C27.7306 548.149 30.2226 548.425 32.9102 548.494V549.431C32.9102 550.921 34.7283 552.053 38.4685 552.89C44.7847 554.37 56.2153 554.37 62.5316 552.89C66.2719 552.053 68.09 550.921 68.09 549.431V548.494C69.19 548.466 70.2614 548.403 71.2838 548.306C71.743 548.263 72.0794 547.859 72.0354 547.404C71.9913 546.949 71.5814 546.616 71.1246 546.659C70.1538 546.751 69.1359 546.811 68.0898 546.839V542.317C71.6922 542.163 74.5361 541.957 77.3301 540.836V545.073C77.2045 545.238 76.5663 545.681 74.7949 546.093C74.346 546.198 74.0678 546.644 74.1734 547.088C74.2772 547.536 74.7403 547.81 75.1774 547.704C77.7497 547.104 79 546.262 79 545.13V520.423C79 519.291 77.7497 518.448 75.1773 517.849ZM77.3301 532.72C75.8263 533.986 70.9454 534.407 68.0898 534.486V529.964C71.6922 529.809 74.5361 529.604 77.3301 528.483V532.72ZM32.9102 528.309C30.0705 528.234 25.1578 527.806 23.6699 526.543V522.306C26.4644 523.427 29.3072 523.633 32.9102 523.787V528.309ZM23.6699 532.72V528.483C26.4643 529.604 29.3075 529.809 32.9102 529.964V534.486C30.0705 534.41 25.1578 533.982 23.6699 532.72ZM34.5801 534.149C35.4941 534.65 36.7863 535.086 38.4685 535.463C44.7847 536.943 56.2153 536.943 62.5316 535.463C64.2138 535.086 65.5059 534.65 66.42 534.149V540.718C66.42 540.895 65.6626 541.779 62.1636 542.563C56.0872 543.989 44.9131 543.989 38.8367 542.563C35.3376 541.779 34.5801 540.895 34.5801 540.718V534.149ZM77.3301 526.543C75.8263 527.809 70.9454 528.23 68.0898 528.309V523.787C71.6924 523.633 74.5361 523.427 77.3301 522.306V526.543ZM74.3484 519.361C76.262 519.759 77.0484 520.206 77.2782 520.423C75.5408 521.668 71.0418 522.038 68.0898 522.132V518.714C70.4262 518.776 72.623 519.002 74.3484 519.361ZM38.4685 518.036C44.7847 519.516 56.2153 519.516 62.5316 518.036C64.2138 517.659 65.5059 517.223 66.42 516.722V523.291C66.42 523.539 65.2654 524.722 59.9315 525.554C59.4759 525.625 59.1647 526.048 59.2364 526.499C59.3059 526.953 59.7455 527.26 60.1909 527.188C63.0296 526.746 65.1088 526.158 66.42 525.431V532.004C66.42 532.181 65.6626 533.066 62.1636 533.849C56.0872 535.276 44.9131 535.276 38.8367 533.849C35.3376 533.066 34.5801 532.181 34.5801 532.004V525.435C35.4941 525.937 36.7863 526.373 38.4685 526.75C41.6917 527.471 45.9646 527.868 50.5 527.868C52.4774 527.868 54.4146 527.793 56.2579 527.644C56.7176 527.607 57.0597 527.207 57.0223 526.752C56.9846 526.297 56.5815 525.959 56.1222 525.995C54.3239 526.14 52.4322 526.214 50.5 526.214C46.0847 526.214 41.9425 525.831 38.8365 525.136C35.3376 524.352 34.5801 523.468 34.5801 523.291V516.722C35.4941 517.223 36.7863 517.659 38.4685 518.036ZM26.6516 519.361C28.377 519.002 30.5738 518.776 32.9102 518.714V522.132C29.971 522.04 25.4463 521.665 23.7218 520.423C23.9516 520.206 24.738 519.759 26.6516 519.361ZM26.6516 546.192C24.5502 545.755 23.8083 545.258 23.6699 545.073V540.836C24.2352 541.093 24.9453 541.322 25.8041 541.523C26.2409 541.629 26.7045 541.356 26.8087 540.908C26.9148 540.464 26.637 540.018 26.1883 539.913C24.4293 539.501 23.7949 539.061 23.6699 538.896V534.66C26.4643 535.781 29.3075 535.986 32.9102 536.141V540.663C31.9012 540.636 30.9178 540.579 29.978 540.493C29.5203 540.451 29.1121 540.785 29.0692 541.239C29.0265 541.694 29.364 542.097 29.8231 542.14C30.8133 542.231 31.8488 542.29 32.9102 542.318V546.839C30.5738 546.777 28.377 546.551 26.6516 546.192ZM62.1635 551.276C56.0871 552.703 44.913 552.703 38.8366 551.276C35.3376 550.493 34.5801 549.608 34.5801 549.431V542.862C35.4941 543.364 36.7863 543.8 38.4685 544.176C44.7847 545.657 56.2153 545.657 62.5316 544.176C64.2138 543.8 65.5059 543.364 66.42 542.862V549.431C66.4199 549.608 65.6624 550.493 62.1635 551.276ZM74.3484 540.015C72.623 540.374 70.4262 540.6 68.0898 540.662V536.141C71.6922 535.986 74.5361 535.781 77.3301 534.66V538.896C77.1916 539.081 76.4498 539.578 74.3484 540.015Z" fill="#16C78C"/>
<g clip-path="url(#clip0_5256_1412)">
<path d="M324.427 474.276C314.959 474.276 307.283 481.952 307.283 491.42C307.283 500.888 314.959 508.563 324.427 508.563C333.895 508.563 341.57 500.888 341.57 491.42C341.56 481.956 333.891 474.287 324.427 474.276ZM324.427 475.909C329.469 475.913 334.195 478.371 337.093 482.497L335.052 484.538C334.556 484.237 333.987 484.077 333.407 484.073C331.603 484.073 330.141 485.535 330.141 487.338C330.144 487.919 330.304 488.489 330.604 488.986L325.259 494.332C324.246 493.715 322.974 493.715 321.962 494.332L318.249 490.619C318.549 490.121 318.709 489.552 318.712 488.971C318.714 487.171 317.257 485.71 315.457 485.708C313.969 485.706 312.668 486.713 312.297 488.154H309.269C310.814 481.017 317.124 475.92 324.427 475.909ZM335.039 487.338C335.039 488.24 334.308 488.971 333.407 488.971C332.505 488.971 331.774 488.24 331.774 487.338C331.774 486.436 332.505 485.705 333.407 485.705C334.308 485.705 335.039 486.436 335.039 487.338ZM325.243 497.134C325.243 498.036 324.512 498.767 323.61 498.767C322.709 498.767 321.978 498.036 321.978 497.134C321.978 496.232 322.709 495.502 323.61 495.502C324.512 495.502 325.243 496.232 325.243 497.134ZM317.079 488.971C317.079 489.872 316.349 490.603 315.447 490.603C314.545 490.603 313.814 489.872 313.814 488.971C313.814 488.069 314.545 487.338 315.447 487.338C316.349 487.338 317.079 488.069 317.079 488.971ZM331.963 504.982C329.658 506.262 327.064 506.933 324.427 506.93C315.866 506.936 308.922 500.001 308.916 491.441C308.916 490.888 308.945 490.336 309.003 489.787H312.297C312.668 491.224 313.962 492.23 315.447 492.236C316.028 492.233 316.597 492.073 317.095 491.773L320.808 495.486C320.508 495.983 320.348 496.553 320.345 497.134C320.345 498.938 321.807 500.4 323.61 500.4C325.414 500.4 326.876 498.938 326.876 497.134C326.873 496.553 326.713 495.983 326.413 495.486L331.758 490.14C332.256 490.441 332.825 490.6 333.407 490.603C335.21 490.603 336.672 489.141 336.672 487.338C336.669 486.757 336.509 486.187 336.209 485.69L337.989 483.911C342.144 491.394 339.446 500.827 331.963 504.982Z" fill="#16C78C"/>
<path d="M344.836 479.175C346.321 479.169 347.615 478.163 347.986 476.726H353V475.093H347.986C347.615 473.655 346.321 472.649 344.836 472.644C343.033 472.644 341.571 474.106 341.571 475.909C341.574 476.49 341.734 477.06 342.034 477.557L340.6 478.992C333.736 470.05 320.925 468.366 311.983 475.229C303.042 482.092 301.357 494.904 308.22 503.845C314.699 512.285 326.574 514.332 335.504 508.549L337.968 511.013L339.122 512.167L345.694 518.739C347.365 520.41 350.075 520.41 351.746 518.739C353.417 517.067 353.417 514.357 351.746 512.686L345.174 506.114L344.02 504.96L341.556 502.496C345.93 495.76 345.93 487.08 341.556 480.344L343.189 478.711C343.686 479.011 344.256 479.171 344.836 479.175ZM344.836 474.276C345.738 474.276 346.469 475.007 346.469 475.909C346.469 476.811 345.738 477.542 344.836 477.542C343.935 477.542 343.204 476.811 343.204 475.909C343.204 475.007 343.935 474.276 344.836 474.276ZM350.592 513.84C351.637 514.862 351.656 516.539 350.634 517.584C349.612 518.63 347.936 518.649 346.89 517.627C346.876 517.613 346.862 517.599 346.848 517.584L340.276 511.013L344.02 507.269L350.592 513.84ZM342.866 506.114L339.122 509.858L336.862 507.599C336.977 507.51 337.085 507.413 337.199 507.323C337.312 507.232 337.443 507.123 337.565 507.021C337.744 506.871 337.92 506.719 338.093 506.563C338.182 506.482 338.267 506.4 338.355 506.318C338.689 506.005 339.013 505.681 339.327 505.346C339.408 505.259 339.49 505.174 339.572 505.085C339.728 504.912 339.879 504.736 340.03 504.557C340.132 504.436 340.232 504.314 340.331 504.19C340.421 504.078 340.518 503.97 340.606 503.855L342.866 506.114ZM339.7 502.322C339.443 502.682 339.177 503.033 338.897 503.372C338.816 503.471 338.728 503.567 338.644 503.664C338.395 503.954 338.137 504.236 337.87 504.509C337.754 504.629 337.637 504.747 337.517 504.863C337.245 505.129 336.963 505.387 336.671 505.637C336.574 505.718 336.479 505.807 336.38 505.89C336.041 506.17 335.689 506.435 335.33 506.692C326.879 512.73 315.134 510.773 309.096 502.322C303.059 493.871 305.015 482.126 313.466 476.089C321.917 470.051 333.662 472.008 339.7 480.459C344.372 486.998 344.372 495.783 339.7 502.322Z" fill="#16C78C"/>
</g>
<path d="M627.679 533.354H627.357V508.88C627.357 507.902 626.565 507.106 625.591 507.106H624.463C625.803 505.632 627.065 504.087 628.241 502.477L628.743 502.852C629.139 503.146 629.659 503.194 630.101 502.978C630.544 502.763 630.827 502.322 630.842 501.828L630.999 496.359C631.012 495.928 630.813 495.516 630.467 495.259C630.122 495.002 629.672 494.931 629.265 495.069L624.102 496.814C623.636 496.971 623.299 497.372 623.222 497.86C623.146 498.348 623.343 498.834 623.739 499.128L624.565 499.743C623.819 500.766 623.028 501.77 622.208 502.736C621.935 503.058 621.974 503.541 622.294 503.816C622.614 504.09 623.095 504.052 623.369 503.73C624.38 502.538 625.347 501.29 626.245 500.021C626.485 499.681 626.411 499.21 626.077 498.962L624.968 498.137L629.467 496.616L629.329 501.382L628.528 500.786C628.364 500.663 628.157 500.612 627.955 500.645C627.753 500.677 627.572 500.789 627.453 500.957C622.452 508.016 615.757 513.847 608.09 517.82C600.417 521.797 591.798 523.899 583.165 523.899H581.287C580.867 523.899 580.525 523.555 580.525 523.133C580.525 522.711 580.867 522.367 581.287 522.367H583.165C590.322 522.367 597.289 520.939 603.871 518.122C610.404 515.326 616.216 511.31 621.148 506.187C621.441 505.883 621.433 505.398 621.13 505.104C620.827 504.81 620.344 504.819 620.052 505.123C618.141 507.108 616.093 508.921 613.92 510.557C613.916 510.557 613.913 510.557 613.909 510.557H607.828C606.854 510.557 606.061 511.352 606.061 512.331V515.421C605.381 515.761 604.692 516.086 603.994 516.398V515.311C603.994 514.332 603.202 513.537 602.228 513.537H596.146C595.172 513.537 594.38 514.332 594.38 515.311V519.595C593.694 519.749 593.005 519.89 592.313 520.016V517.74C592.313 516.761 591.521 515.965 590.547 515.965H584.465C583.491 515.965 582.698 516.761 582.698 517.74V520.836H581.287C580.026 520.836 579 521.867 579 523.133C579 524.399 580.026 525.43 581.287 525.43H582.698V533.354H582.288C580.513 533.354 579.069 534.804 579.069 536.587V538.685C579.069 539.41 579.656 540 580.378 540H629.589C630.31 540 630.898 539.41 630.898 538.685V536.587C630.898 534.804 629.454 533.354 627.679 533.354ZM607.586 512.331C607.586 512.197 607.694 512.088 607.828 512.088H611.773C610.421 512.999 609.024 513.846 607.586 514.626V512.331ZM595.904 515.311C595.904 515.177 596.013 515.068 596.146 515.068H602.228C602.361 515.068 602.469 515.177 602.469 515.311V517.048C600.32 517.926 598.129 518.654 595.904 519.228L595.904 515.311ZM584.465 517.497H590.546C590.68 517.497 590.788 517.606 590.788 517.74V520.269C588.624 520.594 586.433 520.779 584.223 520.824V517.739C584.223 517.606 584.331 517.497 584.465 517.497ZM623.02 508.637H625.591C625.724 508.637 625.833 508.746 625.833 508.88V533.354H619.267V512.133C620.57 511.025 621.823 509.859 623.02 508.637ZM608.789 519.181C610.635 518.225 612.425 517.163 614.151 516.005V524.158C614.151 524.581 614.492 524.924 614.913 524.924C615.334 524.924 615.676 524.581 615.676 524.158V514.947C616.377 514.443 617.065 513.921 617.743 513.385V533.354H615.676V527.423C615.676 527 615.334 526.658 614.913 526.658C614.492 526.658 614.151 527 614.151 527.423V533.354H607.586V519.785C607.989 519.588 608.391 519.388 608.789 519.181ZM595.904 523.943C598.13 523.419 600.324 522.76 602.47 521.968V533.354H595.904V523.943ZM603.994 521.38C604.689 521.101 605.378 520.807 606.061 520.499V533.354H603.994V521.38ZM584.223 525.419C586.419 525.376 588.613 525.202 590.788 524.899V527.437C590.788 527.86 591.129 528.203 591.55 528.203C591.971 528.203 592.313 527.86 592.313 527.437V524.667C593.004 524.551 593.693 524.421 594.38 524.28V533.354H592.313V530.702C592.313 530.279 591.971 529.937 591.55 529.937C591.129 529.937 590.788 530.279 590.788 530.702V533.354H584.223V525.419ZM629.373 538.469H580.594V536.587C580.594 535.649 581.354 534.885 582.288 534.885H627.679C628.613 534.885 629.373 535.649 629.373 536.587V538.469Z" fill="#16C78C"/>
<path d="M540.807 260.203L542.885 261.729C543.148 261.922 543.5 261.944 543.785 261.785C544.468 261.405 545.198 261.103 545.954 260.887C546.268 260.798 546.501 260.533 546.551 260.211L546.94 257.67H550.625L551.014 260.211C551.063 260.533 551.296 260.798 551.61 260.887C552.367 261.103 553.097 261.405 553.779 261.785C554.064 261.944 554.416 261.922 554.679 261.729L556.751 260.207L559.357 262.813L557.835 264.885C557.642 265.148 557.62 265.5 557.779 265.785C558.159 266.468 558.461 267.197 558.677 267.954C558.766 268.268 559.031 268.501 559.353 268.55L561.838 268.93C561.881 268.937 561.923 268.94 561.965 268.94C562.371 268.94 562.726 268.644 562.79 268.231C562.859 267.776 562.546 267.35 562.09 267.28L560.122 266.978C559.947 266.455 559.735 265.944 559.49 265.452L561.127 263.224C561.371 262.892 561.336 262.431 561.044 262.139L557.425 258.519C557.133 258.228 556.672 258.193 556.34 258.437L554.112 260.073C553.619 259.828 553.109 259.617 552.585 259.442L552.167 256.708C552.105 256.301 551.754 256 551.342 256H546.223C545.81 256 545.46 256.301 545.397 256.709L544.979 259.442C544.456 259.617 543.945 259.829 543.452 260.074L541.224 258.437C540.892 258.193 540.431 258.228 540.14 258.52L539.713 258.946C539.387 259.272 539.387 259.801 539.713 260.127C540.012 260.425 540.48 260.451 540.807 260.203Z" fill="#16C78C"/>
<path d="M540.73 283.289C540.903 283.289 541.076 283.235 541.224 283.127L541.925 282.612C542.297 282.339 542.377 281.816 542.104 281.445C541.831 281.073 541.308 280.993 540.937 281.266L540.813 281.357L538.208 278.751L539.729 276.679C539.922 276.416 539.944 276.064 539.786 275.779C539.405 275.096 539.103 274.366 538.888 273.61C538.798 273.296 538.534 273.063 538.211 273.014L535.67 272.625V268.939L538.211 268.551C538.534 268.501 538.798 268.268 538.888 267.954C539.103 267.198 539.405 266.468 539.786 265.785C539.944 265.5 539.922 265.148 539.729 264.885L538.207 262.813L538.417 262.604C538.743 262.278 538.743 261.749 538.417 261.423C538.091 261.097 537.562 261.097 537.236 261.423L536.52 262.139C536.228 262.431 536.193 262.892 536.437 263.224L538.074 265.452C537.829 265.945 537.617 266.455 537.442 266.979L534.709 267.397C534.301 267.46 534 267.81 534 268.222V273.342C534 273.754 534.301 274.105 534.709 274.167L537.442 274.585C537.617 275.109 537.829 275.619 538.074 276.112L536.437 278.34C536.193 278.672 536.228 279.133 536.52 279.424L540.139 283.044C540.301 283.206 540.515 283.289 540.73 283.289Z" fill="#16C78C"/>
<path d="M548.782 265.654C550.358 265.654 551.824 266.364 552.804 267.6C553.09 267.962 553.615 268.023 553.977 267.736C554.338 267.45 554.399 266.925 554.112 266.563C552.814 264.924 550.871 263.984 548.782 263.984C545.034 263.984 541.984 267.034 541.984 270.782C541.984 272.113 542.369 273.401 543.097 274.509C543.257 274.753 543.523 274.886 543.795 274.886C543.952 274.886 544.111 274.842 544.253 274.749C544.638 274.496 544.745 273.978 544.492 273.593C543.944 272.758 543.654 271.786 543.654 270.782C543.654 267.955 545.955 265.654 548.782 265.654Z" fill="#16C78C"/>
<path d="M573.35 284.781C572.892 284.74 572.485 285.079 572.444 285.538C572.129 289.075 570.478 292.319 567.798 294.673C567.617 294.831 567.514 295.06 567.514 295.3V307.298H555.356V305.059C555.356 304.598 554.982 304.224 554.521 304.224H547.82C546.457 304.224 545.347 303.115 545.347 301.751V297.215C545.347 296.753 544.974 296.38 544.512 296.38H540.84L544.864 285.548C544.905 285.437 544.923 285.319 544.915 285.202C544.894 284.898 544.884 284.593 544.884 284.295C544.884 276.681 551.079 270.487 558.692 270.487C560.317 270.487 561.908 270.767 563.423 271.318C563.856 271.476 564.335 271.253 564.493 270.82C564.651 270.386 564.428 269.907 563.994 269.75C562.296 269.131 560.512 268.817 558.692 268.817C550.158 268.817 543.214 275.761 543.214 284.295C543.214 284.571 543.222 284.851 543.238 285.132L538.857 296.924C538.762 297.18 538.798 297.467 538.954 297.691C539.11 297.916 539.366 298.05 539.64 298.05H543.678V301.751C543.678 304.036 545.536 305.894 547.82 305.894H553.686V307.298H552.578C552.304 307.298 552.048 307.432 551.892 307.657L549.094 311.689C548.917 311.944 548.896 312.277 549.04 312.552C549.184 312.828 549.469 313 549.78 313H554.521H568.349H570.309C570.77 313 571.144 312.626 571.144 312.165V308.133C571.144 307.671 570.77 307.298 570.309 307.298H569.184V295.672C572.02 293.057 573.765 289.526 574.108 285.687C574.149 285.227 573.81 284.822 573.35 284.781ZM569.474 311.33H568.349H554.521H551.376L553.015 308.967H554.517C554.518 308.967 554.519 308.968 554.521 308.968C554.522 308.968 554.524 308.967 554.525 308.967H568.345C568.346 308.967 568.348 308.968 568.349 308.968C568.35 308.968 568.352 308.967 568.353 308.967H569.474V311.33H569.474Z" fill="#16C78C"/>
<path d="M580.818 274.462L574.249 269.436C573.674 268.995 572.912 268.921 572.262 269.242C571.612 269.563 571.209 270.213 571.209 270.937V272.068H565.822C564.628 272.068 563.657 273.039 563.657 274.233V274.711H562.242V273.58C562.242 272.855 561.838 272.205 561.188 271.884C560.538 271.563 559.777 271.637 559.202 272.078L552.633 277.105C552.161 277.466 551.891 278.013 551.891 278.607C551.891 279.2 552.161 279.748 552.633 280.108L559.202 285.135C559.54 285.394 559.942 285.526 560.349 285.526C560.634 285.526 560.921 285.461 561.188 285.329C561.838 285.008 562.242 284.358 562.242 283.633V282.503H567.629C568.822 282.503 569.793 281.532 569.793 280.338V279.86H571.209V280.991C571.209 281.716 571.612 282.366 572.262 282.686C572.53 282.819 572.817 282.884 573.102 282.884C573.508 282.884 573.911 282.752 574.249 282.493L580.818 277.466C581.29 277.105 581.56 276.558 581.56 275.964C581.56 275.37 581.29 274.823 580.818 274.462ZM568.124 278.19H565.822C565.549 278.19 565.327 277.968 565.327 277.696V276.381H567.629C567.902 276.381 568.124 276.602 568.124 276.875V278.19ZM567.629 280.833H561.407C560.946 280.833 560.572 281.207 560.572 281.668V283.633C560.572 283.747 560.505 283.804 560.449 283.832C560.393 283.86 560.307 283.878 560.217 283.809L553.647 278.782C553.576 278.727 553.561 278.657 553.561 278.607C553.561 278.557 553.576 278.486 553.647 278.431L560.217 273.404C560.307 273.335 560.393 273.354 560.449 273.382C560.505 273.409 560.572 273.466 560.572 273.58V275.546C560.572 276.007 560.946 276.381 561.407 276.381H563.658V277.696C563.658 278.889 564.629 279.86 565.822 279.86H568.124V280.338C568.124 280.611 567.902 280.833 567.629 280.833ZM579.803 276.14L573.234 281.167C573.144 281.236 573.058 281.217 573.002 281.189C572.946 281.161 572.879 281.104 572.879 280.991V279.025C572.879 278.564 572.505 278.19 572.044 278.19H569.793V276.875C569.793 275.682 568.822 274.711 567.629 274.711H565.327V274.233C565.327 273.96 565.549 273.738 565.822 273.738H572.044C572.505 273.738 572.879 273.364 572.879 272.903V270.938C572.879 270.824 572.946 270.767 573.002 270.739C573.058 270.712 573.144 270.693 573.234 270.762L579.803 275.789C579.875 275.843 579.89 275.914 579.89 275.964C579.89 276.014 579.875 276.085 579.803 276.14Z" fill="#16C78C"/>
<path d="M561.394 295.165H560.272C559.811 295.165 559.438 295.538 559.438 296C559.438 296.461 559.811 296.835 560.272 296.835H561.394C562.956 296.835 564.227 295.564 564.227 294.001V291.098C564.227 289.536 562.956 288.265 561.394 288.265H560.272C559.811 288.265 559.438 288.639 559.438 289.1C559.438 289.561 559.811 289.935 560.272 289.935H561.394C562.035 289.935 562.557 290.457 562.557 291.098V294.001C562.557 294.643 562.035 295.165 561.394 295.165Z" fill="#16C78C"/>
<rect x="76.5" y="274.5" width="22" height="14" rx="4.5" fill="#16C78C" stroke="#0F352D"/>
<circle cx="87.1667" cy="269.167" r="6.16667" fill="#16C78C" stroke="#0F352D" stroke-width="2"/>
<rect x="99.5" y="274.5" width="22" height="14" rx="4.5" fill="#16C78C" stroke="#0F352D"/>
<circle cx="110.167" cy="269.167" r="6.16667" fill="#16C78C" stroke="#0F352D" stroke-width="2"/>
<rect x="69.5" y="292.5" width="22" height="14" rx="4.5" fill="#16C78C" stroke="#0F352D"/>
<circle cx="80.1667" cy="287.167" r="6.16667" fill="#16C78C" stroke="#0F352D" stroke-width="2"/>
<rect x="108.5" y="292.5" width="22" height="14" rx="4.5" fill="#16C78C" stroke="#0F352D"/>
<circle cx="119.167" cy="287.167" r="6.16667" fill="#16C78C" stroke="#0F352D" stroke-width="2"/>
<rect x="88.5" y="292.5" width="22" height="14" rx="4.5" fill="#16C78C" stroke="#0F352D"/>
<circle cx="99.1667" cy="287.167" r="6.16667" fill="#16C78C" stroke="#0F352D" stroke-width="2"/>
<rect x="43" y="27" width="20" height="20" rx="2" fill="#16C78C"/>
<rect x="46" y="59" width="14" height="14" rx="2" fill="#16C78C"/>
<rect x="23" y="59" width="14" height="14" rx="2" fill="#16C78C"/>
<rect x="69" y="59" width="14" height="14" rx="2" fill="#16C78C"/>
<line x1="53" y1="47" x2="53" y2="59" stroke="#16C78C" stroke-width="2"/>
<line x1="30" y1="53" x2="76" y2="53" stroke="#16C78C" stroke-width="2"/>
<line x1="30" y1="52" x2="30" y2="59" stroke="#16C78C" stroke-width="2"/>
<line x1="77" y1="52" x2="77" y2="59" stroke="#16C78C" stroke-width="2"/>
<rect x="301" y="70" width="57" height="47" rx="3" fill="#16C78C"/>
<rect x="339.5" y="65.5" width="5" height="12" rx="1.5" fill="#16C78C"/>
<rect x="339.5" y="65.5" width="5" height="12" rx="1.5" stroke="#0F352D"/>
<rect x="339.5" y="65.5" width="5" height="12" rx="1.5" stroke="#0F352D"/>
<rect x="339.5" y="65.5" width="5" height="12" rx="1.5" stroke="#0F352D"/>
<rect x="315.5" y="65.5" width="5" height="12" rx="1.5" fill="#16C78C"/>
<rect x="315.5" y="65.5" width="5" height="12" rx="1.5" stroke="#0F352D"/>
<rect x="315.5" y="65.5" width="5" height="12" rx="1.5" stroke="#0F352D"/>
<rect x="315.5" y="65.5" width="5" height="12" rx="1.5" stroke="#0F352D"/>
<rect x="304" y="82" width="51" height="31" fill="#0F352D"/>
<rect x="331" y="85" width="8" height="7" fill="#16C78C"/>
<rect x="342" y="94" width="8" height="7" fill="#16C78C"/>
<rect x="320" y="94" width="8" height="7" fill="#16C78C"/>
<rect x="331" y="94" width="8" height="7" fill="#16C78C"/>
<rect x="309" y="94" width="8" height="7" fill="#16C78C"/>
<rect x="342" y="103" width="8" height="7" fill="#16C78C"/>
<rect x="320" y="103" width="8" height="7" fill="#16C78C"/>
<rect x="331" y="103" width="8" height="7" fill="#16C78C"/>
<rect x="309" y="103" width="8" height="7" fill="#16C78C"/>
<rect x="342" y="85" width="8" height="7" fill="#16C78C"/>
<rect x="579" y="25.7646" width="53.6471" height="44.2353" rx="3" fill="#16C78C"/>
<rect x="615.205" y="21.5" width="4.76471" height="11.3529" rx="1.5" fill="#16C78C"/>
<rect x="615.205" y="21.5" width="4.76471" height="11.3529" rx="1.5" stroke="#0F352D"/>
<rect x="615.205" y="21.5" width="4.76471" height="11.3529" rx="1.5" stroke="#0F352D"/>
<rect x="615.205" y="21.5" width="4.76471" height="11.3529" rx="1.5" stroke="#0F352D"/>
<rect x="592.617" y="21.5" width="4.76471" height="11.3529" rx="1.5" fill="#16C78C"/>
<rect x="592.617" y="21.5" width="4.76471" height="11.3529" rx="1.5" stroke="#0F352D"/>
<rect x="592.617" y="21.5" width="4.76471" height="11.3529" rx="1.5" stroke="#0F352D"/>
<rect x="592.617" y="21.5" width="4.76471" height="11.3529" rx="1.5" stroke="#0F352D"/>
<rect x="581.824" y="37.0588" width="48" height="29.1765" fill="#0F352D"/>
<circle cx="624.177" cy="66.2353" r="16.3235" fill="#16C78C" stroke="#0F352D" stroke-width="5"/>
<path d="M618.529 66.2353L624.176 71.8824L631.706 61.5294" stroke="#0F352D" stroke-width="4" stroke-linecap="round"/>
<defs>
<filter id="filter0_di_5256_1412" x="195" y="156" width="266" height="266" filterUnits="userSpaceOnUse" color-interpolation-filters="sRGB">
<feFlood flood-opacity="0" result="BackgroundImageFix"/>
<feColorMatrix in="SourceAlpha" type="matrix" values="0 0 0 0 0 0 0 0 0 0 0 0 0 0 0 0 0 0 127 0" result="hardAlpha"/>
<feMorphology radius="10" operator="dilate" in="SourceAlpha" result="effect1_dropShadow_5256_1412"/>
<feOffset dy="1"/>
<feGaussianBlur stdDeviation="15"/>
<feComposite in2="hardAlpha" operator="out"/>
<feColorMatrix type="matrix" values="0 0 0 0 0.109804 0 0 0 0 0.231373 0 0 0 0 0.439216 0 0 0 1 0"/>
<feBlend mode="normal" in2="BackgroundImageFix" result="effect1_dropShadow_5256_1412"/>
<feBlend mode="normal" in="SourceGraphic" in2="effect1_dropShadow_5256_1412" result="shape"/>
<feColorMatrix in="SourceAlpha" type="matrix" values="0 0 0 0 0 0 0 0 0 0 0 0 0 0 0 0 0 0 127 0" result="hardAlpha"/>
<feMorphology radius="10" operator="erode" in="SourceAlpha" result="effect2_innerShadow_5256_1412"/>
<feOffset/>
<feGaussianBlur stdDeviation="15"/>
<feComposite in2="hardAlpha" operator="arithmetic" k2="-1" k3="1"/>
<feColorMatrix type="matrix" values="0 0 0 0 0.109804 0 0 0 0 0.231373 0 0 0 0 0.439216 0 0 0 1 0"/>
<feBlend mode="normal" in2="shape" result="effect2_innerShadow_5256_1412"/>
</filter>
<clipPath id="clip0_5256_1412">
<rect width="49" height="49" fill="white" transform="translate(304 471)"/>
</clipPath>
</defs>
</svg>
